G04 EAGLE Gerber X2 export*
%TF.Part,Single*%
%TF.FileFunction,Copper,L2,Bot,Mixed*%
%TF.FilePolarity,Positive*%
%TF.GenerationSoftware,Autodesk,EAGLE,9.1.0*%
%TF.CreationDate,2019-02-06T17:54:37Z*%
G75*
%MOMM*%
%FSLAX34Y34*%
%LPD*%
%AMOC8*
5,1,8,0,0,1.08239X$1,22.5*%
G01*
%ADD10C,1.778000*%
%ADD11C,1.905000*%
%ADD12R,5.080000X2.540000*%
%ADD13C,0.152400*%
%ADD14C,0.609600*%
%ADD15C,0.812800*%
%ADD16C,0.304800*%

G36*
X522498Y2544D02*
X522498Y2544D01*
X522517Y2542D01*
X522619Y2564D01*
X522721Y2580D01*
X522738Y2590D01*
X522758Y2594D01*
X522847Y2647D01*
X522938Y2696D01*
X522952Y2710D01*
X522969Y2720D01*
X523036Y2799D01*
X523108Y2874D01*
X523116Y2892D01*
X523129Y2907D01*
X523168Y3003D01*
X523211Y3097D01*
X523213Y3117D01*
X523221Y3135D01*
X523239Y3302D01*
X523239Y10195D01*
X526429Y30334D01*
X532730Y49727D01*
X541987Y67894D01*
X553972Y84390D01*
X568390Y98808D01*
X584886Y110793D01*
X603053Y120050D01*
X622446Y126351D01*
X642585Y129541D01*
X809494Y129541D01*
X809514Y129544D01*
X809535Y129542D01*
X809635Y129564D01*
X809737Y129580D01*
X809755Y129590D01*
X809775Y129594D01*
X809863Y129647D01*
X809954Y129696D01*
X809968Y129710D01*
X809986Y129721D01*
X810053Y129799D01*
X810124Y129874D01*
X810132Y129892D01*
X810146Y129908D01*
X810184Y130004D01*
X810227Y130097D01*
X810230Y130117D01*
X810237Y130136D01*
X810256Y130303D01*
X810092Y273622D01*
X810081Y273692D01*
X810079Y273763D01*
X810061Y273813D01*
X810052Y273864D01*
X810019Y273927D01*
X809994Y273994D01*
X809962Y274035D01*
X809937Y274082D01*
X809885Y274131D01*
X809841Y274186D01*
X809796Y274215D01*
X809758Y274251D01*
X809694Y274281D01*
X809634Y274319D01*
X809583Y274332D01*
X809535Y274354D01*
X809464Y274362D01*
X809395Y274379D01*
X809343Y274375D01*
X809291Y274381D01*
X809221Y274366D01*
X809150Y274360D01*
X809102Y274340D01*
X809050Y274328D01*
X808989Y274292D01*
X808924Y274264D01*
X808867Y274219D01*
X808839Y274202D01*
X808824Y274184D01*
X808793Y274159D01*
X806193Y271560D01*
X800592Y269239D01*
X794528Y269239D01*
X788927Y271560D01*
X784640Y275847D01*
X782319Y281448D01*
X782319Y287512D01*
X784640Y293113D01*
X788927Y297400D01*
X794528Y299721D01*
X800592Y299721D01*
X806193Y297400D01*
X808768Y294826D01*
X808827Y294784D01*
X808879Y294734D01*
X808926Y294712D01*
X808968Y294682D01*
X809037Y294661D01*
X809102Y294631D01*
X809153Y294625D01*
X809203Y294610D01*
X809275Y294612D01*
X809347Y294604D01*
X809397Y294615D01*
X809449Y294616D01*
X809516Y294641D01*
X809587Y294656D01*
X809631Y294683D01*
X809680Y294701D01*
X809736Y294746D01*
X809798Y294783D01*
X809831Y294822D01*
X809872Y294854D01*
X809911Y294915D01*
X809957Y294970D01*
X809977Y295018D01*
X810005Y295061D01*
X810022Y295131D01*
X810049Y295198D01*
X810057Y295269D01*
X810065Y295300D01*
X810063Y295323D01*
X810067Y295365D01*
X809884Y456178D01*
X809877Y456221D01*
X809879Y456263D01*
X809857Y456341D01*
X809844Y456421D01*
X809824Y456459D01*
X809812Y456500D01*
X809768Y456572D01*
X809877Y457419D01*
X809875Y457450D01*
X809883Y457516D01*
X809882Y458563D01*
X809887Y458582D01*
X809887Y458601D01*
X809892Y458621D01*
X809883Y458724D01*
X809881Y458827D01*
X809877Y458837D01*
X809877Y459269D01*
X809862Y459359D01*
X809855Y459450D01*
X809842Y459480D01*
X809837Y459512D01*
X809795Y459592D01*
X809759Y459677D01*
X809733Y459709D01*
X809722Y459729D01*
X809699Y459752D01*
X809680Y459775D01*
X809676Y459782D01*
X809672Y459785D01*
X809654Y459808D01*
X751410Y518043D01*
X751336Y518096D01*
X751267Y518156D01*
X751237Y518168D01*
X751211Y518186D01*
X751123Y518213D01*
X751039Y518247D01*
X750998Y518252D01*
X750976Y518259D01*
X750943Y518258D01*
X750872Y518266D01*
X700743Y518243D01*
X700672Y518231D01*
X700601Y518229D01*
X700552Y518212D01*
X700500Y518203D01*
X700437Y518170D01*
X700370Y518145D01*
X700329Y518112D01*
X700283Y518088D01*
X700234Y518036D01*
X700178Y517991D01*
X700149Y517947D01*
X700114Y517909D01*
X700083Y517845D01*
X700045Y517784D01*
X700032Y517734D01*
X700010Y517686D01*
X700002Y517615D01*
X699985Y517546D01*
X699989Y517494D01*
X699983Y517442D01*
X699998Y517372D01*
X700004Y517301D01*
X700024Y517253D01*
X700035Y517202D01*
X700072Y517140D01*
X700100Y517074D01*
X700145Y517018D01*
X700162Y516990D01*
X700179Y516975D01*
X700205Y516943D01*
X702483Y514666D01*
X704165Y510604D01*
X704165Y506208D01*
X702777Y502859D01*
X702751Y502745D01*
X702722Y502632D01*
X702723Y502625D01*
X702721Y502619D01*
X702732Y502503D01*
X702741Y502386D01*
X702744Y502381D01*
X702744Y502374D01*
X702792Y502267D01*
X702838Y502160D01*
X702842Y502154D01*
X702844Y502150D01*
X702857Y502136D01*
X702942Y502029D01*
X708724Y496247D01*
X708724Y402278D01*
X707162Y400715D01*
X699422Y392976D01*
X698657Y392210D01*
X698630Y392173D01*
X698596Y392142D01*
X698559Y392074D01*
X698513Y392011D01*
X698500Y391967D01*
X698478Y391927D01*
X698464Y391850D01*
X698441Y391776D01*
X698442Y391730D01*
X698434Y391684D01*
X698445Y391607D01*
X698447Y391530D01*
X698463Y391487D01*
X698470Y391441D01*
X698505Y391372D01*
X698532Y391299D01*
X698561Y391263D01*
X698581Y391222D01*
X698637Y391168D01*
X698685Y391107D01*
X698724Y391082D01*
X698757Y391050D01*
X698877Y390984D01*
X698892Y390974D01*
X698897Y390972D01*
X698904Y390969D01*
X699374Y390774D01*
X702483Y387666D01*
X704165Y383604D01*
X704165Y379208D01*
X702483Y375147D01*
X702397Y375061D01*
X702355Y375003D01*
X702305Y374951D01*
X702284Y374904D01*
X702253Y374862D01*
X702232Y374793D01*
X702202Y374728D01*
X702196Y374676D01*
X702181Y374627D01*
X702183Y374555D01*
X702175Y374484D01*
X702186Y374433D01*
X702187Y374381D01*
X702212Y374313D01*
X702227Y374243D01*
X702254Y374198D01*
X702272Y374150D01*
X702316Y374094D01*
X702353Y374032D01*
X702393Y373998D01*
X702425Y373958D01*
X702486Y373919D01*
X702540Y373872D01*
X702588Y373853D01*
X702632Y373825D01*
X702702Y373807D01*
X702768Y373780D01*
X702840Y373772D01*
X702871Y373764D01*
X702894Y373766D01*
X702935Y373762D01*
X727342Y373762D01*
X727432Y373776D01*
X727523Y373784D01*
X727553Y373796D01*
X727585Y373801D01*
X727666Y373844D01*
X727749Y373880D01*
X727782Y373906D01*
X727802Y373917D01*
X727824Y373940D01*
X727880Y373985D01*
X729943Y376048D01*
X733732Y376048D01*
X736410Y373369D01*
X736410Y369581D01*
X733732Y366902D01*
X729943Y366902D01*
X727880Y368965D01*
X727806Y369018D01*
X727737Y369078D01*
X727707Y369090D01*
X727681Y369109D01*
X727594Y369136D01*
X727509Y369170D01*
X727468Y369174D01*
X727446Y369181D01*
X727413Y369180D01*
X727342Y369188D01*
X701350Y369188D01*
X701260Y369174D01*
X701169Y369166D01*
X701139Y369154D01*
X701107Y369149D01*
X701027Y369106D01*
X700943Y369070D01*
X700911Y369044D01*
X700890Y369033D01*
X700868Y369010D01*
X700812Y368965D01*
X698657Y366810D01*
X698630Y366773D01*
X698596Y366742D01*
X698559Y366674D01*
X698513Y366611D01*
X698500Y366567D01*
X698478Y366527D01*
X698464Y366450D01*
X698441Y366376D01*
X698442Y366330D01*
X698434Y366284D01*
X698445Y366207D01*
X698447Y366130D01*
X698463Y366087D01*
X698470Y366041D01*
X698505Y365972D01*
X698532Y365899D01*
X698561Y365863D01*
X698581Y365822D01*
X698637Y365768D01*
X698685Y365707D01*
X698724Y365682D01*
X698757Y365650D01*
X698877Y365584D01*
X698892Y365574D01*
X698897Y365572D01*
X698904Y365569D01*
X699374Y365374D01*
X702483Y362266D01*
X704165Y358204D01*
X704165Y353808D01*
X702483Y349747D01*
X699374Y346639D01*
X695313Y344957D01*
X690917Y344957D01*
X686856Y346639D01*
X683748Y349747D01*
X682065Y353808D01*
X682065Y358204D01*
X683748Y362266D01*
X686196Y364714D01*
X686238Y364772D01*
X686287Y364824D01*
X686309Y364871D01*
X686339Y364913D01*
X686360Y364982D01*
X686391Y365047D01*
X686396Y365099D01*
X686412Y365149D01*
X686410Y365220D01*
X686418Y365291D01*
X686407Y365342D01*
X686405Y365394D01*
X686381Y365462D01*
X686366Y365532D01*
X686339Y365577D01*
X686321Y365625D01*
X686276Y365681D01*
X686239Y365743D01*
X686200Y365777D01*
X686167Y365817D01*
X686107Y365856D01*
X686052Y365903D01*
X686004Y365922D01*
X685960Y365950D01*
X685891Y365968D01*
X685824Y365995D01*
X685753Y366003D01*
X685722Y366011D01*
X685699Y366009D01*
X685658Y366013D01*
X590423Y366013D01*
X590403Y366010D01*
X590384Y366012D01*
X590282Y365990D01*
X590180Y365974D01*
X590163Y365964D01*
X590143Y365960D01*
X590054Y365907D01*
X589963Y365858D01*
X589949Y365844D01*
X589932Y365834D01*
X589865Y365755D01*
X589793Y365680D01*
X589785Y365662D01*
X589772Y365647D01*
X589733Y365551D01*
X589690Y365457D01*
X589688Y365437D01*
X589680Y365419D01*
X589662Y365252D01*
X589662Y362590D01*
X570860Y343788D01*
X555358Y343788D01*
X555268Y343774D01*
X555177Y343766D01*
X555147Y343754D01*
X555115Y343749D01*
X555035Y343706D01*
X554951Y343670D01*
X554918Y343644D01*
X554898Y343633D01*
X554876Y343610D01*
X554820Y343565D01*
X554566Y343311D01*
X554524Y343253D01*
X554474Y343201D01*
X554452Y343154D01*
X554422Y343112D01*
X554401Y343043D01*
X554371Y342978D01*
X554365Y342926D01*
X554350Y342876D01*
X554352Y342805D01*
X554344Y342734D01*
X554355Y342683D01*
X554356Y342631D01*
X554381Y342563D01*
X554396Y342493D01*
X554423Y342448D01*
X554440Y342400D01*
X554485Y342344D01*
X554522Y342282D01*
X554562Y342248D01*
X554594Y342208D01*
X554654Y342169D01*
X554709Y342122D01*
X554757Y342103D01*
X554801Y342075D01*
X554871Y342057D01*
X554937Y342030D01*
X555008Y342022D01*
X555040Y342014D01*
X555063Y342016D01*
X555104Y342012D01*
X596260Y342012D01*
X630962Y307310D01*
X631036Y307257D01*
X631105Y307197D01*
X631135Y307185D01*
X631161Y307166D01*
X631248Y307139D01*
X631333Y307105D01*
X631374Y307101D01*
X631397Y307094D01*
X631429Y307095D01*
X631500Y307087D01*
X661135Y307087D01*
X661231Y307102D01*
X661328Y307112D01*
X661352Y307122D01*
X661378Y307126D01*
X661464Y307172D01*
X661553Y307212D01*
X661572Y307229D01*
X661595Y307242D01*
X661662Y307312D01*
X661734Y307378D01*
X661746Y307401D01*
X661764Y307420D01*
X661805Y307508D01*
X661852Y307594D01*
X661857Y307619D01*
X661868Y307643D01*
X661879Y307740D01*
X661896Y307836D01*
X661892Y307862D01*
X661895Y307887D01*
X661874Y307983D01*
X661860Y308079D01*
X661848Y308102D01*
X661843Y308128D01*
X661793Y308211D01*
X661749Y308298D01*
X661730Y308317D01*
X661717Y308339D01*
X661643Y308402D01*
X661573Y308471D01*
X661544Y308486D01*
X661530Y308499D01*
X661499Y308511D01*
X661465Y308530D01*
X658348Y311647D01*
X656665Y315708D01*
X656665Y320104D01*
X658348Y324166D01*
X661456Y327274D01*
X665517Y328956D01*
X669913Y328956D01*
X673974Y327274D01*
X677083Y324166D01*
X678765Y320104D01*
X678765Y315708D01*
X677083Y311647D01*
X673958Y308523D01*
X673921Y308500D01*
X673835Y308454D01*
X673817Y308436D01*
X673795Y308422D01*
X673733Y308347D01*
X673666Y308276D01*
X673655Y308252D01*
X673638Y308232D01*
X673604Y308141D01*
X673562Y308053D01*
X673560Y308027D01*
X673550Y308003D01*
X673546Y307905D01*
X673535Y307809D01*
X673541Y307783D01*
X673540Y307757D01*
X673567Y307664D01*
X673588Y307568D01*
X673601Y307546D01*
X673608Y307521D01*
X673664Y307441D01*
X673714Y307357D01*
X673734Y307340D01*
X673748Y307319D01*
X673826Y307261D01*
X673901Y307197D01*
X673925Y307187D01*
X673946Y307172D01*
X674038Y307142D01*
X674129Y307105D01*
X674161Y307102D01*
X674180Y307096D01*
X674213Y307096D01*
X674296Y307087D01*
X681425Y307087D01*
X681540Y307106D01*
X681656Y307123D01*
X681662Y307125D01*
X681668Y307126D01*
X681771Y307181D01*
X681875Y307234D01*
X681880Y307239D01*
X681885Y307242D01*
X681965Y307326D01*
X682048Y307410D01*
X682051Y307416D01*
X682055Y307420D01*
X682063Y307437D01*
X682129Y307557D01*
X683748Y311466D01*
X686856Y314574D01*
X690917Y316256D01*
X695313Y316256D01*
X699374Y314574D01*
X702483Y311466D01*
X704165Y307404D01*
X704165Y303008D01*
X702483Y298947D01*
X699374Y295839D01*
X695313Y294157D01*
X690917Y294157D01*
X686856Y295839D01*
X683748Y298947D01*
X682465Y302043D01*
X682404Y302143D01*
X682344Y302243D01*
X682339Y302247D01*
X682336Y302252D01*
X682246Y302327D01*
X682157Y302403D01*
X682151Y302405D01*
X682146Y302409D01*
X682038Y302451D01*
X681929Y302495D01*
X681921Y302496D01*
X681917Y302497D01*
X681898Y302498D01*
X681762Y302513D01*
X629290Y302513D01*
X594588Y337215D01*
X594514Y337268D01*
X594445Y337328D01*
X594415Y337340D01*
X594389Y337359D01*
X594302Y337386D01*
X594217Y337420D01*
X594176Y337424D01*
X594153Y337431D01*
X594121Y337430D01*
X594050Y337438D01*
X550985Y337438D01*
X550939Y337431D01*
X550894Y337433D01*
X550819Y337411D01*
X550742Y337399D01*
X550701Y337377D01*
X550657Y337364D01*
X550593Y337320D01*
X550525Y337283D01*
X550493Y337250D01*
X550455Y337224D01*
X550409Y337162D01*
X550355Y337105D01*
X550336Y337063D01*
X550309Y337027D01*
X550284Y336953D01*
X550252Y336882D01*
X550247Y336836D01*
X550232Y336793D01*
X550233Y336715D01*
X550225Y336638D01*
X550234Y336593D01*
X550235Y336547D01*
X550273Y336415D01*
X550277Y336397D01*
X550279Y336393D01*
X550281Y336386D01*
X551765Y332804D01*
X551765Y328408D01*
X550083Y324347D01*
X546958Y321223D01*
X546921Y321200D01*
X546835Y321154D01*
X546817Y321136D01*
X546795Y321122D01*
X546733Y321047D01*
X546666Y320976D01*
X546655Y320952D01*
X546638Y320932D01*
X546604Y320841D01*
X546562Y320753D01*
X546560Y320727D01*
X546550Y320703D01*
X546546Y320605D01*
X546535Y320509D01*
X546541Y320483D01*
X546540Y320457D01*
X546567Y320364D01*
X546588Y320268D01*
X546601Y320246D01*
X546608Y320221D01*
X546664Y320141D01*
X546714Y320057D01*
X546734Y320040D01*
X546748Y320019D01*
X546826Y319961D01*
X546901Y319897D01*
X546925Y319887D01*
X546946Y319872D01*
X547038Y319842D01*
X547129Y319805D01*
X547161Y319802D01*
X547180Y319796D01*
X547213Y319796D01*
X547296Y319787D01*
X589910Y319787D01*
X593751Y315946D01*
X593825Y315893D01*
X593894Y315833D01*
X593924Y315821D01*
X593950Y315802D01*
X594037Y315775D01*
X594122Y315741D01*
X594163Y315737D01*
X594186Y315730D01*
X594218Y315731D01*
X594289Y315723D01*
X597207Y315723D01*
X599885Y313044D01*
X599885Y309256D01*
X597207Y306577D01*
X593418Y306577D01*
X590740Y309256D01*
X590740Y312173D01*
X590725Y312264D01*
X590718Y312354D01*
X590705Y312384D01*
X590700Y312416D01*
X590657Y312497D01*
X590622Y312581D01*
X590596Y312613D01*
X590585Y312634D01*
X590562Y312656D01*
X590517Y312712D01*
X588238Y314990D01*
X588164Y315043D01*
X588095Y315103D01*
X588065Y315115D01*
X588039Y315134D01*
X587952Y315161D01*
X587867Y315195D01*
X587826Y315199D01*
X587803Y315206D01*
X587771Y315205D01*
X587700Y315213D01*
X549610Y315213D01*
X549539Y315202D01*
X549467Y315200D01*
X549418Y315182D01*
X549367Y315174D01*
X549304Y315140D01*
X549236Y315115D01*
X549196Y315083D01*
X549150Y315058D01*
X549100Y315006D01*
X549044Y314962D01*
X549016Y314918D01*
X548980Y314880D01*
X548950Y314815D01*
X548911Y314755D01*
X548898Y314704D01*
X548877Y314657D01*
X548869Y314586D01*
X548851Y314516D01*
X548855Y314464D01*
X548849Y314413D01*
X548865Y314342D01*
X548870Y314271D01*
X548891Y314223D01*
X548902Y314172D01*
X548939Y314111D01*
X548967Y314045D01*
X549011Y313989D01*
X549028Y313961D01*
X549046Y313946D01*
X549071Y313914D01*
X549918Y313067D01*
X551035Y311530D01*
X551897Y309838D01*
X552484Y308032D01*
X552690Y306730D01*
X541477Y306730D01*
X541458Y306726D01*
X541438Y306729D01*
X541337Y306707D01*
X541235Y306690D01*
X541217Y306681D01*
X541197Y306676D01*
X541108Y306623D01*
X541017Y306575D01*
X541003Y306560D01*
X540986Y306550D01*
X540919Y306471D01*
X540848Y306396D01*
X540839Y306378D01*
X540826Y306363D01*
X540788Y306267D01*
X540744Y306173D01*
X540742Y306154D01*
X540735Y306135D01*
X540716Y305968D01*
X540716Y305206D01*
X540714Y305206D01*
X540714Y305968D01*
X540711Y305988D01*
X540713Y306008D01*
X540691Y306109D01*
X540675Y306211D01*
X540665Y306229D01*
X540661Y306248D01*
X540608Y306337D01*
X540560Y306428D01*
X540545Y306442D01*
X540535Y306459D01*
X540456Y306527D01*
X540381Y306598D01*
X540363Y306606D01*
X540348Y306619D01*
X540252Y306658D01*
X540158Y306701D01*
X540138Y306704D01*
X540120Y306711D01*
X539953Y306730D01*
X528740Y306730D01*
X528947Y308032D01*
X529533Y309838D01*
X530396Y311530D01*
X531512Y313067D01*
X532855Y314410D01*
X534205Y315391D01*
X534261Y315447D01*
X534323Y315497D01*
X534347Y315534D01*
X534378Y315566D01*
X534413Y315637D01*
X534456Y315704D01*
X534467Y315747D01*
X534487Y315786D01*
X534497Y315865D01*
X534516Y315942D01*
X534513Y315986D01*
X534519Y316030D01*
X534503Y316108D01*
X534497Y316188D01*
X534480Y316228D01*
X534472Y316272D01*
X534432Y316341D01*
X534401Y316414D01*
X534364Y316460D01*
X534350Y316485D01*
X534329Y316504D01*
X534296Y316545D01*
X534065Y316776D01*
X526351Y324490D01*
X526351Y328937D01*
X526336Y329028D01*
X526329Y329118D01*
X526316Y329148D01*
X526311Y329180D01*
X526268Y329261D01*
X526233Y329345D01*
X526207Y329377D01*
X526196Y329398D01*
X526173Y329420D01*
X526128Y329476D01*
X495711Y359892D01*
X495653Y359934D01*
X495601Y359984D01*
X495554Y360006D01*
X495512Y360036D01*
X495443Y360057D01*
X495378Y360087D01*
X495326Y360093D01*
X495276Y360108D01*
X495205Y360106D01*
X495134Y360114D01*
X495083Y360103D01*
X495031Y360102D01*
X494963Y360077D01*
X494893Y360062D01*
X494848Y360035D01*
X494800Y360017D01*
X494744Y359973D01*
X494682Y359936D01*
X494648Y359896D01*
X494608Y359864D01*
X494569Y359803D01*
X494522Y359749D01*
X494503Y359701D01*
X494475Y359657D01*
X494457Y359587D01*
X494430Y359521D01*
X494422Y359449D01*
X494414Y359418D01*
X494416Y359395D01*
X494412Y359354D01*
X494412Y229920D01*
X494426Y229830D01*
X494434Y229739D01*
X494446Y229710D01*
X494451Y229678D01*
X494494Y229597D01*
X494530Y229513D01*
X494556Y229481D01*
X494567Y229460D01*
X494590Y229438D01*
X494635Y229382D01*
X496698Y227319D01*
X496698Y223531D01*
X494019Y220852D01*
X490231Y220852D01*
X487552Y223531D01*
X487552Y227319D01*
X489615Y229382D01*
X489668Y229456D01*
X489728Y229526D01*
X489740Y229556D01*
X489759Y229582D01*
X489786Y229669D01*
X489820Y229754D01*
X489824Y229795D01*
X489831Y229817D01*
X489830Y229849D01*
X489838Y229920D01*
X489838Y360687D01*
X489824Y360778D01*
X489816Y360868D01*
X489804Y360898D01*
X489799Y360930D01*
X489756Y361011D01*
X489720Y361095D01*
X489694Y361127D01*
X489683Y361148D01*
X489660Y361170D01*
X489615Y361226D01*
X459897Y390944D01*
X459839Y390986D01*
X459787Y391035D01*
X459740Y391057D01*
X459698Y391087D01*
X459629Y391108D01*
X459564Y391139D01*
X459512Y391144D01*
X459462Y391160D01*
X459391Y391158D01*
X459320Y391166D01*
X459269Y391155D01*
X459217Y391153D01*
X459149Y391129D01*
X459079Y391114D01*
X459034Y391087D01*
X458986Y391069D01*
X458930Y391024D01*
X458868Y390987D01*
X458834Y390948D01*
X458794Y390915D01*
X458755Y390855D01*
X458708Y390800D01*
X458689Y390752D01*
X458661Y390708D01*
X458643Y390639D01*
X458616Y390572D01*
X458608Y390501D01*
X458600Y390470D01*
X458602Y390446D01*
X458598Y390406D01*
X458598Y390218D01*
X455919Y387540D01*
X452131Y387540D01*
X450068Y389603D01*
X449994Y389656D01*
X449924Y389715D01*
X449894Y389728D01*
X449868Y389746D01*
X449781Y389773D01*
X449696Y389807D01*
X449655Y389812D01*
X449633Y389819D01*
X449601Y389818D01*
X449530Y389826D01*
X222890Y389826D01*
X167857Y444859D01*
X167763Y444927D01*
X167668Y444997D01*
X167662Y444999D01*
X167657Y445003D01*
X167546Y445037D01*
X167434Y445073D01*
X167428Y445073D01*
X167422Y445075D01*
X167305Y445072D01*
X167188Y445071D01*
X167181Y445069D01*
X167176Y445069D01*
X167159Y445062D01*
X167027Y445024D01*
X163920Y443737D01*
X159777Y443737D01*
X155949Y445323D01*
X153020Y448252D01*
X151434Y452080D01*
X151434Y456224D01*
X153020Y460052D01*
X155959Y462991D01*
X156014Y463025D01*
X156100Y463071D01*
X156118Y463090D01*
X156140Y463103D01*
X156202Y463178D01*
X156270Y463249D01*
X156281Y463273D01*
X156297Y463293D01*
X156332Y463384D01*
X156373Y463472D01*
X156376Y463498D01*
X156385Y463522D01*
X156389Y463620D01*
X156400Y463716D01*
X156395Y463742D01*
X156396Y463768D01*
X156369Y463861D01*
X156348Y463957D01*
X156335Y463979D01*
X156327Y464004D01*
X156272Y464084D01*
X156222Y464168D01*
X156202Y464185D01*
X156187Y464206D01*
X156109Y464265D01*
X156035Y464328D01*
X156011Y464338D01*
X155990Y464353D01*
X155897Y464383D01*
X155807Y464420D01*
X155774Y464423D01*
X155756Y464429D01*
X155723Y464429D01*
X155640Y464438D01*
X152971Y464438D01*
X152952Y464435D01*
X152932Y464437D01*
X152831Y464415D01*
X152729Y464399D01*
X152711Y464389D01*
X152692Y464385D01*
X152603Y464332D01*
X152511Y464283D01*
X152498Y464269D01*
X152481Y464259D01*
X152413Y464180D01*
X152342Y464105D01*
X152334Y464087D01*
X152321Y464072D01*
X152282Y463976D01*
X152238Y463882D01*
X152236Y463862D01*
X152229Y463844D01*
X152210Y463677D01*
X152210Y461656D01*
X149532Y458977D01*
X146862Y458977D01*
X146817Y458970D01*
X146771Y458972D01*
X146696Y458950D01*
X146619Y458938D01*
X146579Y458916D01*
X146535Y458903D01*
X146471Y458859D01*
X146402Y458822D01*
X146371Y458789D01*
X146333Y458763D01*
X146286Y458700D01*
X146233Y458644D01*
X146213Y458602D01*
X146186Y458566D01*
X146162Y458492D01*
X146129Y458421D01*
X146124Y458375D01*
X146110Y458332D01*
X146111Y458254D01*
X146102Y458177D01*
X146112Y458132D01*
X146112Y458086D01*
X146150Y457954D01*
X146154Y457936D01*
X146157Y457932D01*
X146159Y457925D01*
X146864Y456224D01*
X146864Y452080D01*
X145278Y448252D01*
X142348Y445323D01*
X140869Y444710D01*
X140770Y444649D01*
X140670Y444589D01*
X140665Y444584D01*
X140660Y444581D01*
X140586Y444491D01*
X140510Y444402D01*
X140507Y444396D01*
X140503Y444391D01*
X140462Y444283D01*
X140418Y444174D01*
X140417Y444166D01*
X140415Y444161D01*
X140414Y444143D01*
X140399Y444007D01*
X140399Y271570D01*
X140415Y271476D01*
X140423Y271381D01*
X140434Y271355D01*
X140439Y271327D01*
X140484Y271243D01*
X140522Y271155D01*
X140541Y271134D01*
X140554Y271109D01*
X140623Y271044D01*
X140687Y270973D01*
X140712Y270960D01*
X140732Y270940D01*
X140819Y270900D01*
X140902Y270853D01*
X140930Y270848D01*
X140955Y270836D01*
X141050Y270826D01*
X141144Y270808D01*
X141172Y270812D01*
X141200Y270809D01*
X141293Y270830D01*
X141387Y270843D01*
X141420Y270857D01*
X141440Y270862D01*
X141469Y270879D01*
X141541Y270910D01*
X141869Y271100D01*
X142515Y271273D01*
X166726Y271273D01*
X166726Y256794D01*
X166729Y256776D01*
X166727Y256759D01*
X166728Y256757D01*
X166727Y256755D01*
X166749Y256653D01*
X166766Y256551D01*
X166775Y256534D01*
X166780Y256514D01*
X166833Y256425D01*
X166881Y256334D01*
X166896Y256320D01*
X166906Y256303D01*
X166985Y256236D01*
X167060Y256165D01*
X167078Y256156D01*
X167093Y256143D01*
X167189Y256104D01*
X167283Y256061D01*
X167302Y256059D01*
X167321Y256051D01*
X167488Y256033D01*
X168250Y256033D01*
X168250Y256031D01*
X167488Y256031D01*
X167468Y256028D01*
X167448Y256030D01*
X167347Y256008D01*
X167245Y255991D01*
X167227Y255982D01*
X167208Y255978D01*
X167119Y255925D01*
X167028Y255876D01*
X167014Y255862D01*
X166997Y255852D01*
X166929Y255773D01*
X166858Y255698D01*
X166850Y255680D01*
X166837Y255665D01*
X166798Y255569D01*
X166755Y255475D01*
X166752Y255455D01*
X166745Y255437D01*
X166726Y255270D01*
X166726Y240791D01*
X142515Y240791D01*
X141869Y240964D01*
X141541Y241154D01*
X141452Y241187D01*
X141365Y241228D01*
X141337Y241231D01*
X141311Y241241D01*
X141216Y241244D01*
X141121Y241255D01*
X141094Y241249D01*
X141065Y241250D01*
X140974Y241223D01*
X140881Y241202D01*
X140856Y241188D01*
X140829Y241180D01*
X140751Y241125D01*
X140670Y241076D01*
X140651Y241055D01*
X140628Y241039D01*
X140572Y240962D01*
X140510Y240889D01*
X140499Y240863D01*
X140482Y240840D01*
X140453Y240750D01*
X140418Y240661D01*
X140414Y240626D01*
X140407Y240606D01*
X140408Y240573D01*
X140399Y240494D01*
X140399Y237858D01*
X140414Y237768D01*
X140421Y237677D01*
X140434Y237647D01*
X140439Y237615D01*
X140482Y237534D01*
X140517Y237451D01*
X140543Y237418D01*
X140554Y237398D01*
X140577Y237376D01*
X140622Y237320D01*
X142725Y235217D01*
X142725Y235215D01*
X142734Y235198D01*
X142739Y235178D01*
X142792Y235089D01*
X142840Y234998D01*
X142854Y234984D01*
X142865Y234967D01*
X142943Y234900D01*
X143018Y234828D01*
X143036Y234820D01*
X143052Y234807D01*
X143148Y234768D01*
X143241Y234725D01*
X143261Y234723D01*
X143280Y234715D01*
X143446Y234697D01*
X166726Y234697D01*
X166726Y220218D01*
X166730Y220198D01*
X166727Y220179D01*
X166749Y220077D01*
X166766Y219975D01*
X166775Y219958D01*
X166780Y219938D01*
X166833Y219849D01*
X166881Y219758D01*
X166896Y219744D01*
X166906Y219727D01*
X166985Y219660D01*
X167060Y219589D01*
X167078Y219580D01*
X167093Y219567D01*
X167189Y219528D01*
X167283Y219485D01*
X167302Y219483D01*
X167321Y219475D01*
X167488Y219457D01*
X168250Y219457D01*
X168250Y219455D01*
X167488Y219455D01*
X167468Y219452D01*
X167448Y219454D01*
X167347Y219432D01*
X167245Y219415D01*
X167227Y219406D01*
X167208Y219402D01*
X167119Y219349D01*
X167028Y219300D01*
X167014Y219286D01*
X166997Y219276D01*
X166929Y219197D01*
X166858Y219122D01*
X166850Y219104D01*
X166837Y219089D01*
X166798Y218993D01*
X166755Y218899D01*
X166752Y218879D01*
X166745Y218861D01*
X166726Y218694D01*
X166726Y204215D01*
X142515Y204215D01*
X141869Y204388D01*
X141541Y204578D01*
X141452Y204611D01*
X141365Y204652D01*
X141337Y204655D01*
X141311Y204665D01*
X141216Y204668D01*
X141121Y204679D01*
X141094Y204673D01*
X141065Y204674D01*
X140974Y204647D01*
X140881Y204626D01*
X140856Y204612D01*
X140829Y204604D01*
X140751Y204549D01*
X140670Y204500D01*
X140651Y204479D01*
X140628Y204463D01*
X140572Y204386D01*
X140510Y204313D01*
X140499Y204287D01*
X140482Y204264D01*
X140453Y204174D01*
X140418Y204085D01*
X140414Y204050D01*
X140407Y204030D01*
X140408Y203997D01*
X140399Y203918D01*
X140399Y199170D01*
X140411Y199099D01*
X140413Y199028D01*
X140431Y198979D01*
X140439Y198927D01*
X140472Y198864D01*
X140497Y198797D01*
X140530Y198756D01*
X140554Y198710D01*
X140606Y198661D01*
X140651Y198605D01*
X140695Y198577D01*
X140732Y198541D01*
X140797Y198510D01*
X140858Y198472D01*
X140908Y198459D01*
X140955Y198437D01*
X141027Y198429D01*
X141096Y198412D01*
X141148Y198416D01*
X141200Y198410D01*
X141270Y198425D01*
X141342Y198431D01*
X141389Y198451D01*
X141440Y198462D01*
X141502Y198499D01*
X141568Y198527D01*
X141624Y198572D01*
X141651Y198588D01*
X141667Y198606D01*
X141699Y198632D01*
X141899Y198832D01*
X142478Y199167D01*
X143125Y199340D01*
X167336Y199340D01*
X167336Y184861D01*
X167339Y184842D01*
X167337Y184822D01*
X167359Y184721D01*
X167376Y184619D01*
X167385Y184601D01*
X167389Y184581D01*
X167442Y184492D01*
X167491Y184401D01*
X167505Y184387D01*
X167515Y184370D01*
X167594Y184303D01*
X167669Y184232D01*
X167687Y184223D01*
X167702Y184210D01*
X167799Y184172D01*
X167892Y184128D01*
X167912Y184126D01*
X167931Y184119D01*
X168097Y184100D01*
X168860Y184100D01*
X168860Y184098D01*
X168097Y184098D01*
X168078Y184095D01*
X168058Y184097D01*
X167957Y184075D01*
X167854Y184059D01*
X167837Y184049D01*
X167817Y184045D01*
X167728Y183992D01*
X167637Y183944D01*
X167623Y183929D01*
X167606Y183919D01*
X167539Y183840D01*
X167468Y183765D01*
X167459Y183747D01*
X167446Y183732D01*
X167408Y183636D01*
X167364Y183542D01*
X167362Y183522D01*
X167354Y183504D01*
X167336Y183337D01*
X167336Y171323D01*
X167339Y171303D01*
X167337Y171284D01*
X167359Y171182D01*
X167376Y171080D01*
X167385Y171063D01*
X167389Y171043D01*
X167442Y170954D01*
X167491Y170863D01*
X167505Y170849D01*
X167515Y170832D01*
X167594Y170765D01*
X167669Y170693D01*
X167687Y170685D01*
X167702Y170672D01*
X167799Y170633D01*
X167892Y170590D01*
X167912Y170588D01*
X167931Y170580D01*
X168097Y170562D01*
X169621Y170562D01*
X169641Y170565D01*
X169661Y170563D01*
X169762Y170585D01*
X169864Y170601D01*
X169881Y170611D01*
X169901Y170615D01*
X169990Y170668D01*
X170081Y170717D01*
X170095Y170731D01*
X170112Y170741D01*
X170179Y170820D01*
X170251Y170895D01*
X170259Y170913D01*
X170272Y170928D01*
X170311Y171024D01*
X170354Y171118D01*
X170356Y171138D01*
X170364Y171156D01*
X170382Y171323D01*
X170382Y182576D01*
X196800Y182576D01*
X196800Y174884D01*
X196811Y174813D01*
X196813Y174742D01*
X196831Y174693D01*
X196840Y174641D01*
X196873Y174578D01*
X196898Y174511D01*
X196930Y174470D01*
X196955Y174424D01*
X197007Y174375D01*
X197052Y174319D01*
X197095Y174290D01*
X197133Y174255D01*
X197198Y174224D01*
X197258Y174186D01*
X197309Y174173D01*
X197356Y174151D01*
X197427Y174143D01*
X197497Y174126D01*
X197549Y174130D01*
X197601Y174124D01*
X197671Y174139D01*
X197742Y174145D01*
X197790Y174165D01*
X197841Y174176D01*
X197903Y174213D01*
X197968Y174241D01*
X198024Y174286D01*
X198052Y174302D01*
X198067Y174320D01*
X198099Y174346D01*
X210190Y186437D01*
X462287Y186437D01*
X462378Y186451D01*
X462468Y186459D01*
X462498Y186471D01*
X462530Y186476D01*
X462611Y186519D01*
X462695Y186555D01*
X462727Y186581D01*
X462748Y186592D01*
X462770Y186615D01*
X462826Y186660D01*
X529442Y253276D01*
X529496Y253350D01*
X529555Y253420D01*
X529567Y253450D01*
X529586Y253476D01*
X529613Y253563D01*
X529647Y253648D01*
X529652Y253689D01*
X529658Y253711D01*
X529658Y253743D01*
X529665Y253815D01*
X529665Y256604D01*
X531348Y260666D01*
X534456Y263774D01*
X538517Y265456D01*
X542913Y265456D01*
X546974Y263774D01*
X550083Y260666D01*
X551765Y256604D01*
X551765Y252208D01*
X550083Y248147D01*
X546974Y245039D01*
X542913Y243357D01*
X538517Y243357D01*
X534456Y245039D01*
X531603Y247892D01*
X531587Y247904D01*
X531574Y247919D01*
X531487Y247975D01*
X531403Y248036D01*
X531384Y248042D01*
X531367Y248052D01*
X531267Y248078D01*
X531168Y248108D01*
X531148Y248108D01*
X531129Y248112D01*
X531026Y248104D01*
X530922Y248102D01*
X530903Y248095D01*
X530883Y248093D01*
X530789Y248053D01*
X530691Y248017D01*
X530675Y248005D01*
X530657Y247997D01*
X530526Y247892D01*
X514820Y232186D01*
X514778Y232128D01*
X514729Y232076D01*
X514707Y232029D01*
X514677Y231987D01*
X514656Y231918D01*
X514625Y231853D01*
X514620Y231801D01*
X514604Y231751D01*
X514606Y231680D01*
X514598Y231609D01*
X514609Y231558D01*
X514611Y231506D01*
X514635Y231438D01*
X514650Y231368D01*
X514677Y231324D01*
X514695Y231275D01*
X514740Y231219D01*
X514777Y231157D01*
X514816Y231123D01*
X514849Y231083D01*
X514909Y231044D01*
X514964Y230997D01*
X515012Y230978D01*
X515056Y230950D01*
X515125Y230932D01*
X515192Y230905D01*
X515263Y230897D01*
X515294Y230889D01*
X515318Y230891D01*
X515358Y230887D01*
X529025Y230887D01*
X529140Y230906D01*
X529256Y230923D01*
X529262Y230925D01*
X529268Y230926D01*
X529371Y230981D01*
X529475Y231034D01*
X529480Y231039D01*
X529485Y231042D01*
X529565Y231126D01*
X529648Y231210D01*
X529651Y231216D01*
X529655Y231220D01*
X529663Y231237D01*
X529729Y231357D01*
X531348Y235266D01*
X534456Y238374D01*
X538517Y240056D01*
X542913Y240056D01*
X546974Y238374D01*
X550083Y235266D01*
X551765Y231204D01*
X551765Y226808D01*
X550083Y222747D01*
X546974Y219639D01*
X542913Y217957D01*
X538517Y217957D01*
X534456Y219639D01*
X531348Y222747D01*
X530065Y225843D01*
X530004Y225943D01*
X529944Y226043D01*
X529939Y226047D01*
X529936Y226052D01*
X529846Y226127D01*
X529757Y226203D01*
X529751Y226205D01*
X529746Y226209D01*
X529638Y226251D01*
X529529Y226295D01*
X529521Y226296D01*
X529517Y226297D01*
X529498Y226298D01*
X529362Y226313D01*
X514025Y226313D01*
X513935Y226299D01*
X513844Y226291D01*
X513814Y226279D01*
X513782Y226274D01*
X513702Y226231D01*
X513618Y226195D01*
X513586Y226169D01*
X513565Y226158D01*
X513543Y226135D01*
X513487Y226090D01*
X443860Y156463D01*
X308888Y156463D01*
X308817Y156452D01*
X308746Y156450D01*
X308697Y156432D01*
X308645Y156424D01*
X308582Y156390D01*
X308515Y156365D01*
X308474Y156333D01*
X308428Y156308D01*
X308379Y156256D01*
X308323Y156212D01*
X308295Y156168D01*
X308259Y156130D01*
X308228Y156065D01*
X308190Y156005D01*
X308177Y155954D01*
X308155Y155907D01*
X308147Y155836D01*
X308130Y155766D01*
X308134Y155714D01*
X308128Y155663D01*
X308143Y155592D01*
X308149Y155521D01*
X308169Y155473D01*
X308180Y155422D01*
X308217Y155361D01*
X308245Y155295D01*
X308290Y155239D01*
X308306Y155211D01*
X308324Y155196D01*
X308350Y155164D01*
X312640Y150873D01*
X314961Y145272D01*
X314961Y139208D01*
X312640Y133607D01*
X308353Y129320D01*
X302752Y126999D01*
X296688Y126999D01*
X291087Y129320D01*
X286800Y133607D01*
X284479Y139208D01*
X284479Y145272D01*
X286800Y150873D01*
X291090Y155164D01*
X291132Y155222D01*
X291181Y155274D01*
X291203Y155321D01*
X291234Y155363D01*
X291255Y155432D01*
X291285Y155497D01*
X291291Y155549D01*
X291306Y155599D01*
X291304Y155670D01*
X291312Y155741D01*
X291301Y155792D01*
X291300Y155844D01*
X291275Y155912D01*
X291260Y155982D01*
X291233Y156027D01*
X291215Y156075D01*
X291170Y156131D01*
X291134Y156193D01*
X291094Y156227D01*
X291061Y156267D01*
X291001Y156306D01*
X290947Y156353D01*
X290898Y156372D01*
X290855Y156400D01*
X290785Y156418D01*
X290719Y156445D01*
X290647Y156453D01*
X290616Y156461D01*
X290593Y156459D01*
X290552Y156463D01*
X267963Y156463D01*
X267872Y156449D01*
X267782Y156441D01*
X267752Y156429D01*
X267720Y156424D01*
X267639Y156381D01*
X267555Y156345D01*
X267523Y156319D01*
X267502Y156308D01*
X267480Y156285D01*
X267424Y156240D01*
X259710Y148526D01*
X60965Y148526D01*
X59403Y150088D01*
X38963Y170528D01*
X37401Y172090D01*
X37401Y351785D01*
X45445Y359828D01*
X45492Y359895D01*
X45497Y359900D01*
X45499Y359905D01*
X45501Y359908D01*
X45563Y359983D01*
X45573Y360007D01*
X45588Y360028D01*
X45617Y360121D01*
X45652Y360212D01*
X45653Y360238D01*
X45660Y360263D01*
X45658Y360361D01*
X45662Y360458D01*
X45655Y360483D01*
X45654Y360509D01*
X45621Y360601D01*
X45594Y360694D01*
X45579Y360716D01*
X45570Y360740D01*
X45509Y360816D01*
X45453Y360896D01*
X45432Y360912D01*
X45416Y360932D01*
X45334Y360985D01*
X45256Y361043D01*
X45231Y361051D01*
X45209Y361065D01*
X45115Y361089D01*
X45022Y361119D01*
X44996Y361119D01*
X44970Y361125D01*
X44874Y361118D01*
X44776Y361117D01*
X44745Y361108D01*
X44725Y361106D01*
X44695Y361093D01*
X44615Y361070D01*
X43672Y360679D01*
X37608Y360679D01*
X32007Y363000D01*
X27720Y367287D01*
X25399Y372888D01*
X25399Y378952D01*
X27720Y384553D01*
X32007Y388840D01*
X37608Y391161D01*
X43672Y391161D01*
X49273Y388840D01*
X53560Y384553D01*
X55881Y378952D01*
X55881Y372888D01*
X55490Y371945D01*
X55468Y371850D01*
X55439Y371757D01*
X55440Y371731D01*
X55434Y371706D01*
X55443Y371609D01*
X55445Y371511D01*
X55454Y371487D01*
X55457Y371461D01*
X55496Y371372D01*
X55530Y371280D01*
X55546Y371260D01*
X55557Y371236D01*
X55623Y371164D01*
X55684Y371088D01*
X55706Y371074D01*
X55723Y371055D01*
X55809Y371008D01*
X55891Y370955D01*
X55916Y370949D01*
X55939Y370936D01*
X56035Y370919D01*
X56129Y370895D01*
X56155Y370897D01*
X56181Y370893D01*
X56277Y370907D01*
X56374Y370914D01*
X56398Y370925D01*
X56424Y370928D01*
X56511Y370973D01*
X56601Y371011D01*
X56626Y371031D01*
X56643Y371040D01*
X56667Y371064D01*
X56732Y371115D01*
X70515Y384899D01*
X70568Y384973D01*
X70628Y385043D01*
X70640Y385073D01*
X70659Y385099D01*
X70686Y385186D01*
X70703Y385229D01*
X70710Y385244D01*
X70710Y385248D01*
X70720Y385271D01*
X70724Y385312D01*
X70731Y385334D01*
X70730Y385366D01*
X70738Y385438D01*
X70738Y446800D01*
X70737Y446807D01*
X70738Y446815D01*
X70717Y446929D01*
X70699Y447042D01*
X70695Y447049D01*
X70693Y447057D01*
X70637Y447158D01*
X70583Y447260D01*
X70578Y447265D01*
X70574Y447272D01*
X70489Y447350D01*
X70405Y447429D01*
X70398Y447432D01*
X70392Y447438D01*
X70287Y447484D01*
X70182Y447533D01*
X70174Y447534D01*
X70167Y447537D01*
X70052Y447547D01*
X69938Y447560D01*
X69930Y447558D01*
X69922Y447559D01*
X69809Y447532D01*
X69697Y447508D01*
X69690Y447503D01*
X69683Y447502D01*
X69585Y447440D01*
X69486Y447381D01*
X69481Y447375D01*
X69474Y447371D01*
X69361Y447247D01*
X68968Y446705D01*
X67695Y445433D01*
X66240Y444376D01*
X64637Y443559D01*
X62926Y443003D01*
X61772Y442820D01*
X61772Y453390D01*
X61769Y453410D01*
X61771Y453429D01*
X61749Y453531D01*
X61732Y453633D01*
X61723Y453650D01*
X61719Y453670D01*
X61666Y453759D01*
X61617Y453850D01*
X61603Y453864D01*
X61593Y453881D01*
X61514Y453948D01*
X61439Y454019D01*
X61421Y454028D01*
X61406Y454041D01*
X61309Y454079D01*
X61216Y454123D01*
X61196Y454125D01*
X61177Y454133D01*
X61011Y454151D01*
X60248Y454151D01*
X60248Y454153D01*
X61011Y454153D01*
X61030Y454156D01*
X61050Y454154D01*
X61151Y454176D01*
X61254Y454193D01*
X61271Y454202D01*
X61291Y454206D01*
X61380Y454259D01*
X61471Y454308D01*
X61485Y454322D01*
X61502Y454332D01*
X61569Y454411D01*
X61640Y454486D01*
X61649Y454504D01*
X61662Y454519D01*
X61700Y454615D01*
X61744Y454709D01*
X61746Y454729D01*
X61754Y454747D01*
X61772Y454914D01*
X61772Y465484D01*
X62926Y465301D01*
X64637Y464745D01*
X66240Y463928D01*
X67695Y462871D01*
X68968Y461599D01*
X69973Y460215D01*
X70030Y460159D01*
X70079Y460097D01*
X70117Y460073D01*
X70148Y460042D01*
X70219Y460007D01*
X70286Y459964D01*
X70329Y459953D01*
X70369Y459933D01*
X70448Y459923D01*
X70525Y459904D01*
X70569Y459907D01*
X70613Y459901D01*
X70691Y459916D01*
X70770Y459923D01*
X70811Y459940D01*
X70854Y459948D01*
X70923Y459988D01*
X70996Y460019D01*
X71042Y460056D01*
X71068Y460070D01*
X71086Y460091D01*
X71127Y460124D01*
X78453Y467449D01*
X80015Y469012D01*
X99372Y469012D01*
X104969Y463415D01*
X105063Y463347D01*
X105157Y463277D01*
X105163Y463275D01*
X105169Y463272D01*
X105280Y463237D01*
X105391Y463201D01*
X105398Y463201D01*
X105404Y463199D01*
X105520Y463202D01*
X105637Y463203D01*
X105645Y463205D01*
X105650Y463206D01*
X105667Y463212D01*
X105798Y463250D01*
X108977Y464567D01*
X113120Y464567D01*
X116948Y462981D01*
X119878Y460052D01*
X119998Y459763D01*
X120049Y459680D01*
X120094Y459594D01*
X120113Y459576D01*
X120127Y459554D01*
X120202Y459492D01*
X120273Y459425D01*
X120297Y459414D01*
X120317Y459397D01*
X120407Y459362D01*
X120496Y459321D01*
X120522Y459318D01*
X120546Y459309D01*
X120644Y459305D01*
X120740Y459294D01*
X120766Y459300D01*
X120792Y459298D01*
X120886Y459326D01*
X120981Y459346D01*
X121003Y459360D01*
X121028Y459367D01*
X121108Y459422D01*
X121192Y459472D01*
X121209Y459492D01*
X121230Y459507D01*
X121288Y459585D01*
X121352Y459659D01*
X121361Y459684D01*
X121377Y459705D01*
X121407Y459797D01*
X121444Y459887D01*
X121447Y459920D01*
X121453Y459938D01*
X121453Y459971D01*
X121462Y460054D01*
X121462Y460360D01*
X132076Y470973D01*
X132118Y471032D01*
X132167Y471084D01*
X132189Y471131D01*
X132219Y471173D01*
X132240Y471242D01*
X132271Y471307D01*
X132276Y471359D01*
X132292Y471408D01*
X132290Y471480D01*
X132298Y471551D01*
X132286Y471602D01*
X132285Y471654D01*
X132260Y471722D01*
X132245Y471792D01*
X132219Y471836D01*
X132201Y471885D01*
X132156Y471941D01*
X132119Y472003D01*
X132079Y472037D01*
X132047Y472077D01*
X131987Y472116D01*
X131932Y472163D01*
X131884Y472182D01*
X131840Y472210D01*
X131770Y472228D01*
X131704Y472254D01*
X131633Y472262D01*
X131602Y472270D01*
X131578Y472268D01*
X131537Y472273D01*
X18982Y472212D01*
X18892Y472197D01*
X18801Y472190D01*
X18771Y472177D01*
X18739Y472172D01*
X18659Y472129D01*
X18575Y472094D01*
X18543Y472068D01*
X18522Y472057D01*
X18500Y472033D01*
X18444Y471989D01*
X2579Y456123D01*
X2525Y456049D01*
X2466Y455979D01*
X2454Y455950D01*
X2435Y455924D01*
X2408Y455836D01*
X2374Y455751D01*
X2369Y455711D01*
X2363Y455688D01*
X2363Y455656D01*
X2356Y455584D01*
X2540Y204568D01*
X2554Y204478D01*
X2562Y204388D01*
X2574Y204358D01*
X2580Y204325D01*
X2622Y204245D01*
X2658Y204161D01*
X2684Y204129D01*
X2695Y204108D01*
X2718Y204086D01*
X2763Y204030D01*
X84649Y122144D01*
X84723Y122091D01*
X84793Y122031D01*
X84823Y122019D01*
X84849Y122000D01*
X84936Y121973D01*
X85021Y121939D01*
X85062Y121935D01*
X85084Y121928D01*
X85116Y121929D01*
X85188Y121921D01*
X186472Y121921D01*
X218441Y89952D01*
X218441Y3302D01*
X218444Y3282D01*
X218442Y3263D01*
X218464Y3161D01*
X218480Y3059D01*
X218490Y3042D01*
X218494Y3022D01*
X218547Y2933D01*
X218596Y2842D01*
X218610Y2828D01*
X218620Y2811D01*
X218699Y2744D01*
X218774Y2672D01*
X218792Y2664D01*
X218807Y2651D01*
X218903Y2612D01*
X218997Y2569D01*
X219017Y2567D01*
X219035Y2559D01*
X219202Y2541D01*
X522478Y2541D01*
X522498Y2544D01*
G37*
%LPC*%
G36*
X669756Y139699D02*
X669756Y139699D01*
X663296Y141430D01*
X657504Y144774D01*
X652774Y149504D01*
X649430Y155296D01*
X647699Y161756D01*
X647699Y168444D01*
X649430Y174904D01*
X652774Y180696D01*
X657504Y185426D01*
X663296Y188770D01*
X669756Y190501D01*
X676444Y190501D01*
X682904Y188770D01*
X688696Y185426D01*
X693426Y180696D01*
X696770Y174904D01*
X698501Y168444D01*
X698501Y161756D01*
X696770Y155296D01*
X693426Y149504D01*
X688696Y144774D01*
X682904Y141430D01*
X676444Y139699D01*
X669756Y139699D01*
G37*
%LPD*%
%LPC*%
G36*
X538517Y268757D02*
X538517Y268757D01*
X534456Y270439D01*
X531348Y273547D01*
X530171Y276388D01*
X530133Y276449D01*
X530104Y276514D01*
X530069Y276552D01*
X530042Y276597D01*
X529986Y276643D01*
X529938Y276695D01*
X529892Y276720D01*
X529852Y276754D01*
X529785Y276779D01*
X529722Y276814D01*
X529671Y276823D01*
X529622Y276842D01*
X529551Y276845D01*
X529480Y276858D01*
X529429Y276850D01*
X529377Y276852D01*
X529308Y276832D01*
X529237Y276822D01*
X529190Y276798D01*
X529140Y276784D01*
X529082Y276743D01*
X529018Y276710D01*
X528981Y276673D01*
X528938Y276643D01*
X528896Y276586D01*
X528845Y276535D01*
X528811Y276472D01*
X528792Y276446D01*
X528784Y276424D01*
X528765Y276388D01*
X528540Y275847D01*
X524253Y271560D01*
X518652Y269239D01*
X512588Y269239D01*
X506987Y271560D01*
X502700Y275847D01*
X500379Y281448D01*
X500379Y287512D01*
X502700Y293113D01*
X506987Y297400D01*
X512588Y299721D01*
X518652Y299721D01*
X524253Y297400D01*
X528540Y293113D01*
X530861Y287512D01*
X530861Y287416D01*
X530872Y287346D01*
X530874Y287274D01*
X530892Y287225D01*
X530900Y287174D01*
X530934Y287110D01*
X530959Y287043D01*
X530991Y287002D01*
X531016Y286956D01*
X531068Y286907D01*
X531112Y286851D01*
X531156Y286823D01*
X531194Y286787D01*
X531259Y286757D01*
X531319Y286718D01*
X531370Y286705D01*
X531417Y286683D01*
X531488Y286675D01*
X531558Y286658D01*
X531610Y286662D01*
X531661Y286656D01*
X531732Y286671D01*
X531803Y286677D01*
X531851Y286697D01*
X531902Y286708D01*
X531963Y286745D01*
X532029Y286773D01*
X532085Y286818D01*
X532113Y286835D01*
X532128Y286852D01*
X532160Y286878D01*
X534456Y289174D01*
X538517Y290856D01*
X542913Y290856D01*
X546974Y289174D01*
X550083Y286066D01*
X551765Y282004D01*
X551765Y277608D01*
X550083Y273547D01*
X546974Y270439D01*
X542913Y268757D01*
X538517Y268757D01*
G37*
%LPD*%
%LPC*%
G36*
X22368Y416559D02*
X22368Y416559D01*
X16767Y418880D01*
X12480Y423167D01*
X10159Y428768D01*
X10159Y434832D01*
X12480Y440433D01*
X16767Y444720D01*
X22368Y447041D01*
X28432Y447041D01*
X34033Y444720D01*
X38320Y440433D01*
X40641Y434832D01*
X40641Y428768D01*
X38320Y423167D01*
X34033Y418880D01*
X28432Y416559D01*
X22368Y416559D01*
G37*
%LPD*%
%LPC*%
G36*
X781828Y408939D02*
X781828Y408939D01*
X776227Y411260D01*
X771940Y415547D01*
X769619Y421148D01*
X769619Y427212D01*
X771940Y432813D01*
X776227Y437100D01*
X781828Y439421D01*
X787892Y439421D01*
X793493Y437100D01*
X797780Y432813D01*
X800101Y427212D01*
X800101Y421148D01*
X797780Y415547D01*
X793493Y411260D01*
X787892Y408939D01*
X781828Y408939D01*
G37*
%LPD*%
%LPC*%
G36*
X301768Y350519D02*
X301768Y350519D01*
X296167Y352840D01*
X291880Y357127D01*
X289559Y362728D01*
X289559Y368792D01*
X291880Y374393D01*
X296167Y378680D01*
X301768Y381001D01*
X307832Y381001D01*
X313433Y378680D01*
X317720Y374393D01*
X320041Y368792D01*
X320041Y362728D01*
X317720Y357127D01*
X313433Y352840D01*
X307832Y350519D01*
X301768Y350519D01*
G37*
%LPD*%
%LPC*%
G36*
X781828Y180339D02*
X781828Y180339D01*
X776227Y182660D01*
X771940Y186947D01*
X769619Y192548D01*
X769619Y198612D01*
X771940Y204213D01*
X776227Y208500D01*
X781828Y210821D01*
X787892Y210821D01*
X793493Y208500D01*
X797780Y204213D01*
X800101Y198612D01*
X800101Y192548D01*
X797780Y186947D01*
X793493Y182660D01*
X787892Y180339D01*
X781828Y180339D01*
G37*
%LPD*%
%LPC*%
G36*
X377968Y78739D02*
X377968Y78739D01*
X372367Y81060D01*
X368080Y85347D01*
X365759Y90948D01*
X365759Y97012D01*
X368080Y102613D01*
X372367Y106900D01*
X377968Y109221D01*
X384032Y109221D01*
X389633Y106900D01*
X393920Y102613D01*
X396241Y97012D01*
X396241Y90948D01*
X393920Y85347D01*
X389633Y81060D01*
X384032Y78739D01*
X377968Y78739D01*
G37*
%LPD*%
%LPC*%
G36*
X665517Y332257D02*
X665517Y332257D01*
X661456Y333939D01*
X658348Y337047D01*
X656665Y341108D01*
X656665Y345504D01*
X658348Y349566D01*
X661456Y352674D01*
X665517Y354356D01*
X669913Y354356D01*
X673974Y352674D01*
X677083Y349566D01*
X678765Y345504D01*
X678765Y341108D01*
X677083Y337047D01*
X673974Y333939D01*
X669913Y332257D01*
X665517Y332257D01*
G37*
%LPD*%
%LPC*%
G36*
X690917Y319557D02*
X690917Y319557D01*
X686856Y321239D01*
X683748Y324347D01*
X682065Y328408D01*
X682065Y332804D01*
X683748Y336866D01*
X686856Y339974D01*
X690917Y341656D01*
X695313Y341656D01*
X699374Y339974D01*
X702483Y336866D01*
X704165Y332804D01*
X704165Y328408D01*
X702483Y324347D01*
X699374Y321239D01*
X695313Y319557D01*
X690917Y319557D01*
G37*
%LPD*%
%LPC*%
G36*
X690917Y268757D02*
X690917Y268757D01*
X686856Y270439D01*
X683748Y273547D01*
X682065Y277608D01*
X682065Y282004D01*
X683748Y286066D01*
X686856Y289174D01*
X690917Y290856D01*
X695313Y290856D01*
X699374Y289174D01*
X702483Y286066D01*
X704165Y282004D01*
X704165Y277608D01*
X702483Y273547D01*
X699374Y270439D01*
X695313Y268757D01*
X690917Y268757D01*
G37*
%LPD*%
%LPC*%
G36*
X690917Y217957D02*
X690917Y217957D01*
X686856Y219639D01*
X683748Y222747D01*
X682065Y226808D01*
X682065Y231204D01*
X683748Y235266D01*
X686856Y238374D01*
X690917Y240056D01*
X695313Y240056D01*
X699374Y238374D01*
X702483Y235266D01*
X704165Y231204D01*
X704165Y226808D01*
X702483Y222747D01*
X699374Y219639D01*
X695313Y217957D01*
X690917Y217957D01*
G37*
%LPD*%
%LPC*%
G36*
X602017Y192557D02*
X602017Y192557D01*
X597956Y194239D01*
X594848Y197347D01*
X593165Y201408D01*
X593165Y205804D01*
X594848Y209866D01*
X597956Y212974D01*
X602017Y214656D01*
X606413Y214656D01*
X610474Y212974D01*
X613583Y209866D01*
X615265Y205804D01*
X615265Y201408D01*
X613583Y197347D01*
X610474Y194239D01*
X606413Y192557D01*
X602017Y192557D01*
G37*
%LPD*%
%LPC*%
G36*
X678217Y192557D02*
X678217Y192557D01*
X674156Y194239D01*
X671048Y197347D01*
X669365Y201408D01*
X669365Y205804D01*
X671048Y209866D01*
X674156Y212974D01*
X678217Y214656D01*
X682613Y214656D01*
X686674Y212974D01*
X689783Y209866D01*
X691465Y205804D01*
X691465Y201408D01*
X689783Y197347D01*
X686674Y194239D01*
X682613Y192557D01*
X678217Y192557D01*
G37*
%LPD*%
%LPC*%
G36*
X652817Y192557D02*
X652817Y192557D01*
X648756Y194239D01*
X645648Y197347D01*
X643965Y201408D01*
X643965Y205804D01*
X645648Y209866D01*
X648756Y212974D01*
X652817Y214656D01*
X657213Y214656D01*
X661274Y212974D01*
X664383Y209866D01*
X666065Y205804D01*
X666065Y201408D01*
X664383Y197347D01*
X661274Y194239D01*
X657213Y192557D01*
X652817Y192557D01*
G37*
%LPD*%
%LPC*%
G36*
X627417Y192557D02*
X627417Y192557D01*
X623356Y194239D01*
X620248Y197347D01*
X618565Y201408D01*
X618565Y205804D01*
X620248Y209866D01*
X623356Y212974D01*
X627417Y214656D01*
X631813Y214656D01*
X635874Y212974D01*
X638983Y209866D01*
X640665Y205804D01*
X640665Y201408D01*
X638983Y197347D01*
X635874Y194239D01*
X631813Y192557D01*
X627417Y192557D01*
G37*
%LPD*%
%LPC*%
G36*
X576617Y192557D02*
X576617Y192557D01*
X572556Y194239D01*
X569448Y197347D01*
X567765Y201408D01*
X567765Y205804D01*
X569448Y209866D01*
X572556Y212974D01*
X576617Y214656D01*
X581013Y214656D01*
X585074Y212974D01*
X588183Y209866D01*
X589865Y205804D01*
X589865Y201408D01*
X588183Y197347D01*
X585074Y194239D01*
X581013Y192557D01*
X576617Y192557D01*
G37*
%LPD*%
%LPC*%
G36*
X551217Y192557D02*
X551217Y192557D01*
X547156Y194239D01*
X544048Y197347D01*
X542365Y201408D01*
X542365Y205804D01*
X544048Y209866D01*
X547156Y212974D01*
X551217Y214656D01*
X555613Y214656D01*
X559674Y212974D01*
X562783Y209866D01*
X564465Y205804D01*
X564465Y201408D01*
X562783Y197347D01*
X559674Y194239D01*
X555613Y192557D01*
X551217Y192557D01*
G37*
%LPD*%
%LPC*%
G36*
X169773Y257555D02*
X169773Y257555D01*
X169773Y271273D01*
X193984Y271273D01*
X194630Y271100D01*
X195210Y270765D01*
X195683Y270292D01*
X196017Y269713D01*
X196190Y269066D01*
X196190Y257555D01*
X169773Y257555D01*
G37*
%LPD*%
%LPC*%
G36*
X169773Y220979D02*
X169773Y220979D01*
X169773Y234697D01*
X193984Y234697D01*
X194630Y234524D01*
X195210Y234189D01*
X195683Y233716D01*
X196017Y233137D01*
X196190Y232490D01*
X196190Y220979D01*
X169773Y220979D01*
G37*
%LPD*%
%LPC*%
G36*
X170382Y185622D02*
X170382Y185622D01*
X170382Y199340D01*
X194594Y199340D01*
X195240Y199167D01*
X195819Y198832D01*
X196292Y198359D01*
X196627Y197780D01*
X196800Y197134D01*
X196800Y185622D01*
X170382Y185622D01*
G37*
%LPD*%
%LPC*%
G36*
X169773Y254509D02*
X169773Y254509D01*
X196190Y254509D01*
X196190Y242997D01*
X196017Y242351D01*
X195683Y241772D01*
X195210Y241299D01*
X194630Y240964D01*
X193984Y240791D01*
X169773Y240791D01*
X169773Y254509D01*
G37*
%LPD*%
%LPC*%
G36*
X169773Y217933D02*
X169773Y217933D01*
X196190Y217933D01*
X196190Y206422D01*
X196017Y205775D01*
X195683Y205196D01*
X195210Y204723D01*
X194630Y204388D01*
X193984Y204215D01*
X169773Y204215D01*
X169773Y217933D01*
G37*
%LPD*%
%LPC*%
G36*
X694638Y255930D02*
X694638Y255930D01*
X694638Y266381D01*
X695941Y266175D01*
X697747Y265588D01*
X699439Y264726D01*
X700976Y263610D01*
X702318Y262267D01*
X703435Y260730D01*
X704297Y259038D01*
X704884Y257232D01*
X705090Y255930D01*
X694638Y255930D01*
G37*
%LPD*%
%LPC*%
G36*
X542238Y303683D02*
X542238Y303683D01*
X552690Y303683D01*
X552484Y302381D01*
X551897Y300575D01*
X551035Y298883D01*
X549918Y297346D01*
X548576Y296003D01*
X547039Y294887D01*
X545347Y294025D01*
X543541Y293438D01*
X542238Y293232D01*
X542238Y303683D01*
G37*
%LPD*%
%LPC*%
G36*
X681140Y255930D02*
X681140Y255930D01*
X681347Y257232D01*
X681933Y259038D01*
X682796Y260730D01*
X683912Y262267D01*
X685255Y263610D01*
X686791Y264726D01*
X688483Y265588D01*
X690290Y266175D01*
X691592Y266381D01*
X691592Y255930D01*
X681140Y255930D01*
G37*
%LPD*%
%LPC*%
G36*
X694638Y252883D02*
X694638Y252883D01*
X705090Y252883D01*
X704884Y251581D01*
X704297Y249775D01*
X703435Y248083D01*
X702318Y246546D01*
X700976Y245203D01*
X699439Y244087D01*
X697747Y243225D01*
X695941Y242638D01*
X694638Y242432D01*
X694638Y252883D01*
G37*
%LPD*%
%LPC*%
G36*
X537890Y293438D02*
X537890Y293438D01*
X536083Y294025D01*
X534391Y294887D01*
X532855Y296003D01*
X531512Y297346D01*
X530396Y298883D01*
X529533Y300575D01*
X528947Y302381D01*
X528740Y303683D01*
X539192Y303683D01*
X539192Y293232D01*
X537890Y293438D01*
G37*
%LPD*%
%LPC*%
G36*
X690290Y242638D02*
X690290Y242638D01*
X688483Y243225D01*
X686791Y244087D01*
X685255Y245203D01*
X683912Y246546D01*
X682796Y248083D01*
X681933Y249775D01*
X681347Y251581D01*
X681140Y252883D01*
X691592Y252883D01*
X691592Y242432D01*
X690290Y242638D01*
G37*
%LPD*%
%LPC*%
G36*
X48917Y455675D02*
X48917Y455675D01*
X49100Y456829D01*
X49656Y458540D01*
X50472Y460143D01*
X51530Y461599D01*
X52802Y462871D01*
X54258Y463928D01*
X55861Y464745D01*
X57572Y465301D01*
X58726Y465484D01*
X58726Y455675D01*
X48917Y455675D01*
G37*
%LPD*%
%LPC*%
G36*
X57572Y443003D02*
X57572Y443003D01*
X55861Y443559D01*
X54258Y444376D01*
X52802Y445433D01*
X51530Y446705D01*
X50472Y448161D01*
X49656Y449764D01*
X49100Y451475D01*
X48917Y452629D01*
X58726Y452629D01*
X58726Y442820D01*
X57572Y443003D01*
G37*
%LPD*%
%LPC*%
G36*
X693114Y254406D02*
X693114Y254406D01*
X693114Y254407D01*
X693116Y254407D01*
X693116Y254406D01*
X693114Y254406D01*
G37*
%LPD*%
D10*
X60249Y454152D03*
X85649Y454152D03*
X111049Y454152D03*
X136449Y454152D03*
X161849Y454152D03*
X187249Y454152D03*
X212649Y454152D03*
X238049Y454152D03*
X263449Y454152D03*
X288849Y454152D03*
X314249Y454152D03*
X339649Y454152D03*
X365049Y454152D03*
X390449Y454152D03*
X415849Y454152D03*
X441249Y454152D03*
X466649Y454152D03*
X492049Y454152D03*
D11*
X553415Y203606D03*
X578815Y203606D03*
X604215Y203606D03*
X629615Y203606D03*
X655015Y203606D03*
X680415Y203606D03*
X540715Y229006D03*
X540715Y254406D03*
X540715Y279806D03*
X540715Y305206D03*
X540715Y330606D03*
X540715Y356006D03*
X540715Y381406D03*
X693115Y229006D03*
X693115Y254406D03*
X693115Y279806D03*
X693115Y305206D03*
X693115Y330606D03*
X667715Y317906D03*
X667715Y343306D03*
X693115Y356006D03*
X693115Y381406D03*
X693115Y406806D03*
X693115Y432206D03*
X693115Y457606D03*
X693115Y483006D03*
X693115Y508406D03*
X667715Y419506D03*
X667715Y444906D03*
X540715Y406806D03*
X540715Y432206D03*
X540715Y457606D03*
X540715Y483006D03*
X540715Y508406D03*
D12*
X68885Y252984D03*
X69494Y219456D03*
X70104Y184099D03*
X168859Y184099D03*
X168250Y219456D03*
X168250Y256032D03*
D13*
X168275Y238125D02*
X168275Y220663D01*
X168275Y238125D02*
X168275Y253594D01*
X168275Y220663D02*
X168250Y219456D01*
X168275Y219075D02*
X168275Y215798D01*
X168275Y184150D01*
X168859Y184099D01*
X541338Y304800D02*
X625475Y304800D01*
X674688Y255588D01*
X692150Y255588D01*
X541338Y304800D02*
X540715Y305206D01*
X692150Y255588D02*
X693115Y254406D01*
X493713Y219075D02*
X209702Y219075D01*
X168275Y219075D01*
X493713Y219075D02*
X498475Y223838D01*
X498475Y290513D01*
X512763Y304800D01*
X539750Y304800D01*
X168250Y219456D02*
X168275Y219075D01*
X539750Y304800D02*
X540715Y305206D01*
D14*
X168275Y238125D03*
D15*
X168250Y256032D02*
X168250Y278587D01*
X168250Y256032D02*
X168250Y253619D01*
X168275Y253594D01*
X168250Y256032D02*
X210312Y256032D01*
X210312Y256032D01*
X207874Y253594D01*
X207874Y249326D01*
X174955Y249326D01*
X168250Y256032D01*
X168250Y215824D01*
X168275Y215798D01*
X168250Y219456D02*
X168250Y179832D01*
X168859Y179222D01*
X169469Y178613D01*
X168859Y179222D02*
X168859Y184099D01*
X168631Y219075D02*
X168250Y219456D01*
X168631Y219075D02*
X209702Y219075D01*
X212979Y219075D01*
X218237Y224333D01*
X199949Y184099D02*
X168859Y184099D01*
D13*
X101600Y271463D02*
X101600Y438150D01*
X85725Y454025D01*
X85649Y454152D01*
X531813Y331788D02*
X539750Y331788D01*
X531813Y331788D02*
X430213Y433388D01*
X293688Y433388D01*
X274638Y452438D01*
X274638Y458788D01*
X266700Y466725D01*
X150813Y466725D01*
X147638Y463550D01*
X539750Y331788D02*
X540715Y330606D01*
D14*
X101600Y271463D03*
X147638Y463550D03*
D13*
X512763Y228600D02*
X539750Y228600D01*
X512763Y228600D02*
X442913Y158750D01*
X266700Y158750D01*
X258763Y150813D01*
X61913Y150813D01*
X39688Y173038D01*
X39688Y350838D01*
X73025Y384175D01*
X73025Y458788D01*
X80963Y466725D01*
X98425Y466725D01*
X109538Y455613D01*
X539750Y228600D02*
X540715Y229006D01*
X111049Y454152D02*
X109538Y455613D01*
X138113Y452438D02*
X138113Y233363D01*
X138113Y452438D02*
X136525Y454025D01*
X136449Y454152D01*
X533400Y254000D02*
X539750Y254000D01*
X533400Y254000D02*
X463550Y184150D01*
X211138Y184150D01*
X195263Y168275D01*
X142875Y168275D01*
X138113Y173038D01*
X138113Y233363D01*
X539750Y254000D02*
X540715Y254406D01*
D14*
X138113Y233363D03*
D13*
X530225Y357188D02*
X539750Y357188D01*
X530225Y357188D02*
X474663Y412750D01*
X454025Y392113D02*
X223838Y392113D01*
X161925Y454025D01*
X539750Y357188D02*
X540715Y356006D01*
X161925Y454025D02*
X161849Y454152D01*
D14*
X474663Y412750D03*
X454025Y392113D03*
D13*
X600075Y431800D02*
X692150Y431800D01*
X600075Y431800D02*
X568325Y400050D01*
X692150Y431800D02*
X693115Y432206D01*
D14*
X568325Y400050D03*
D13*
X661988Y374650D02*
X668338Y374650D01*
X687388Y393700D01*
X696913Y393700D01*
X706438Y403225D01*
X706438Y495300D01*
X693738Y508000D01*
X693115Y508406D01*
X247650Y454025D02*
X238125Y454025D01*
X247650Y454025D02*
X300038Y401638D01*
X457200Y401638D01*
X528638Y330200D01*
X528638Y325438D01*
X536575Y317500D01*
X588963Y317500D01*
X595313Y311150D01*
X238125Y454025D02*
X238049Y454152D01*
D14*
X661988Y374650D03*
X595313Y311150D03*
D13*
X700088Y371475D02*
X731838Y371475D01*
X700088Y371475D02*
X696913Y368300D01*
X587375Y368300D01*
X573088Y382588D01*
X541338Y382588D01*
X540715Y381406D01*
X550863Y346075D02*
X569913Y346075D01*
X587375Y363538D01*
X587375Y368300D01*
D14*
X731838Y371475D03*
X550863Y346075D03*
D13*
X554038Y406400D02*
X541338Y406400D01*
X554038Y406400D02*
X568325Y392113D01*
X541338Y406400D02*
X540715Y406806D01*
X222250Y454025D02*
X212725Y454025D01*
X222250Y454025D02*
X277813Y398463D01*
X455613Y398463D01*
X492125Y361950D01*
X492125Y225425D01*
X212725Y454025D02*
X212649Y454152D01*
D14*
X568325Y392113D03*
X492125Y225425D03*
D13*
X620713Y512763D02*
X663575Y512763D01*
X620713Y512763D02*
X541338Y433388D01*
X540715Y432206D01*
X319088Y454025D02*
X314325Y454025D01*
X319088Y454025D02*
X333375Y439738D01*
X460375Y439738D01*
X473075Y439738D02*
X485775Y439738D01*
X492125Y433388D01*
X539750Y433388D01*
X314325Y454025D02*
X314249Y454152D01*
X539750Y433388D02*
X540715Y432206D01*
D14*
X663575Y512763D03*
X460375Y439738D03*
X473075Y439738D03*
D13*
X515938Y442913D02*
X515938Y458788D01*
X539750Y482600D01*
X540715Y483006D01*
X460375Y431800D02*
X436563Y431800D01*
X431800Y436563D01*
X306388Y436563D01*
X288925Y454025D01*
X288849Y454152D01*
D14*
X515938Y442913D03*
X460375Y431800D03*
D13*
X512763Y508000D02*
X539750Y508000D01*
X512763Y508000D02*
X474663Y469900D01*
X354013Y469900D01*
X339725Y455613D01*
X539750Y508000D02*
X540715Y508406D01*
X339725Y455613D02*
X339649Y454152D01*
X519113Y436563D02*
X539750Y457200D01*
X519113Y436563D02*
X493713Y436563D01*
X477838Y452438D01*
X477838Y458788D01*
X469900Y466725D01*
X376238Y466725D01*
X365125Y455613D01*
X539750Y457200D02*
X540715Y457606D01*
X365125Y455613D02*
X365049Y454152D01*
X598488Y482600D02*
X692150Y482600D01*
X598488Y482600D02*
X579438Y463550D01*
X692150Y482600D02*
X693115Y483006D01*
D14*
X579438Y463550D03*
D13*
X573088Y457200D02*
X692150Y457200D01*
X573088Y457200D02*
X554038Y438150D01*
X692150Y457200D02*
X693115Y457606D01*
D14*
X554038Y438150D03*
D13*
X590550Y406400D02*
X692150Y406400D01*
X590550Y406400D02*
X569913Y385763D01*
X554038Y385763D01*
X546100Y393700D01*
X501650Y393700D01*
X473075Y422275D01*
X692150Y406400D02*
X693115Y406806D01*
D14*
X473075Y422275D03*
D13*
X70104Y184099D02*
X70104Y184099D01*
X630238Y304800D02*
X692150Y304800D01*
X630238Y304800D02*
X595313Y339725D01*
X549275Y339725D01*
X546100Y342900D01*
X536575Y342900D01*
X466725Y412750D01*
X466725Y446088D02*
X466725Y454025D01*
X466725Y446088D02*
X466725Y412750D01*
X692150Y304800D02*
X693115Y305206D01*
X466725Y454025D02*
X466649Y454152D01*
X92075Y254000D02*
X69850Y254000D01*
X92075Y254000D02*
X123825Y285750D01*
X231648Y469900D02*
X314325Y469900D01*
X327025Y457200D01*
X327025Y450850D01*
X334963Y442913D01*
X335083Y442913D01*
X455613Y442913D02*
X458788Y446088D01*
X466725Y446088D01*
X69850Y254000D02*
X68885Y252984D01*
X466725Y446088D02*
X466649Y454152D01*
D15*
X69494Y252374D02*
X68885Y252984D01*
X69494Y252374D02*
X69494Y219456D01*
X70104Y218847D01*
X70104Y184099D01*
X123825Y440741D02*
X129385Y440741D01*
X129385Y287034D02*
X105177Y262827D01*
X79946Y262827D02*
X69494Y252374D01*
X79946Y262827D02*
X105177Y262827D01*
X129385Y287034D02*
X129385Y440741D01*
D16*
X124511Y441427D02*
X123825Y440741D01*
X124511Y441427D02*
X124511Y459097D01*
X135949Y470535D01*
X326187Y459097D02*
X326187Y452314D01*
X327711Y450790D01*
X326187Y459097D02*
X314749Y470535D01*
X135949Y470535D01*
D13*
X327711Y450790D02*
X328473Y450028D01*
X328473Y449523D01*
X335083Y442913D01*
X352958Y442913D01*
D16*
X455613Y442913D01*
X466725Y454025D01*
M02*
