G04 EAGLE Gerber X2 export*
%TF.Part,Single*%
%TF.FileFunction,Copper,L2,Bot,Mixed*%
%TF.FilePolarity,Positive*%
%TF.GenerationSoftware,Autodesk,EAGLE,9.1.0*%
%TF.CreationDate,2019-01-31T10:13:58Z*%
G75*
%MOMM*%
%FSLAX34Y34*%
%LPD*%
%AMOC8*
5,1,8,0,0,1.08239X$1,22.5*%
G01*
%ADD10C,1.778000*%
%ADD11C,1.905000*%
%ADD12R,5.080000X2.540000*%
%ADD13C,0.152400*%
%ADD14C,0.609600*%


D10*
X60249Y454152D03*
X85649Y454152D03*
X111049Y454152D03*
X136449Y454152D03*
X161849Y454152D03*
X187249Y454152D03*
X212649Y454152D03*
X238049Y454152D03*
X263449Y454152D03*
X288849Y454152D03*
X314249Y454152D03*
X339649Y454152D03*
X365049Y454152D03*
X390449Y454152D03*
X415849Y454152D03*
X441249Y454152D03*
X466649Y454152D03*
X492049Y454152D03*
D11*
X553415Y203606D03*
X578815Y203606D03*
X604215Y203606D03*
X629615Y203606D03*
X655015Y203606D03*
X680415Y203606D03*
X540715Y229006D03*
X540715Y254406D03*
X540715Y279806D03*
X540715Y305206D03*
X540715Y330606D03*
X540715Y356006D03*
X540715Y381406D03*
X693115Y229006D03*
X693115Y254406D03*
X693115Y279806D03*
X693115Y305206D03*
X693115Y330606D03*
X667715Y317906D03*
X667715Y343306D03*
X693115Y356006D03*
X693115Y381406D03*
X693115Y406806D03*
X693115Y432206D03*
X693115Y457606D03*
X693115Y483006D03*
X693115Y508406D03*
X667715Y419506D03*
X667715Y444906D03*
X540715Y406806D03*
X540715Y432206D03*
X540715Y457606D03*
X540715Y483006D03*
X540715Y508406D03*
D12*
X68885Y252984D03*
X69494Y219456D03*
X70104Y184099D03*
X168859Y184099D03*
X168250Y219456D03*
X168250Y256032D03*
D13*
X168275Y238125D02*
X168275Y220663D01*
X168275Y238125D02*
X168275Y255588D01*
X168250Y256032D01*
X168275Y220663D02*
X168250Y219456D01*
X168275Y219075D02*
X168275Y184150D01*
X168859Y184099D01*
X541338Y304800D02*
X625475Y304800D01*
X674688Y255588D01*
X692150Y255588D01*
X541338Y304800D02*
X540715Y305206D01*
X692150Y255588D02*
X693115Y254406D01*
X493713Y219075D02*
X168275Y219075D01*
X493713Y219075D02*
X498475Y223838D01*
X498475Y290513D01*
X512763Y304800D01*
X539750Y304800D01*
X168250Y219456D02*
X168275Y219075D01*
X539750Y304800D02*
X540715Y305206D01*
D14*
X168275Y238125D03*
D13*
X101600Y271463D02*
X101600Y438150D01*
X85725Y454025D01*
X85649Y454152D01*
X531813Y331788D02*
X539750Y331788D01*
X531813Y331788D02*
X430213Y433388D01*
X293688Y433388D01*
X274638Y452438D01*
X274638Y458788D01*
X266700Y466725D01*
X150813Y466725D01*
X147638Y463550D01*
X539750Y331788D02*
X540715Y330606D01*
D14*
X101600Y271463D03*
X147638Y463550D03*
D13*
X512763Y228600D02*
X539750Y228600D01*
X512763Y228600D02*
X442913Y158750D01*
X266700Y158750D01*
X258763Y150813D01*
X61913Y150813D01*
X39688Y173038D01*
X39688Y350838D01*
X73025Y384175D01*
X73025Y458788D01*
X80963Y466725D01*
X98425Y466725D01*
X109538Y455613D01*
X539750Y228600D02*
X540715Y229006D01*
X111049Y454152D02*
X109538Y455613D01*
X138113Y452438D02*
X138113Y233363D01*
X138113Y452438D02*
X136525Y454025D01*
X136449Y454152D01*
X533400Y254000D02*
X539750Y254000D01*
X533400Y254000D02*
X463550Y184150D01*
X211138Y184150D01*
X195263Y168275D01*
X142875Y168275D01*
X138113Y173038D01*
X138113Y233363D01*
X539750Y254000D02*
X540715Y254406D01*
D14*
X138113Y233363D03*
D13*
X530225Y357188D02*
X539750Y357188D01*
X530225Y357188D02*
X474663Y412750D01*
X454025Y392113D02*
X223838Y392113D01*
X161925Y454025D01*
X539750Y357188D02*
X540715Y356006D01*
X161925Y454025D02*
X161849Y454152D01*
D14*
X474663Y412750D03*
X454025Y392113D03*
D13*
X600075Y431800D02*
X692150Y431800D01*
X600075Y431800D02*
X568325Y400050D01*
X692150Y431800D02*
X693115Y432206D01*
D14*
X568325Y400050D03*
D13*
X661988Y374650D02*
X668338Y374650D01*
X687388Y393700D01*
X696913Y393700D01*
X706438Y403225D01*
X706438Y495300D01*
X693738Y508000D01*
X693115Y508406D01*
X247650Y454025D02*
X238125Y454025D01*
X247650Y454025D02*
X300038Y401638D01*
X457200Y401638D01*
X528638Y330200D01*
X528638Y325438D01*
X536575Y317500D01*
X588963Y317500D01*
X595313Y311150D01*
X238125Y454025D02*
X238049Y454152D01*
D14*
X661988Y374650D03*
X595313Y311150D03*
D13*
X700088Y371475D02*
X731838Y371475D01*
X700088Y371475D02*
X696913Y368300D01*
X587375Y368300D01*
X573088Y382588D01*
X541338Y382588D01*
X540715Y381406D01*
X550863Y346075D02*
X569913Y346075D01*
X587375Y363538D01*
X587375Y368300D01*
D14*
X731838Y371475D03*
X550863Y346075D03*
D13*
X554038Y406400D02*
X541338Y406400D01*
X554038Y406400D02*
X568325Y392113D01*
X541338Y406400D02*
X540715Y406806D01*
X222250Y454025D02*
X212725Y454025D01*
X222250Y454025D02*
X277813Y398463D01*
X455613Y398463D01*
X492125Y361950D01*
X492125Y225425D01*
X212725Y454025D02*
X212649Y454152D01*
D14*
X568325Y392113D03*
X492125Y225425D03*
D13*
X620713Y512763D02*
X663575Y512763D01*
X620713Y512763D02*
X541338Y433388D01*
X540715Y432206D01*
X319088Y454025D02*
X314325Y454025D01*
X319088Y454025D02*
X333375Y439738D01*
X460375Y439738D01*
X473075Y439738D02*
X485775Y439738D01*
X492125Y433388D01*
X539750Y433388D01*
X314325Y454025D02*
X314249Y454152D01*
X539750Y433388D02*
X540715Y432206D01*
D14*
X663575Y512763D03*
X460375Y439738D03*
X473075Y439738D03*
D13*
X515938Y442913D02*
X515938Y458788D01*
X539750Y482600D01*
X540715Y483006D01*
X460375Y431800D02*
X436563Y431800D01*
X431800Y436563D01*
X306388Y436563D01*
X288925Y454025D01*
X288849Y454152D01*
D14*
X515938Y442913D03*
X460375Y431800D03*
D13*
X512763Y508000D02*
X539750Y508000D01*
X512763Y508000D02*
X474663Y469900D01*
X354013Y469900D01*
X339725Y455613D01*
X539750Y508000D02*
X540715Y508406D01*
X339725Y455613D02*
X339649Y454152D01*
X519113Y436563D02*
X539750Y457200D01*
X519113Y436563D02*
X493713Y436563D01*
X477838Y452438D01*
X477838Y458788D01*
X469900Y466725D01*
X376238Y466725D01*
X365125Y455613D01*
X539750Y457200D02*
X540715Y457606D01*
X365125Y455613D02*
X365049Y454152D01*
X598488Y482600D02*
X692150Y482600D01*
X598488Y482600D02*
X579438Y463550D01*
X692150Y482600D02*
X693115Y483006D01*
D14*
X579438Y463550D03*
D13*
X573088Y457200D02*
X692150Y457200D01*
X573088Y457200D02*
X554038Y438150D01*
X692150Y457200D02*
X693115Y457606D01*
D14*
X554038Y438150D03*
D13*
X590550Y406400D02*
X692150Y406400D01*
X590550Y406400D02*
X569913Y385763D01*
X554038Y385763D01*
X546100Y393700D01*
X501650Y393700D01*
X473075Y422275D01*
X692150Y406400D02*
X693115Y406806D01*
D14*
X473075Y422275D03*
D13*
X69850Y252413D02*
X69850Y220663D01*
X69850Y252413D02*
X68885Y252984D01*
X69850Y220663D02*
X69494Y219456D01*
X69850Y219075D02*
X69850Y184150D01*
X70104Y184099D01*
X69850Y219075D02*
X69494Y219456D01*
X630238Y304800D02*
X692150Y304800D01*
X630238Y304800D02*
X595313Y339725D01*
X549275Y339725D01*
X546100Y342900D01*
X536575Y342900D01*
X466725Y412750D01*
X466725Y446088D02*
X466725Y454025D01*
X466725Y446088D02*
X466725Y412750D01*
X692150Y304800D02*
X693115Y305206D01*
X466725Y454025D02*
X466649Y454152D01*
X92075Y254000D02*
X69850Y254000D01*
X92075Y254000D02*
X123825Y285750D01*
X123825Y458788D01*
X134938Y469900D01*
X314325Y469900D01*
X327025Y457200D01*
X327025Y450850D01*
X334963Y442913D01*
X455613Y442913D01*
X458788Y446088D01*
X466725Y446088D01*
X69850Y254000D02*
X68885Y252984D01*
X466725Y446088D02*
X466649Y454152D01*
M02*
