M48
;GenerationSoftware,Autodesk,EAGLE,9.1.0*%
;CreationDate,2019-02-06T17:54:36Z*%
FMAT,2
ICI,OFF
METRIC,TZ,000.000
T4C0.305
T3C1.016
T2C2.540
T1C4.572
%
G90
M71
T1
X67310Y16510
T2
X78486Y42418
X78486Y19558
X4064Y37592
X38100Y9398
X25146Y16764
X51562Y28448
X79756Y28448
X29972Y14224
X30480Y36576
X56642Y36576
X2540Y43180
T3
X16185Y45415
X18725Y45415
X21265Y45415
X23805Y45415
X26345Y45415
X28885Y45415
X31425Y45415
X36505Y45415
X39045Y45415
X41585Y45415
X44125Y45415
X46665Y45415
X49205Y45415
X33965Y45415
X6025Y45415
X8565Y45415
X11105Y45415
X13645Y45415
T4
X16828Y23812
X10160Y27146
X14764Y46355
X13811Y23336
X47466Y41275
X45402Y39211
X66199Y37465
X59531Y31115
X73184Y37148
X55086Y34608
X56832Y39211
X49212Y22542
X66358Y51276
X51594Y44291
X56832Y40005
X47307Y43974
X55404Y43815
X46037Y43974
X47307Y42228
X57944Y46355
X46037Y43180
M30