G04 EAGLE Gerber X2 export*
%TF.Part,Single*%
%TF.FileFunction,Profile,NP*%
%TF.FilePolarity,Positive*%
%TF.GenerationSoftware,Autodesk,EAGLE,9.1.0*%
%TF.CreationDate,2019-02-06T17:54:37Z*%
G75*
%MOMM*%
%FSLAX34Y34*%
%LPD*%
%AMOC8*
5,1,8,0,0,1.08239X$1,22.5*%
G01*
%ADD10C,0.254000*%


D10*
X-186Y456952D02*
X0Y203200D01*
X83820Y119380D01*
X185420Y119380D01*
X215900Y88900D01*
X215900Y0D01*
X525780Y0D01*
X526263Y11069D01*
X527709Y22053D01*
X530107Y32870D01*
X533439Y43437D01*
X537679Y53673D01*
X542795Y63500D01*
X548748Y72844D01*
X555492Y81634D01*
X562977Y89803D01*
X571146Y97288D01*
X579936Y104032D01*
X589280Y109985D01*
X599107Y115101D01*
X609343Y119341D01*
X619910Y122673D01*
X630727Y125071D01*
X641711Y126517D01*
X652780Y127000D01*
X812800Y127000D01*
X812424Y457307D01*
X812450Y457516D01*
X812421Y460062D01*
X812418Y460069D01*
X812418Y460649D01*
X812299Y460768D01*
X812287Y460768D01*
X752239Y520807D01*
X518700Y520700D01*
X475000Y475000D01*
X17614Y474752D01*
X-186Y456952D01*
X695960Y164459D02*
X695888Y163178D01*
X695744Y161903D01*
X695530Y160638D01*
X695244Y159388D01*
X694889Y158155D01*
X694465Y156944D01*
X693974Y155759D01*
X693418Y154604D01*
X692797Y153481D01*
X692115Y152395D01*
X691373Y151348D01*
X690573Y150346D01*
X689718Y149389D01*
X688811Y148482D01*
X687854Y147627D01*
X686852Y146827D01*
X685805Y146085D01*
X684719Y145403D01*
X683596Y144782D01*
X682441Y144226D01*
X681256Y143735D01*
X680045Y143311D01*
X678812Y142956D01*
X677562Y142670D01*
X676297Y142456D01*
X675022Y142312D01*
X673741Y142240D01*
X672459Y142240D01*
X671178Y142312D01*
X669903Y142456D01*
X668638Y142670D01*
X667388Y142956D01*
X666155Y143311D01*
X664944Y143735D01*
X663759Y144226D01*
X662604Y144782D01*
X661481Y145403D01*
X660395Y146085D01*
X659348Y146827D01*
X658346Y147627D01*
X657389Y148482D01*
X656482Y149389D01*
X655627Y150346D01*
X654827Y151348D01*
X654085Y152395D01*
X653403Y153481D01*
X652782Y154604D01*
X652226Y155759D01*
X651735Y156944D01*
X651311Y158155D01*
X650956Y159388D01*
X650670Y160638D01*
X650456Y161903D01*
X650312Y163178D01*
X650240Y164459D01*
X650240Y165741D01*
X650312Y167022D01*
X650456Y168297D01*
X650670Y169562D01*
X650956Y170812D01*
X651311Y172045D01*
X651735Y173256D01*
X652226Y174441D01*
X652782Y175596D01*
X653403Y176719D01*
X654085Y177805D01*
X654827Y178852D01*
X655627Y179854D01*
X656482Y180811D01*
X657389Y181718D01*
X658346Y182573D01*
X659348Y183373D01*
X660395Y184115D01*
X661481Y184797D01*
X662604Y185418D01*
X663759Y185974D01*
X664944Y186465D01*
X666155Y186889D01*
X667388Y187244D01*
X668638Y187530D01*
X669903Y187744D01*
X671178Y187888D01*
X672459Y187960D01*
X673741Y187960D01*
X675022Y187888D01*
X676297Y187744D01*
X677562Y187530D01*
X678812Y187244D01*
X680045Y186889D01*
X681256Y186465D01*
X682441Y185974D01*
X683596Y185418D01*
X684719Y184797D01*
X685805Y184115D01*
X686852Y183373D01*
X687854Y182573D01*
X688811Y181718D01*
X689718Y180811D01*
X690573Y179854D01*
X691373Y178852D01*
X692115Y177805D01*
X692797Y176719D01*
X693418Y175596D01*
X693974Y174441D01*
X694465Y173256D01*
X694889Y172045D01*
X695244Y170812D01*
X695530Y169562D01*
X695744Y168297D01*
X695888Y167022D01*
X695960Y165741D01*
X695960Y164459D01*
X38100Y431301D02*
X38022Y430306D01*
X37866Y429320D01*
X37633Y428350D01*
X37324Y427401D01*
X36942Y426479D01*
X36489Y425590D01*
X35968Y424739D01*
X35381Y423931D01*
X34733Y423173D01*
X34027Y422467D01*
X33269Y421819D01*
X32461Y421232D01*
X31610Y420711D01*
X30721Y420258D01*
X29799Y419876D01*
X28850Y419567D01*
X27880Y419334D01*
X26894Y419178D01*
X25899Y419100D01*
X24901Y419100D01*
X23906Y419178D01*
X22920Y419334D01*
X21950Y419567D01*
X21001Y419876D01*
X20079Y420258D01*
X19190Y420711D01*
X18339Y421232D01*
X17531Y421819D01*
X16773Y422467D01*
X16067Y423173D01*
X15419Y423931D01*
X14832Y424739D01*
X14311Y425590D01*
X13858Y426479D01*
X13476Y427401D01*
X13167Y428350D01*
X12934Y429320D01*
X12778Y430306D01*
X12700Y431301D01*
X12700Y432299D01*
X12778Y433294D01*
X12934Y434280D01*
X13167Y435250D01*
X13476Y436199D01*
X13858Y437121D01*
X14311Y438010D01*
X14832Y438861D01*
X15419Y439669D01*
X16067Y440427D01*
X16773Y441133D01*
X17531Y441781D01*
X18339Y442368D01*
X19190Y442889D01*
X20079Y443342D01*
X21001Y443724D01*
X21950Y444033D01*
X22920Y444266D01*
X23906Y444422D01*
X24901Y444500D01*
X25899Y444500D01*
X26894Y444422D01*
X27880Y444266D01*
X28850Y444033D01*
X29799Y443724D01*
X30721Y443342D01*
X31610Y442889D01*
X32461Y442368D01*
X33269Y441781D01*
X34027Y441133D01*
X34733Y440427D01*
X35381Y439669D01*
X35968Y438861D01*
X36489Y438010D01*
X36942Y437121D01*
X37324Y436199D01*
X37633Y435250D01*
X37866Y434280D01*
X38022Y433294D01*
X38100Y432299D01*
X38100Y431301D01*
X797560Y423681D02*
X797482Y422686D01*
X797326Y421700D01*
X797093Y420730D01*
X796784Y419781D01*
X796402Y418859D01*
X795949Y417970D01*
X795428Y417119D01*
X794841Y416311D01*
X794193Y415553D01*
X793487Y414847D01*
X792729Y414199D01*
X791921Y413612D01*
X791070Y413091D01*
X790181Y412638D01*
X789259Y412256D01*
X788310Y411947D01*
X787340Y411714D01*
X786354Y411558D01*
X785359Y411480D01*
X784361Y411480D01*
X783366Y411558D01*
X782380Y411714D01*
X781410Y411947D01*
X780461Y412256D01*
X779539Y412638D01*
X778650Y413091D01*
X777799Y413612D01*
X776991Y414199D01*
X776233Y414847D01*
X775527Y415553D01*
X774879Y416311D01*
X774292Y417119D01*
X773771Y417970D01*
X773318Y418859D01*
X772936Y419781D01*
X772627Y420730D01*
X772394Y421700D01*
X772238Y422686D01*
X772160Y423681D01*
X772160Y424679D01*
X772238Y425674D01*
X772394Y426660D01*
X772627Y427630D01*
X772936Y428579D01*
X773318Y429501D01*
X773771Y430390D01*
X774292Y431241D01*
X774879Y432049D01*
X775527Y432807D01*
X776233Y433513D01*
X776991Y434161D01*
X777799Y434748D01*
X778650Y435269D01*
X779539Y435722D01*
X780461Y436104D01*
X781410Y436413D01*
X782380Y436646D01*
X783366Y436802D01*
X784361Y436880D01*
X785359Y436880D01*
X786354Y436802D01*
X787340Y436646D01*
X788310Y436413D01*
X789259Y436104D01*
X790181Y435722D01*
X791070Y435269D01*
X791921Y434748D01*
X792729Y434161D01*
X793487Y433513D01*
X794193Y432807D01*
X794841Y432049D01*
X795428Y431241D01*
X795949Y430390D01*
X796402Y429501D01*
X796784Y428579D01*
X797093Y427630D01*
X797326Y426660D01*
X797482Y425674D01*
X797560Y424679D01*
X797560Y423681D01*
X797560Y195081D02*
X797482Y194086D01*
X797326Y193100D01*
X797093Y192130D01*
X796784Y191181D01*
X796402Y190259D01*
X795949Y189370D01*
X795428Y188519D01*
X794841Y187711D01*
X794193Y186953D01*
X793487Y186247D01*
X792729Y185599D01*
X791921Y185012D01*
X791070Y184491D01*
X790181Y184038D01*
X789259Y183656D01*
X788310Y183347D01*
X787340Y183114D01*
X786354Y182958D01*
X785359Y182880D01*
X784361Y182880D01*
X783366Y182958D01*
X782380Y183114D01*
X781410Y183347D01*
X780461Y183656D01*
X779539Y184038D01*
X778650Y184491D01*
X777799Y185012D01*
X776991Y185599D01*
X776233Y186247D01*
X775527Y186953D01*
X774879Y187711D01*
X774292Y188519D01*
X773771Y189370D01*
X773318Y190259D01*
X772936Y191181D01*
X772627Y192130D01*
X772394Y193100D01*
X772238Y194086D01*
X772160Y195081D01*
X772160Y196079D01*
X772238Y197074D01*
X772394Y198060D01*
X772627Y199030D01*
X772936Y199979D01*
X773318Y200901D01*
X773771Y201790D01*
X774292Y202641D01*
X774879Y203449D01*
X775527Y204207D01*
X776233Y204913D01*
X776991Y205561D01*
X777799Y206148D01*
X778650Y206669D01*
X779539Y207122D01*
X780461Y207504D01*
X781410Y207813D01*
X782380Y208046D01*
X783366Y208202D01*
X784361Y208280D01*
X785359Y208280D01*
X786354Y208202D01*
X787340Y208046D01*
X788310Y207813D01*
X789259Y207504D01*
X790181Y207122D01*
X791070Y206669D01*
X791921Y206148D01*
X792729Y205561D01*
X793487Y204913D01*
X794193Y204207D01*
X794841Y203449D01*
X795428Y202641D01*
X795949Y201790D01*
X796402Y200901D01*
X796784Y199979D01*
X797093Y199030D01*
X797326Y198060D01*
X797482Y197074D01*
X797560Y196079D01*
X797560Y195081D01*
X317500Y365261D02*
X317422Y364266D01*
X317266Y363280D01*
X317033Y362310D01*
X316724Y361361D01*
X316342Y360439D01*
X315889Y359550D01*
X315368Y358699D01*
X314781Y357891D01*
X314133Y357133D01*
X313427Y356427D01*
X312669Y355779D01*
X311861Y355192D01*
X311010Y354671D01*
X310121Y354218D01*
X309199Y353836D01*
X308250Y353527D01*
X307280Y353294D01*
X306294Y353138D01*
X305299Y353060D01*
X304301Y353060D01*
X303306Y353138D01*
X302320Y353294D01*
X301350Y353527D01*
X300401Y353836D01*
X299479Y354218D01*
X298590Y354671D01*
X297739Y355192D01*
X296931Y355779D01*
X296173Y356427D01*
X295467Y357133D01*
X294819Y357891D01*
X294232Y358699D01*
X293711Y359550D01*
X293258Y360439D01*
X292876Y361361D01*
X292567Y362310D01*
X292334Y363280D01*
X292178Y364266D01*
X292100Y365261D01*
X292100Y366259D01*
X292178Y367254D01*
X292334Y368240D01*
X292567Y369210D01*
X292876Y370159D01*
X293258Y371081D01*
X293711Y371970D01*
X294232Y372821D01*
X294819Y373629D01*
X295467Y374387D01*
X296173Y375093D01*
X296931Y375741D01*
X297739Y376328D01*
X298590Y376849D01*
X299479Y377302D01*
X300401Y377684D01*
X301350Y377993D01*
X302320Y378226D01*
X303306Y378382D01*
X304301Y378460D01*
X305299Y378460D01*
X306294Y378382D01*
X307280Y378226D01*
X308250Y377993D01*
X309199Y377684D01*
X310121Y377302D01*
X311010Y376849D01*
X311861Y376328D01*
X312669Y375741D01*
X313427Y375093D01*
X314133Y374387D01*
X314781Y373629D01*
X315368Y372821D01*
X315889Y371970D01*
X316342Y371081D01*
X316724Y370159D01*
X317033Y369210D01*
X317266Y368240D01*
X317422Y367254D01*
X317500Y366259D01*
X317500Y365261D01*
X579120Y365261D02*
X579042Y364266D01*
X578886Y363280D01*
X578653Y362310D01*
X578344Y361361D01*
X577962Y360439D01*
X577509Y359550D01*
X576988Y358699D01*
X576401Y357891D01*
X575753Y357133D01*
X575047Y356427D01*
X574289Y355779D01*
X573481Y355192D01*
X572630Y354671D01*
X571741Y354218D01*
X570819Y353836D01*
X569870Y353527D01*
X568900Y353294D01*
X567914Y353138D01*
X566919Y353060D01*
X565921Y353060D01*
X564926Y353138D01*
X563940Y353294D01*
X562970Y353527D01*
X562021Y353836D01*
X561099Y354218D01*
X560210Y354671D01*
X559359Y355192D01*
X558551Y355779D01*
X557793Y356427D01*
X557087Y357133D01*
X556439Y357891D01*
X555852Y358699D01*
X555331Y359550D01*
X554878Y360439D01*
X554496Y361361D01*
X554187Y362310D01*
X553954Y363280D01*
X553798Y364266D01*
X553720Y365261D01*
X553720Y366259D01*
X553798Y367254D01*
X553954Y368240D01*
X554187Y369210D01*
X554496Y370159D01*
X554878Y371081D01*
X555331Y371970D01*
X555852Y372821D01*
X556439Y373629D01*
X557087Y374387D01*
X557793Y375093D01*
X558551Y375741D01*
X559359Y376328D01*
X560210Y376849D01*
X561099Y377302D01*
X562021Y377684D01*
X562970Y377993D01*
X563940Y378226D01*
X564926Y378382D01*
X565921Y378460D01*
X566919Y378460D01*
X567914Y378382D01*
X568900Y378226D01*
X569870Y377993D01*
X570819Y377684D01*
X571741Y377302D01*
X572630Y376849D01*
X573481Y376328D01*
X574289Y375741D01*
X575047Y375093D01*
X575753Y374387D01*
X576401Y373629D01*
X576988Y372821D01*
X577509Y371970D01*
X577962Y371081D01*
X578344Y370159D01*
X578653Y369210D01*
X578886Y368240D01*
X579042Y367254D01*
X579120Y366259D01*
X579120Y365261D01*
X312420Y141741D02*
X312342Y140746D01*
X312186Y139760D01*
X311953Y138790D01*
X311644Y137841D01*
X311262Y136919D01*
X310809Y136030D01*
X310288Y135179D01*
X309701Y134371D01*
X309053Y133613D01*
X308347Y132907D01*
X307589Y132259D01*
X306781Y131672D01*
X305930Y131151D01*
X305041Y130698D01*
X304119Y130316D01*
X303170Y130007D01*
X302200Y129774D01*
X301214Y129618D01*
X300219Y129540D01*
X299221Y129540D01*
X298226Y129618D01*
X297240Y129774D01*
X296270Y130007D01*
X295321Y130316D01*
X294399Y130698D01*
X293510Y131151D01*
X292659Y131672D01*
X291851Y132259D01*
X291093Y132907D01*
X290387Y133613D01*
X289739Y134371D01*
X289152Y135179D01*
X288631Y136030D01*
X288178Y136919D01*
X287796Y137841D01*
X287487Y138790D01*
X287254Y139760D01*
X287098Y140746D01*
X287020Y141741D01*
X287020Y142739D01*
X287098Y143734D01*
X287254Y144720D01*
X287487Y145690D01*
X287796Y146639D01*
X288178Y147561D01*
X288631Y148450D01*
X289152Y149301D01*
X289739Y150109D01*
X290387Y150867D01*
X291093Y151573D01*
X291851Y152221D01*
X292659Y152808D01*
X293510Y153329D01*
X294399Y153782D01*
X295321Y154164D01*
X296270Y154473D01*
X297240Y154706D01*
X298226Y154862D01*
X299221Y154940D01*
X300219Y154940D01*
X301214Y154862D01*
X302200Y154706D01*
X303170Y154473D01*
X304119Y154164D01*
X305041Y153782D01*
X305930Y153329D01*
X306781Y152808D01*
X307589Y152221D01*
X308347Y151573D01*
X309053Y150867D01*
X309701Y150109D01*
X310288Y149301D01*
X310809Y148450D01*
X311262Y147561D01*
X311644Y146639D01*
X311953Y145690D01*
X312186Y144720D01*
X312342Y143734D01*
X312420Y142739D01*
X312420Y141741D01*
X528320Y283981D02*
X528242Y282986D01*
X528086Y282000D01*
X527853Y281030D01*
X527544Y280081D01*
X527162Y279159D01*
X526709Y278270D01*
X526188Y277419D01*
X525601Y276611D01*
X524953Y275853D01*
X524247Y275147D01*
X523489Y274499D01*
X522681Y273912D01*
X521830Y273391D01*
X520941Y272938D01*
X520019Y272556D01*
X519070Y272247D01*
X518100Y272014D01*
X517114Y271858D01*
X516119Y271780D01*
X515121Y271780D01*
X514126Y271858D01*
X513140Y272014D01*
X512170Y272247D01*
X511221Y272556D01*
X510299Y272938D01*
X509410Y273391D01*
X508559Y273912D01*
X507751Y274499D01*
X506993Y275147D01*
X506287Y275853D01*
X505639Y276611D01*
X505052Y277419D01*
X504531Y278270D01*
X504078Y279159D01*
X503696Y280081D01*
X503387Y281030D01*
X503154Y282000D01*
X502998Y282986D01*
X502920Y283981D01*
X502920Y284979D01*
X502998Y285974D01*
X503154Y286960D01*
X503387Y287930D01*
X503696Y288879D01*
X504078Y289801D01*
X504531Y290690D01*
X505052Y291541D01*
X505639Y292349D01*
X506287Y293107D01*
X506993Y293813D01*
X507751Y294461D01*
X508559Y295048D01*
X509410Y295569D01*
X510299Y296022D01*
X511221Y296404D01*
X512170Y296713D01*
X513140Y296946D01*
X514126Y297102D01*
X515121Y297180D01*
X516119Y297180D01*
X517114Y297102D01*
X518100Y296946D01*
X519070Y296713D01*
X520019Y296404D01*
X520941Y296022D01*
X521830Y295569D01*
X522681Y295048D01*
X523489Y294461D01*
X524247Y293813D01*
X524953Y293107D01*
X525601Y292349D01*
X526188Y291541D01*
X526709Y290690D01*
X527162Y289801D01*
X527544Y288879D01*
X527853Y287930D01*
X528086Y286960D01*
X528242Y285974D01*
X528320Y284979D01*
X528320Y283981D01*
X264160Y167141D02*
X264082Y166146D01*
X263926Y165160D01*
X263693Y164190D01*
X263384Y163241D01*
X263002Y162319D01*
X262549Y161430D01*
X262028Y160579D01*
X261441Y159771D01*
X260793Y159013D01*
X260087Y158307D01*
X259329Y157659D01*
X258521Y157072D01*
X257670Y156551D01*
X256781Y156098D01*
X255859Y155716D01*
X254910Y155407D01*
X253940Y155174D01*
X252954Y155018D01*
X251959Y154940D01*
X250961Y154940D01*
X249966Y155018D01*
X248980Y155174D01*
X248010Y155407D01*
X247061Y155716D01*
X246139Y156098D01*
X245250Y156551D01*
X244399Y157072D01*
X243591Y157659D01*
X242833Y158307D01*
X242127Y159013D01*
X241479Y159771D01*
X240892Y160579D01*
X240371Y161430D01*
X239918Y162319D01*
X239536Y163241D01*
X239227Y164190D01*
X238994Y165160D01*
X238838Y166146D01*
X238760Y167141D01*
X238760Y168139D01*
X238838Y169134D01*
X238994Y170120D01*
X239227Y171090D01*
X239536Y172039D01*
X239918Y172961D01*
X240371Y173850D01*
X240892Y174701D01*
X241479Y175509D01*
X242127Y176267D01*
X242833Y176973D01*
X243591Y177621D01*
X244399Y178208D01*
X245250Y178729D01*
X246139Y179182D01*
X247061Y179564D01*
X248010Y179873D01*
X248980Y180106D01*
X249966Y180262D01*
X250961Y180340D01*
X251959Y180340D01*
X252954Y180262D01*
X253940Y180106D01*
X254910Y179873D01*
X255859Y179564D01*
X256781Y179182D01*
X257670Y178729D01*
X258521Y178208D01*
X259329Y177621D01*
X260087Y176973D01*
X260793Y176267D01*
X261441Y175509D01*
X262028Y174701D01*
X262549Y173850D01*
X263002Y172961D01*
X263384Y172039D01*
X263693Y171090D01*
X263926Y170120D01*
X264082Y169134D01*
X264160Y168139D01*
X264160Y167141D01*
X393700Y93481D02*
X393622Y92486D01*
X393466Y91500D01*
X393233Y90530D01*
X392924Y89581D01*
X392542Y88659D01*
X392089Y87770D01*
X391568Y86919D01*
X390981Y86111D01*
X390333Y85353D01*
X389627Y84647D01*
X388869Y83999D01*
X388061Y83412D01*
X387210Y82891D01*
X386321Y82438D01*
X385399Y82056D01*
X384450Y81747D01*
X383480Y81514D01*
X382494Y81358D01*
X381499Y81280D01*
X380501Y81280D01*
X379506Y81358D01*
X378520Y81514D01*
X377550Y81747D01*
X376601Y82056D01*
X375679Y82438D01*
X374790Y82891D01*
X373939Y83412D01*
X373131Y83999D01*
X372373Y84647D01*
X371667Y85353D01*
X371019Y86111D01*
X370432Y86919D01*
X369911Y87770D01*
X369458Y88659D01*
X369076Y89581D01*
X368767Y90530D01*
X368534Y91500D01*
X368378Y92486D01*
X368300Y93481D01*
X368300Y94479D01*
X368378Y95474D01*
X368534Y96460D01*
X368767Y97430D01*
X369076Y98379D01*
X369458Y99301D01*
X369911Y100190D01*
X370432Y101041D01*
X371019Y101849D01*
X371667Y102607D01*
X372373Y103313D01*
X373131Y103961D01*
X373939Y104548D01*
X374790Y105069D01*
X375679Y105522D01*
X376601Y105904D01*
X377550Y106213D01*
X378520Y106446D01*
X379506Y106602D01*
X380501Y106680D01*
X381499Y106680D01*
X382494Y106602D01*
X383480Y106446D01*
X384450Y106213D01*
X385399Y105904D01*
X386321Y105522D01*
X387210Y105069D01*
X388061Y104548D01*
X388869Y103961D01*
X389627Y103313D01*
X390333Y102607D01*
X390981Y101849D01*
X391568Y101041D01*
X392089Y100190D01*
X392542Y99301D01*
X392924Y98379D01*
X393233Y97430D01*
X393466Y96460D01*
X393622Y95474D01*
X393700Y94479D01*
X393700Y93481D01*
X810260Y283981D02*
X810182Y282986D01*
X810026Y282000D01*
X809793Y281030D01*
X809484Y280081D01*
X809102Y279159D01*
X808649Y278270D01*
X808128Y277419D01*
X807541Y276611D01*
X806893Y275853D01*
X806187Y275147D01*
X805429Y274499D01*
X804621Y273912D01*
X803770Y273391D01*
X802881Y272938D01*
X801959Y272556D01*
X801010Y272247D01*
X800040Y272014D01*
X799054Y271858D01*
X798059Y271780D01*
X797061Y271780D01*
X796066Y271858D01*
X795080Y272014D01*
X794110Y272247D01*
X793161Y272556D01*
X792239Y272938D01*
X791350Y273391D01*
X790499Y273912D01*
X789691Y274499D01*
X788933Y275147D01*
X788227Y275853D01*
X787579Y276611D01*
X786992Y277419D01*
X786471Y278270D01*
X786018Y279159D01*
X785636Y280081D01*
X785327Y281030D01*
X785094Y282000D01*
X784938Y282986D01*
X784860Y283981D01*
X784860Y284979D01*
X784938Y285974D01*
X785094Y286960D01*
X785327Y287930D01*
X785636Y288879D01*
X786018Y289801D01*
X786471Y290690D01*
X786992Y291541D01*
X787579Y292349D01*
X788227Y293107D01*
X788933Y293813D01*
X789691Y294461D01*
X790499Y295048D01*
X791350Y295569D01*
X792239Y296022D01*
X793161Y296404D01*
X794110Y296713D01*
X795080Y296946D01*
X796066Y297102D01*
X797061Y297180D01*
X798059Y297180D01*
X799054Y297102D01*
X800040Y296946D01*
X801010Y296713D01*
X801959Y296404D01*
X802881Y296022D01*
X803770Y295569D01*
X804621Y295048D01*
X805429Y294461D01*
X806187Y293813D01*
X806893Y293107D01*
X807541Y292349D01*
X808128Y291541D01*
X808649Y290690D01*
X809102Y289801D01*
X809484Y288879D01*
X809793Y287930D01*
X810026Y286960D01*
X810182Y285974D01*
X810260Y284979D01*
X810260Y283981D01*
X53340Y375421D02*
X53262Y374426D01*
X53106Y373440D01*
X52873Y372470D01*
X52564Y371521D01*
X52182Y370599D01*
X51729Y369710D01*
X51208Y368859D01*
X50621Y368051D01*
X49973Y367293D01*
X49267Y366587D01*
X48509Y365939D01*
X47701Y365352D01*
X46850Y364831D01*
X45961Y364378D01*
X45039Y363996D01*
X44090Y363687D01*
X43120Y363454D01*
X42134Y363298D01*
X41139Y363220D01*
X40141Y363220D01*
X39146Y363298D01*
X38160Y363454D01*
X37190Y363687D01*
X36241Y363996D01*
X35319Y364378D01*
X34430Y364831D01*
X33579Y365352D01*
X32771Y365939D01*
X32013Y366587D01*
X31307Y367293D01*
X30659Y368051D01*
X30072Y368859D01*
X29551Y369710D01*
X29098Y370599D01*
X28716Y371521D01*
X28407Y372470D01*
X28174Y373440D01*
X28018Y374426D01*
X27940Y375421D01*
X27940Y376419D01*
X28018Y377414D01*
X28174Y378400D01*
X28407Y379370D01*
X28716Y380319D01*
X29098Y381241D01*
X29551Y382130D01*
X30072Y382981D01*
X30659Y383789D01*
X31307Y384547D01*
X32013Y385253D01*
X32771Y385901D01*
X33579Y386488D01*
X34430Y387009D01*
X35319Y387462D01*
X36241Y387844D01*
X37190Y388153D01*
X38160Y388386D01*
X39146Y388542D01*
X40141Y388620D01*
X41139Y388620D01*
X42134Y388542D01*
X43120Y388386D01*
X44090Y388153D01*
X45039Y387844D01*
X45961Y387462D01*
X46850Y387009D01*
X47701Y386488D01*
X48509Y385901D01*
X49267Y385253D01*
X49973Y384547D01*
X50621Y383789D01*
X51208Y382981D01*
X51729Y382130D01*
X52182Y381241D01*
X52564Y380319D01*
X52873Y379370D01*
X53106Y378400D01*
X53262Y377414D01*
X53340Y376419D01*
X53340Y375421D01*
M02*
