G04 EAGLE Gerber X2 export*
%TF.Part,Single*%
%TF.FileFunction,Legend,Bot,1*%
%TF.FilePolarity,Positive*%
%TF.GenerationSoftware,Autodesk,EAGLE,9.1.0*%
%TF.CreationDate,2019-02-06T17:54:37Z*%
G75*
%MOMM*%
%FSLAX34Y34*%
%LPD*%
%AMOC8*
5,1,8,0,0,1.08239X$1,22.5*%
G01*
%ADD10C,0.406400*%
%ADD11C,0.203200*%
%ADD12R,6.278875X0.060956*%
%ADD13R,6.217919X0.060956*%
%ADD14R,6.278875X0.060963*%
%ADD15R,0.487681X0.060956*%
%ADD16R,0.487675X0.060956*%
%ADD17R,5.669275X0.060956*%
%ADD18R,0.487681X0.060963*%
%ADD19R,5.669275X0.060963*%
%ADD20R,0.487675X0.060963*%
%ADD21R,0.548638X0.060956*%
%ADD22R,0.548638X0.060963*%
%ADD23R,6.156956X0.060963*%
%ADD24R,6.156956X0.060956*%
%ADD25R,0.426719X0.060956*%
%ADD26R,6.705600X0.060956*%
%ADD27R,0.426719X0.060963*%
%ADD28R,6.705600X0.060963*%
%ADD29R,2.865119X0.060956*%
%ADD30R,1.341119X0.060956*%
%ADD31R,2.865119X0.060963*%
%ADD32R,1.341119X0.060963*%
%ADD33R,0.365756X0.060956*%
%ADD34R,0.365756X0.060963*%
%ADD35R,4.267200X0.060956*%
%ADD36R,3.657600X0.060956*%
%ADD37R,3.048000X0.060956*%
%ADD38R,4.206238X0.060956*%
%ADD39R,4.267200X0.060963*%
%ADD40R,3.657600X0.060963*%
%ADD41R,3.048000X0.060963*%
%ADD42R,4.206238X0.060963*%
%ADD43R,3.596638X0.060963*%
%ADD44R,2.133600X0.060956*%
%ADD45R,0.853438X0.060956*%
%ADD46R,1.828800X0.060956*%
%ADD47R,1.219200X0.060956*%
%ADD48R,1.828800X0.060963*%
%ADD49R,1.219200X0.060963*%
%ADD50R,0.853438X0.060963*%
%ADD51R,2.133600X0.060963*%
%ADD52R,1.097281X0.060956*%
%ADD53R,1.036319X0.060963*%
%ADD54R,1.036319X0.060956*%
%ADD55R,0.914400X0.060956*%
%ADD56R,1.463037X0.060963*%
%ADD57R,1.463037X0.060956*%
%ADD58R,0.243838X0.060956*%
%ADD59R,0.121919X0.060956*%
%ADD60R,1.524000X0.060956*%
%ADD61R,0.121919X0.060963*%
%ADD62R,1.524000X0.060963*%
%ADD63R,2.438400X0.060956*%
%ADD64R,2.987038X0.060956*%
%ADD65R,0.670556X0.060956*%
%ADD66R,0.609600X0.060956*%
%ADD67R,0.975356X0.060956*%
%ADD68R,0.609600X0.060963*%
%ADD69R,0.975356X0.060963*%
%ADD70R,2.194556X0.060963*%
%ADD71R,0.914400X0.060963*%
%ADD72R,2.194562X0.060963*%
%ADD73R,2.194556X0.060956*%
%ADD74R,2.194562X0.060956*%
%ADD75R,2.255519X0.060956*%
%ADD76R,2.255519X0.060963*%
%ADD77R,2.682238X0.060956*%
%ADD78R,2.621281X0.060956*%
%ADD79R,1.584963X0.060963*%
%ADD80R,2.621275X0.060963*%
%ADD81R,3.108956X0.060956*%
%ADD82R,3.108956X0.060963*%
%ADD83R,2.621275X0.060956*%
%ADD84R,2.682238X0.060963*%
%ADD85R,0.060956X0.060956*%
%ADD86R,0.182875X0.060956*%
%ADD87R,7.254238X0.060956*%
%ADD88R,7.254238X0.060963*%
%ADD89C,0.177800*%
%ADD90C,0.279400*%
%ADD91C,0.127000*%
%ADD92C,0.101600*%


D10*
X5080Y431800D02*
X5086Y432299D01*
X5104Y432797D01*
X5135Y433295D01*
X5178Y433792D01*
X5233Y434287D01*
X5300Y434782D01*
X5379Y435274D01*
X5470Y435764D01*
X5574Y436252D01*
X5689Y436737D01*
X5816Y437220D01*
X5955Y437699D01*
X6106Y438174D01*
X6268Y438646D01*
X6442Y439113D01*
X6627Y439576D01*
X6823Y440035D01*
X7031Y440488D01*
X7250Y440936D01*
X7479Y441379D01*
X7720Y441816D01*
X7971Y442247D01*
X8233Y442671D01*
X8505Y443089D01*
X8787Y443500D01*
X9079Y443905D01*
X9381Y444302D01*
X9692Y444691D01*
X10014Y445072D01*
X10344Y445446D01*
X10683Y445811D01*
X11032Y446168D01*
X11389Y446517D01*
X11754Y446856D01*
X12128Y447186D01*
X12509Y447508D01*
X12898Y447819D01*
X13295Y448121D01*
X13700Y448413D01*
X14111Y448695D01*
X14529Y448967D01*
X14953Y449229D01*
X15384Y449480D01*
X15821Y449721D01*
X16264Y449950D01*
X16712Y450169D01*
X17165Y450377D01*
X17624Y450573D01*
X18087Y450758D01*
X18554Y450932D01*
X19026Y451094D01*
X19501Y451245D01*
X19980Y451384D01*
X20463Y451511D01*
X20948Y451626D01*
X21436Y451730D01*
X21926Y451821D01*
X22418Y451900D01*
X22913Y451967D01*
X23408Y452022D01*
X23905Y452065D01*
X24403Y452096D01*
X24901Y452114D01*
X25400Y452120D01*
X25899Y452114D01*
X26397Y452096D01*
X26895Y452065D01*
X27392Y452022D01*
X27887Y451967D01*
X28382Y451900D01*
X28874Y451821D01*
X29364Y451730D01*
X29852Y451626D01*
X30337Y451511D01*
X30820Y451384D01*
X31299Y451245D01*
X31774Y451094D01*
X32246Y450932D01*
X32713Y450758D01*
X33176Y450573D01*
X33635Y450377D01*
X34088Y450169D01*
X34536Y449950D01*
X34979Y449721D01*
X35416Y449480D01*
X35847Y449229D01*
X36271Y448967D01*
X36689Y448695D01*
X37100Y448413D01*
X37505Y448121D01*
X37902Y447819D01*
X38291Y447508D01*
X38672Y447186D01*
X39046Y446856D01*
X39411Y446517D01*
X39768Y446168D01*
X40117Y445811D01*
X40456Y445446D01*
X40786Y445072D01*
X41108Y444691D01*
X41419Y444302D01*
X41721Y443905D01*
X42013Y443500D01*
X42295Y443089D01*
X42567Y442671D01*
X42829Y442247D01*
X43080Y441816D01*
X43321Y441379D01*
X43550Y440936D01*
X43769Y440488D01*
X43977Y440035D01*
X44173Y439576D01*
X44358Y439113D01*
X44532Y438646D01*
X44694Y438174D01*
X44845Y437699D01*
X44984Y437220D01*
X45111Y436737D01*
X45226Y436252D01*
X45330Y435764D01*
X45421Y435274D01*
X45500Y434782D01*
X45567Y434287D01*
X45622Y433792D01*
X45665Y433295D01*
X45696Y432797D01*
X45714Y432299D01*
X45720Y431800D01*
X45714Y431301D01*
X45696Y430803D01*
X45665Y430305D01*
X45622Y429808D01*
X45567Y429313D01*
X45500Y428818D01*
X45421Y428326D01*
X45330Y427836D01*
X45226Y427348D01*
X45111Y426863D01*
X44984Y426380D01*
X44845Y425901D01*
X44694Y425426D01*
X44532Y424954D01*
X44358Y424487D01*
X44173Y424024D01*
X43977Y423565D01*
X43769Y423112D01*
X43550Y422664D01*
X43321Y422221D01*
X43080Y421784D01*
X42829Y421353D01*
X42567Y420929D01*
X42295Y420511D01*
X42013Y420100D01*
X41721Y419695D01*
X41419Y419298D01*
X41108Y418909D01*
X40786Y418528D01*
X40456Y418154D01*
X40117Y417789D01*
X39768Y417432D01*
X39411Y417083D01*
X39046Y416744D01*
X38672Y416414D01*
X38291Y416092D01*
X37902Y415781D01*
X37505Y415479D01*
X37100Y415187D01*
X36689Y414905D01*
X36271Y414633D01*
X35847Y414371D01*
X35416Y414120D01*
X34979Y413879D01*
X34536Y413650D01*
X34088Y413431D01*
X33635Y413223D01*
X33176Y413027D01*
X32713Y412842D01*
X32246Y412668D01*
X31774Y412506D01*
X31299Y412355D01*
X30820Y412216D01*
X30337Y412089D01*
X29852Y411974D01*
X29364Y411870D01*
X28874Y411779D01*
X28382Y411700D01*
X27887Y411633D01*
X27392Y411578D01*
X26895Y411535D01*
X26397Y411504D01*
X25899Y411486D01*
X25400Y411480D01*
X24901Y411486D01*
X24403Y411504D01*
X23905Y411535D01*
X23408Y411578D01*
X22913Y411633D01*
X22418Y411700D01*
X21926Y411779D01*
X21436Y411870D01*
X20948Y411974D01*
X20463Y412089D01*
X19980Y412216D01*
X19501Y412355D01*
X19026Y412506D01*
X18554Y412668D01*
X18087Y412842D01*
X17624Y413027D01*
X17165Y413223D01*
X16712Y413431D01*
X16264Y413650D01*
X15821Y413879D01*
X15384Y414120D01*
X14953Y414371D01*
X14529Y414633D01*
X14111Y414905D01*
X13700Y415187D01*
X13295Y415479D01*
X12898Y415781D01*
X12509Y416092D01*
X12128Y416414D01*
X11754Y416744D01*
X11389Y417083D01*
X11032Y417432D01*
X10683Y417789D01*
X10344Y418154D01*
X10014Y418528D01*
X9692Y418909D01*
X9381Y419298D01*
X9079Y419695D01*
X8787Y420100D01*
X8505Y420511D01*
X8233Y420929D01*
X7971Y421353D01*
X7720Y421784D01*
X7479Y422221D01*
X7250Y422664D01*
X7031Y423112D01*
X6823Y423565D01*
X6627Y424024D01*
X6442Y424487D01*
X6268Y424954D01*
X6106Y425426D01*
X5955Y425901D01*
X5816Y426380D01*
X5689Y426863D01*
X5574Y427348D01*
X5470Y427836D01*
X5379Y428326D01*
X5300Y428818D01*
X5233Y429313D01*
X5178Y429808D01*
X5135Y430305D01*
X5104Y430803D01*
X5086Y431301D01*
X5080Y431800D01*
X284480Y365760D02*
X284486Y366259D01*
X284504Y366757D01*
X284535Y367255D01*
X284578Y367752D01*
X284633Y368247D01*
X284700Y368742D01*
X284779Y369234D01*
X284870Y369724D01*
X284974Y370212D01*
X285089Y370697D01*
X285216Y371180D01*
X285355Y371659D01*
X285506Y372134D01*
X285668Y372606D01*
X285842Y373073D01*
X286027Y373536D01*
X286223Y373995D01*
X286431Y374448D01*
X286650Y374896D01*
X286879Y375339D01*
X287120Y375776D01*
X287371Y376207D01*
X287633Y376631D01*
X287905Y377049D01*
X288187Y377460D01*
X288479Y377865D01*
X288781Y378262D01*
X289092Y378651D01*
X289414Y379032D01*
X289744Y379406D01*
X290083Y379771D01*
X290432Y380128D01*
X290789Y380477D01*
X291154Y380816D01*
X291528Y381146D01*
X291909Y381468D01*
X292298Y381779D01*
X292695Y382081D01*
X293100Y382373D01*
X293511Y382655D01*
X293929Y382927D01*
X294353Y383189D01*
X294784Y383440D01*
X295221Y383681D01*
X295664Y383910D01*
X296112Y384129D01*
X296565Y384337D01*
X297024Y384533D01*
X297487Y384718D01*
X297954Y384892D01*
X298426Y385054D01*
X298901Y385205D01*
X299380Y385344D01*
X299863Y385471D01*
X300348Y385586D01*
X300836Y385690D01*
X301326Y385781D01*
X301818Y385860D01*
X302313Y385927D01*
X302808Y385982D01*
X303305Y386025D01*
X303803Y386056D01*
X304301Y386074D01*
X304800Y386080D01*
X305299Y386074D01*
X305797Y386056D01*
X306295Y386025D01*
X306792Y385982D01*
X307287Y385927D01*
X307782Y385860D01*
X308274Y385781D01*
X308764Y385690D01*
X309252Y385586D01*
X309737Y385471D01*
X310220Y385344D01*
X310699Y385205D01*
X311174Y385054D01*
X311646Y384892D01*
X312113Y384718D01*
X312576Y384533D01*
X313035Y384337D01*
X313488Y384129D01*
X313936Y383910D01*
X314379Y383681D01*
X314816Y383440D01*
X315247Y383189D01*
X315671Y382927D01*
X316089Y382655D01*
X316500Y382373D01*
X316905Y382081D01*
X317302Y381779D01*
X317691Y381468D01*
X318072Y381146D01*
X318446Y380816D01*
X318811Y380477D01*
X319168Y380128D01*
X319517Y379771D01*
X319856Y379406D01*
X320186Y379032D01*
X320508Y378651D01*
X320819Y378262D01*
X321121Y377865D01*
X321413Y377460D01*
X321695Y377049D01*
X321967Y376631D01*
X322229Y376207D01*
X322480Y375776D01*
X322721Y375339D01*
X322950Y374896D01*
X323169Y374448D01*
X323377Y373995D01*
X323573Y373536D01*
X323758Y373073D01*
X323932Y372606D01*
X324094Y372134D01*
X324245Y371659D01*
X324384Y371180D01*
X324511Y370697D01*
X324626Y370212D01*
X324730Y369724D01*
X324821Y369234D01*
X324900Y368742D01*
X324967Y368247D01*
X325022Y367752D01*
X325065Y367255D01*
X325096Y366757D01*
X325114Y366259D01*
X325120Y365760D01*
X325114Y365261D01*
X325096Y364763D01*
X325065Y364265D01*
X325022Y363768D01*
X324967Y363273D01*
X324900Y362778D01*
X324821Y362286D01*
X324730Y361796D01*
X324626Y361308D01*
X324511Y360823D01*
X324384Y360340D01*
X324245Y359861D01*
X324094Y359386D01*
X323932Y358914D01*
X323758Y358447D01*
X323573Y357984D01*
X323377Y357525D01*
X323169Y357072D01*
X322950Y356624D01*
X322721Y356181D01*
X322480Y355744D01*
X322229Y355313D01*
X321967Y354889D01*
X321695Y354471D01*
X321413Y354060D01*
X321121Y353655D01*
X320819Y353258D01*
X320508Y352869D01*
X320186Y352488D01*
X319856Y352114D01*
X319517Y351749D01*
X319168Y351392D01*
X318811Y351043D01*
X318446Y350704D01*
X318072Y350374D01*
X317691Y350052D01*
X317302Y349741D01*
X316905Y349439D01*
X316500Y349147D01*
X316089Y348865D01*
X315671Y348593D01*
X315247Y348331D01*
X314816Y348080D01*
X314379Y347839D01*
X313936Y347610D01*
X313488Y347391D01*
X313035Y347183D01*
X312576Y346987D01*
X312113Y346802D01*
X311646Y346628D01*
X311174Y346466D01*
X310699Y346315D01*
X310220Y346176D01*
X309737Y346049D01*
X309252Y345934D01*
X308764Y345830D01*
X308274Y345739D01*
X307782Y345660D01*
X307287Y345593D01*
X306792Y345538D01*
X306295Y345495D01*
X305797Y345464D01*
X305299Y345446D01*
X304800Y345440D01*
X304301Y345446D01*
X303803Y345464D01*
X303305Y345495D01*
X302808Y345538D01*
X302313Y345593D01*
X301818Y345660D01*
X301326Y345739D01*
X300836Y345830D01*
X300348Y345934D01*
X299863Y346049D01*
X299380Y346176D01*
X298901Y346315D01*
X298426Y346466D01*
X297954Y346628D01*
X297487Y346802D01*
X297024Y346987D01*
X296565Y347183D01*
X296112Y347391D01*
X295664Y347610D01*
X295221Y347839D01*
X294784Y348080D01*
X294353Y348331D01*
X293929Y348593D01*
X293511Y348865D01*
X293100Y349147D01*
X292695Y349439D01*
X292298Y349741D01*
X291909Y350052D01*
X291528Y350374D01*
X291154Y350704D01*
X290789Y351043D01*
X290432Y351392D01*
X290083Y351749D01*
X289744Y352114D01*
X289414Y352488D01*
X289092Y352869D01*
X288781Y353258D01*
X288479Y353655D01*
X288187Y354060D01*
X287905Y354471D01*
X287633Y354889D01*
X287371Y355313D01*
X287120Y355744D01*
X286879Y356181D01*
X286650Y356624D01*
X286431Y357072D01*
X286223Y357525D01*
X286027Y357984D01*
X285842Y358447D01*
X285668Y358914D01*
X285506Y359386D01*
X285355Y359861D01*
X285216Y360340D01*
X285089Y360823D01*
X284974Y361308D01*
X284870Y361796D01*
X284779Y362286D01*
X284700Y362778D01*
X284633Y363273D01*
X284578Y363768D01*
X284535Y364265D01*
X284504Y364763D01*
X284486Y365261D01*
X284480Y365760D01*
X279400Y142240D02*
X279406Y142739D01*
X279424Y143237D01*
X279455Y143735D01*
X279498Y144232D01*
X279553Y144727D01*
X279620Y145222D01*
X279699Y145714D01*
X279790Y146204D01*
X279894Y146692D01*
X280009Y147177D01*
X280136Y147660D01*
X280275Y148139D01*
X280426Y148614D01*
X280588Y149086D01*
X280762Y149553D01*
X280947Y150016D01*
X281143Y150475D01*
X281351Y150928D01*
X281570Y151376D01*
X281799Y151819D01*
X282040Y152256D01*
X282291Y152687D01*
X282553Y153111D01*
X282825Y153529D01*
X283107Y153940D01*
X283399Y154345D01*
X283701Y154742D01*
X284012Y155131D01*
X284334Y155512D01*
X284664Y155886D01*
X285003Y156251D01*
X285352Y156608D01*
X285709Y156957D01*
X286074Y157296D01*
X286448Y157626D01*
X286829Y157948D01*
X287218Y158259D01*
X287615Y158561D01*
X288020Y158853D01*
X288431Y159135D01*
X288849Y159407D01*
X289273Y159669D01*
X289704Y159920D01*
X290141Y160161D01*
X290584Y160390D01*
X291032Y160609D01*
X291485Y160817D01*
X291944Y161013D01*
X292407Y161198D01*
X292874Y161372D01*
X293346Y161534D01*
X293821Y161685D01*
X294300Y161824D01*
X294783Y161951D01*
X295268Y162066D01*
X295756Y162170D01*
X296246Y162261D01*
X296738Y162340D01*
X297233Y162407D01*
X297728Y162462D01*
X298225Y162505D01*
X298723Y162536D01*
X299221Y162554D01*
X299720Y162560D01*
X300219Y162554D01*
X300717Y162536D01*
X301215Y162505D01*
X301712Y162462D01*
X302207Y162407D01*
X302702Y162340D01*
X303194Y162261D01*
X303684Y162170D01*
X304172Y162066D01*
X304657Y161951D01*
X305140Y161824D01*
X305619Y161685D01*
X306094Y161534D01*
X306566Y161372D01*
X307033Y161198D01*
X307496Y161013D01*
X307955Y160817D01*
X308408Y160609D01*
X308856Y160390D01*
X309299Y160161D01*
X309736Y159920D01*
X310167Y159669D01*
X310591Y159407D01*
X311009Y159135D01*
X311420Y158853D01*
X311825Y158561D01*
X312222Y158259D01*
X312611Y157948D01*
X312992Y157626D01*
X313366Y157296D01*
X313731Y156957D01*
X314088Y156608D01*
X314437Y156251D01*
X314776Y155886D01*
X315106Y155512D01*
X315428Y155131D01*
X315739Y154742D01*
X316041Y154345D01*
X316333Y153940D01*
X316615Y153529D01*
X316887Y153111D01*
X317149Y152687D01*
X317400Y152256D01*
X317641Y151819D01*
X317870Y151376D01*
X318089Y150928D01*
X318297Y150475D01*
X318493Y150016D01*
X318678Y149553D01*
X318852Y149086D01*
X319014Y148614D01*
X319165Y148139D01*
X319304Y147660D01*
X319431Y147177D01*
X319546Y146692D01*
X319650Y146204D01*
X319741Y145714D01*
X319820Y145222D01*
X319887Y144727D01*
X319942Y144232D01*
X319985Y143735D01*
X320016Y143237D01*
X320034Y142739D01*
X320040Y142240D01*
X320034Y141741D01*
X320016Y141243D01*
X319985Y140745D01*
X319942Y140248D01*
X319887Y139753D01*
X319820Y139258D01*
X319741Y138766D01*
X319650Y138276D01*
X319546Y137788D01*
X319431Y137303D01*
X319304Y136820D01*
X319165Y136341D01*
X319014Y135866D01*
X318852Y135394D01*
X318678Y134927D01*
X318493Y134464D01*
X318297Y134005D01*
X318089Y133552D01*
X317870Y133104D01*
X317641Y132661D01*
X317400Y132224D01*
X317149Y131793D01*
X316887Y131369D01*
X316615Y130951D01*
X316333Y130540D01*
X316041Y130135D01*
X315739Y129738D01*
X315428Y129349D01*
X315106Y128968D01*
X314776Y128594D01*
X314437Y128229D01*
X314088Y127872D01*
X313731Y127523D01*
X313366Y127184D01*
X312992Y126854D01*
X312611Y126532D01*
X312222Y126221D01*
X311825Y125919D01*
X311420Y125627D01*
X311009Y125345D01*
X310591Y125073D01*
X310167Y124811D01*
X309736Y124560D01*
X309299Y124319D01*
X308856Y124090D01*
X308408Y123871D01*
X307955Y123663D01*
X307496Y123467D01*
X307033Y123282D01*
X306566Y123108D01*
X306094Y122946D01*
X305619Y122795D01*
X305140Y122656D01*
X304657Y122529D01*
X304172Y122414D01*
X303684Y122310D01*
X303194Y122219D01*
X302702Y122140D01*
X302207Y122073D01*
X301712Y122018D01*
X301215Y121975D01*
X300717Y121944D01*
X300219Y121926D01*
X299720Y121920D01*
X299221Y121926D01*
X298723Y121944D01*
X298225Y121975D01*
X297728Y122018D01*
X297233Y122073D01*
X296738Y122140D01*
X296246Y122219D01*
X295756Y122310D01*
X295268Y122414D01*
X294783Y122529D01*
X294300Y122656D01*
X293821Y122795D01*
X293346Y122946D01*
X292874Y123108D01*
X292407Y123282D01*
X291944Y123467D01*
X291485Y123663D01*
X291032Y123871D01*
X290584Y124090D01*
X290141Y124319D01*
X289704Y124560D01*
X289273Y124811D01*
X288849Y125073D01*
X288431Y125345D01*
X288020Y125627D01*
X287615Y125919D01*
X287218Y126221D01*
X286829Y126532D01*
X286448Y126854D01*
X286074Y127184D01*
X285709Y127523D01*
X285352Y127872D01*
X285003Y128229D01*
X284664Y128594D01*
X284334Y128968D01*
X284012Y129349D01*
X283701Y129738D01*
X283399Y130135D01*
X283107Y130540D01*
X282825Y130951D01*
X282553Y131369D01*
X282291Y131793D01*
X282040Y132224D01*
X281799Y132661D01*
X281570Y133104D01*
X281351Y133552D01*
X281143Y134005D01*
X280947Y134464D01*
X280762Y134927D01*
X280588Y135394D01*
X280426Y135866D01*
X280275Y136341D01*
X280136Y136820D01*
X280009Y137303D01*
X279894Y137788D01*
X279790Y138276D01*
X279699Y138766D01*
X279620Y139258D01*
X279553Y139753D01*
X279498Y140248D01*
X279455Y140745D01*
X279424Y141243D01*
X279406Y141741D01*
X279400Y142240D01*
X764540Y195580D02*
X764546Y196079D01*
X764564Y196577D01*
X764595Y197075D01*
X764638Y197572D01*
X764693Y198067D01*
X764760Y198562D01*
X764839Y199054D01*
X764930Y199544D01*
X765034Y200032D01*
X765149Y200517D01*
X765276Y201000D01*
X765415Y201479D01*
X765566Y201954D01*
X765728Y202426D01*
X765902Y202893D01*
X766087Y203356D01*
X766283Y203815D01*
X766491Y204268D01*
X766710Y204716D01*
X766939Y205159D01*
X767180Y205596D01*
X767431Y206027D01*
X767693Y206451D01*
X767965Y206869D01*
X768247Y207280D01*
X768539Y207685D01*
X768841Y208082D01*
X769152Y208471D01*
X769474Y208852D01*
X769804Y209226D01*
X770143Y209591D01*
X770492Y209948D01*
X770849Y210297D01*
X771214Y210636D01*
X771588Y210966D01*
X771969Y211288D01*
X772358Y211599D01*
X772755Y211901D01*
X773160Y212193D01*
X773571Y212475D01*
X773989Y212747D01*
X774413Y213009D01*
X774844Y213260D01*
X775281Y213501D01*
X775724Y213730D01*
X776172Y213949D01*
X776625Y214157D01*
X777084Y214353D01*
X777547Y214538D01*
X778014Y214712D01*
X778486Y214874D01*
X778961Y215025D01*
X779440Y215164D01*
X779923Y215291D01*
X780408Y215406D01*
X780896Y215510D01*
X781386Y215601D01*
X781878Y215680D01*
X782373Y215747D01*
X782868Y215802D01*
X783365Y215845D01*
X783863Y215876D01*
X784361Y215894D01*
X784860Y215900D01*
X785359Y215894D01*
X785857Y215876D01*
X786355Y215845D01*
X786852Y215802D01*
X787347Y215747D01*
X787842Y215680D01*
X788334Y215601D01*
X788824Y215510D01*
X789312Y215406D01*
X789797Y215291D01*
X790280Y215164D01*
X790759Y215025D01*
X791234Y214874D01*
X791706Y214712D01*
X792173Y214538D01*
X792636Y214353D01*
X793095Y214157D01*
X793548Y213949D01*
X793996Y213730D01*
X794439Y213501D01*
X794876Y213260D01*
X795307Y213009D01*
X795731Y212747D01*
X796149Y212475D01*
X796560Y212193D01*
X796965Y211901D01*
X797362Y211599D01*
X797751Y211288D01*
X798132Y210966D01*
X798506Y210636D01*
X798871Y210297D01*
X799228Y209948D01*
X799577Y209591D01*
X799916Y209226D01*
X800246Y208852D01*
X800568Y208471D01*
X800879Y208082D01*
X801181Y207685D01*
X801473Y207280D01*
X801755Y206869D01*
X802027Y206451D01*
X802289Y206027D01*
X802540Y205596D01*
X802781Y205159D01*
X803010Y204716D01*
X803229Y204268D01*
X803437Y203815D01*
X803633Y203356D01*
X803818Y202893D01*
X803992Y202426D01*
X804154Y201954D01*
X804305Y201479D01*
X804444Y201000D01*
X804571Y200517D01*
X804686Y200032D01*
X804790Y199544D01*
X804881Y199054D01*
X804960Y198562D01*
X805027Y198067D01*
X805082Y197572D01*
X805125Y197075D01*
X805156Y196577D01*
X805174Y196079D01*
X805180Y195580D01*
X805174Y195081D01*
X805156Y194583D01*
X805125Y194085D01*
X805082Y193588D01*
X805027Y193093D01*
X804960Y192598D01*
X804881Y192106D01*
X804790Y191616D01*
X804686Y191128D01*
X804571Y190643D01*
X804444Y190160D01*
X804305Y189681D01*
X804154Y189206D01*
X803992Y188734D01*
X803818Y188267D01*
X803633Y187804D01*
X803437Y187345D01*
X803229Y186892D01*
X803010Y186444D01*
X802781Y186001D01*
X802540Y185564D01*
X802289Y185133D01*
X802027Y184709D01*
X801755Y184291D01*
X801473Y183880D01*
X801181Y183475D01*
X800879Y183078D01*
X800568Y182689D01*
X800246Y182308D01*
X799916Y181934D01*
X799577Y181569D01*
X799228Y181212D01*
X798871Y180863D01*
X798506Y180524D01*
X798132Y180194D01*
X797751Y179872D01*
X797362Y179561D01*
X796965Y179259D01*
X796560Y178967D01*
X796149Y178685D01*
X795731Y178413D01*
X795307Y178151D01*
X794876Y177900D01*
X794439Y177659D01*
X793996Y177430D01*
X793548Y177211D01*
X793095Y177003D01*
X792636Y176807D01*
X792173Y176622D01*
X791706Y176448D01*
X791234Y176286D01*
X790759Y176135D01*
X790280Y175996D01*
X789797Y175869D01*
X789312Y175754D01*
X788824Y175650D01*
X788334Y175559D01*
X787842Y175480D01*
X787347Y175413D01*
X786852Y175358D01*
X786355Y175315D01*
X785857Y175284D01*
X785359Y175266D01*
X784860Y175260D01*
X784361Y175266D01*
X783863Y175284D01*
X783365Y175315D01*
X782868Y175358D01*
X782373Y175413D01*
X781878Y175480D01*
X781386Y175559D01*
X780896Y175650D01*
X780408Y175754D01*
X779923Y175869D01*
X779440Y175996D01*
X778961Y176135D01*
X778486Y176286D01*
X778014Y176448D01*
X777547Y176622D01*
X777084Y176807D01*
X776625Y177003D01*
X776172Y177211D01*
X775724Y177430D01*
X775281Y177659D01*
X774844Y177900D01*
X774413Y178151D01*
X773989Y178413D01*
X773571Y178685D01*
X773160Y178967D01*
X772755Y179259D01*
X772358Y179561D01*
X771969Y179872D01*
X771588Y180194D01*
X771214Y180524D01*
X770849Y180863D01*
X770492Y181212D01*
X770143Y181569D01*
X769804Y181934D01*
X769474Y182308D01*
X769152Y182689D01*
X768841Y183078D01*
X768539Y183475D01*
X768247Y183880D01*
X767965Y184291D01*
X767693Y184709D01*
X767431Y185133D01*
X767180Y185564D01*
X766939Y186001D01*
X766710Y186444D01*
X766491Y186892D01*
X766283Y187345D01*
X766087Y187804D01*
X765902Y188267D01*
X765728Y188734D01*
X765566Y189206D01*
X765415Y189681D01*
X765276Y190160D01*
X765149Y190643D01*
X765034Y191128D01*
X764930Y191616D01*
X764839Y192106D01*
X764760Y192598D01*
X764693Y193093D01*
X764638Y193588D01*
X764595Y194085D01*
X764564Y194583D01*
X764546Y195081D01*
X764540Y195580D01*
X764540Y424180D02*
X764546Y424679D01*
X764564Y425177D01*
X764595Y425675D01*
X764638Y426172D01*
X764693Y426667D01*
X764760Y427162D01*
X764839Y427654D01*
X764930Y428144D01*
X765034Y428632D01*
X765149Y429117D01*
X765276Y429600D01*
X765415Y430079D01*
X765566Y430554D01*
X765728Y431026D01*
X765902Y431493D01*
X766087Y431956D01*
X766283Y432415D01*
X766491Y432868D01*
X766710Y433316D01*
X766939Y433759D01*
X767180Y434196D01*
X767431Y434627D01*
X767693Y435051D01*
X767965Y435469D01*
X768247Y435880D01*
X768539Y436285D01*
X768841Y436682D01*
X769152Y437071D01*
X769474Y437452D01*
X769804Y437826D01*
X770143Y438191D01*
X770492Y438548D01*
X770849Y438897D01*
X771214Y439236D01*
X771588Y439566D01*
X771969Y439888D01*
X772358Y440199D01*
X772755Y440501D01*
X773160Y440793D01*
X773571Y441075D01*
X773989Y441347D01*
X774413Y441609D01*
X774844Y441860D01*
X775281Y442101D01*
X775724Y442330D01*
X776172Y442549D01*
X776625Y442757D01*
X777084Y442953D01*
X777547Y443138D01*
X778014Y443312D01*
X778486Y443474D01*
X778961Y443625D01*
X779440Y443764D01*
X779923Y443891D01*
X780408Y444006D01*
X780896Y444110D01*
X781386Y444201D01*
X781878Y444280D01*
X782373Y444347D01*
X782868Y444402D01*
X783365Y444445D01*
X783863Y444476D01*
X784361Y444494D01*
X784860Y444500D01*
X785359Y444494D01*
X785857Y444476D01*
X786355Y444445D01*
X786852Y444402D01*
X787347Y444347D01*
X787842Y444280D01*
X788334Y444201D01*
X788824Y444110D01*
X789312Y444006D01*
X789797Y443891D01*
X790280Y443764D01*
X790759Y443625D01*
X791234Y443474D01*
X791706Y443312D01*
X792173Y443138D01*
X792636Y442953D01*
X793095Y442757D01*
X793548Y442549D01*
X793996Y442330D01*
X794439Y442101D01*
X794876Y441860D01*
X795307Y441609D01*
X795731Y441347D01*
X796149Y441075D01*
X796560Y440793D01*
X796965Y440501D01*
X797362Y440199D01*
X797751Y439888D01*
X798132Y439566D01*
X798506Y439236D01*
X798871Y438897D01*
X799228Y438548D01*
X799577Y438191D01*
X799916Y437826D01*
X800246Y437452D01*
X800568Y437071D01*
X800879Y436682D01*
X801181Y436285D01*
X801473Y435880D01*
X801755Y435469D01*
X802027Y435051D01*
X802289Y434627D01*
X802540Y434196D01*
X802781Y433759D01*
X803010Y433316D01*
X803229Y432868D01*
X803437Y432415D01*
X803633Y431956D01*
X803818Y431493D01*
X803992Y431026D01*
X804154Y430554D01*
X804305Y430079D01*
X804444Y429600D01*
X804571Y429117D01*
X804686Y428632D01*
X804790Y428144D01*
X804881Y427654D01*
X804960Y427162D01*
X805027Y426667D01*
X805082Y426172D01*
X805125Y425675D01*
X805156Y425177D01*
X805174Y424679D01*
X805180Y424180D01*
X805174Y423681D01*
X805156Y423183D01*
X805125Y422685D01*
X805082Y422188D01*
X805027Y421693D01*
X804960Y421198D01*
X804881Y420706D01*
X804790Y420216D01*
X804686Y419728D01*
X804571Y419243D01*
X804444Y418760D01*
X804305Y418281D01*
X804154Y417806D01*
X803992Y417334D01*
X803818Y416867D01*
X803633Y416404D01*
X803437Y415945D01*
X803229Y415492D01*
X803010Y415044D01*
X802781Y414601D01*
X802540Y414164D01*
X802289Y413733D01*
X802027Y413309D01*
X801755Y412891D01*
X801473Y412480D01*
X801181Y412075D01*
X800879Y411678D01*
X800568Y411289D01*
X800246Y410908D01*
X799916Y410534D01*
X799577Y410169D01*
X799228Y409812D01*
X798871Y409463D01*
X798506Y409124D01*
X798132Y408794D01*
X797751Y408472D01*
X797362Y408161D01*
X796965Y407859D01*
X796560Y407567D01*
X796149Y407285D01*
X795731Y407013D01*
X795307Y406751D01*
X794876Y406500D01*
X794439Y406259D01*
X793996Y406030D01*
X793548Y405811D01*
X793095Y405603D01*
X792636Y405407D01*
X792173Y405222D01*
X791706Y405048D01*
X791234Y404886D01*
X790759Y404735D01*
X790280Y404596D01*
X789797Y404469D01*
X789312Y404354D01*
X788824Y404250D01*
X788334Y404159D01*
X787842Y404080D01*
X787347Y404013D01*
X786852Y403958D01*
X786355Y403915D01*
X785857Y403884D01*
X785359Y403866D01*
X784860Y403860D01*
X784361Y403866D01*
X783863Y403884D01*
X783365Y403915D01*
X782868Y403958D01*
X782373Y404013D01*
X781878Y404080D01*
X781386Y404159D01*
X780896Y404250D01*
X780408Y404354D01*
X779923Y404469D01*
X779440Y404596D01*
X778961Y404735D01*
X778486Y404886D01*
X778014Y405048D01*
X777547Y405222D01*
X777084Y405407D01*
X776625Y405603D01*
X776172Y405811D01*
X775724Y406030D01*
X775281Y406259D01*
X774844Y406500D01*
X774413Y406751D01*
X773989Y407013D01*
X773571Y407285D01*
X773160Y407567D01*
X772755Y407859D01*
X772358Y408161D01*
X771969Y408472D01*
X771588Y408794D01*
X771214Y409124D01*
X770849Y409463D01*
X770492Y409812D01*
X770143Y410169D01*
X769804Y410534D01*
X769474Y410908D01*
X769152Y411289D01*
X768841Y411678D01*
X768539Y412075D01*
X768247Y412480D01*
X767965Y412891D01*
X767693Y413309D01*
X767431Y413733D01*
X767180Y414164D01*
X766939Y414601D01*
X766710Y415044D01*
X766491Y415492D01*
X766283Y415945D01*
X766087Y416404D01*
X765902Y416867D01*
X765728Y417334D01*
X765566Y417806D01*
X765415Y418281D01*
X765276Y418760D01*
X765149Y419243D01*
X765034Y419728D01*
X764930Y420216D01*
X764839Y420706D01*
X764760Y421198D01*
X764693Y421693D01*
X764638Y422188D01*
X764595Y422685D01*
X764564Y423183D01*
X764546Y423681D01*
X764540Y424180D01*
D11*
X65385Y405348D02*
X63606Y407127D01*
X65385Y405348D02*
X65385Y401789D01*
X63606Y400009D01*
X56488Y400009D01*
X54708Y401789D01*
X54708Y405348D01*
X56488Y407127D01*
X60047Y407127D01*
X60047Y403568D01*
X65385Y411703D02*
X54708Y411703D01*
X54708Y418821D02*
X65385Y411703D01*
X65385Y418821D02*
X54708Y418821D01*
X54708Y423397D02*
X65385Y423397D01*
X54708Y423397D02*
X54708Y428736D01*
X56488Y430515D01*
X63606Y430515D01*
X65385Y428736D01*
X65385Y423397D01*
X80078Y391652D02*
X90756Y391652D01*
X80078Y391652D02*
X80078Y398770D01*
X90756Y403346D02*
X90756Y410464D01*
X90756Y403346D02*
X80078Y403346D01*
X80078Y410464D01*
X85417Y406905D02*
X85417Y403346D01*
X80078Y415040D02*
X90756Y415040D01*
X90756Y422158D01*
X85417Y418599D02*
X85417Y415040D01*
X80078Y430293D02*
X90756Y430293D01*
X90756Y426734D02*
X90756Y433852D01*
X107604Y413830D02*
X116501Y413830D01*
X107604Y413830D02*
X105824Y415609D01*
X105824Y419168D01*
X107604Y420948D01*
X116501Y420948D01*
X116501Y425524D02*
X105824Y425524D01*
X116501Y425524D02*
X116501Y430862D01*
X114722Y432642D01*
X111163Y432642D01*
X109383Y430862D01*
X109383Y425524D01*
X132326Y389685D02*
X143003Y389685D01*
X132326Y389685D02*
X132326Y395024D01*
X134105Y396804D01*
X141223Y396804D01*
X143003Y395024D01*
X143003Y389685D01*
X143003Y403159D02*
X143003Y406718D01*
X143003Y403159D02*
X141223Y401379D01*
X134105Y401379D01*
X132326Y403159D01*
X132326Y406718D01*
X134105Y408497D01*
X141223Y408497D01*
X143003Y406718D01*
X143003Y413073D02*
X132326Y413073D01*
X135885Y416632D01*
X132326Y420191D01*
X143003Y420191D01*
X143003Y424767D02*
X132326Y424767D01*
X132326Y431885D02*
X143003Y424767D01*
X143003Y431885D02*
X132326Y431885D01*
X157315Y383251D02*
X167992Y383251D01*
X167992Y388589D01*
X166213Y390369D01*
X162654Y390369D01*
X160874Y388589D01*
X160874Y383251D01*
X160874Y386810D02*
X157315Y390369D01*
X157315Y394945D02*
X157315Y398504D01*
X157315Y396724D02*
X167992Y396724D01*
X167992Y394945D02*
X167992Y398504D01*
X167992Y408079D02*
X166213Y409859D01*
X167992Y408079D02*
X167992Y404520D01*
X166213Y402741D01*
X159095Y402741D01*
X157315Y404520D01*
X157315Y408079D01*
X159095Y409859D01*
X162654Y409859D01*
X162654Y406300D01*
X167992Y414435D02*
X157315Y414435D01*
X162654Y414435D02*
X162654Y421553D01*
X167992Y421553D02*
X157315Y421553D01*
X157315Y429688D02*
X167992Y429688D01*
X167992Y426129D02*
X167992Y433247D01*
X192412Y373869D02*
X194191Y372090D01*
X194191Y368531D01*
X192412Y366751D01*
X190632Y366751D01*
X188853Y368531D01*
X188853Y372090D01*
X187073Y373869D01*
X185294Y373869D01*
X183514Y372090D01*
X183514Y368531D01*
X185294Y366751D01*
X194191Y378445D02*
X194191Y385563D01*
X194191Y378445D02*
X183514Y378445D01*
X183514Y385563D01*
X188853Y382004D02*
X188853Y378445D01*
X194191Y390139D02*
X183514Y390139D01*
X183514Y397257D01*
X194191Y401833D02*
X194191Y408951D01*
X194191Y401833D02*
X183514Y401833D01*
X183514Y408951D01*
X188853Y405392D02*
X188853Y401833D01*
X194191Y418866D02*
X192412Y420645D01*
X194191Y418866D02*
X194191Y415307D01*
X192412Y413527D01*
X185294Y413527D01*
X183514Y415307D01*
X183514Y418866D01*
X185294Y420645D01*
X183514Y428780D02*
X194191Y428780D01*
X194191Y425221D02*
X194191Y432339D01*
X217553Y386471D02*
X219332Y384691D01*
X219332Y381132D01*
X217553Y379353D01*
X215773Y379353D01*
X213993Y381132D01*
X213993Y384691D01*
X212214Y386471D01*
X210434Y386471D01*
X208655Y384691D01*
X208655Y381132D01*
X210434Y379353D01*
X208655Y394606D02*
X219332Y394606D01*
X219332Y391047D02*
X219332Y398165D01*
X215773Y402741D02*
X208655Y402741D01*
X215773Y402741D02*
X219332Y406300D01*
X215773Y409859D01*
X208655Y409859D01*
X213993Y409859D02*
X213993Y402741D01*
X208655Y414435D02*
X219332Y414435D01*
X219332Y419773D01*
X217553Y421553D01*
X213993Y421553D01*
X212214Y419773D01*
X212214Y414435D01*
X212214Y417994D02*
X208655Y421553D01*
X208655Y429688D02*
X219332Y429688D01*
X219332Y426129D02*
X219332Y433247D01*
X234098Y425221D02*
X244775Y425221D01*
X244775Y430560D01*
X242996Y432339D01*
X241216Y432339D01*
X239437Y430560D01*
X237657Y432339D01*
X235878Y432339D01*
X234098Y430560D01*
X234098Y425221D01*
X239437Y425221D02*
X239437Y430560D01*
X259390Y425977D02*
X266508Y425977D01*
X270067Y429536D01*
X266508Y433095D01*
X259390Y433095D01*
X264729Y433095D02*
X264729Y425977D01*
X284122Y433074D02*
X294800Y425956D01*
X294800Y433074D02*
X284122Y425956D01*
X284031Y433240D02*
X294708Y426122D01*
X294708Y433240D02*
X284031Y426122D01*
X319259Y425744D02*
X321039Y425744D01*
X319259Y425744D02*
X315700Y429303D01*
X319259Y432862D01*
X321039Y432862D01*
X315700Y429303D02*
X310362Y429303D01*
D12*
X477317Y135331D03*
D13*
X477012Y135941D03*
D14*
X477317Y136550D03*
D12*
X477317Y137160D03*
X477317Y137770D03*
X477317Y138379D03*
X477317Y138989D03*
D14*
X477317Y139598D03*
D15*
X443484Y140208D03*
D16*
X506273Y140208D03*
D15*
X443484Y140818D03*
D17*
X474878Y140818D03*
D16*
X506273Y140818D03*
D15*
X443484Y141427D03*
D17*
X474878Y141427D03*
D16*
X506273Y141427D03*
D15*
X443484Y142037D03*
D17*
X474878Y142037D03*
D16*
X506273Y142037D03*
D18*
X443484Y142646D03*
D19*
X474878Y142646D03*
D20*
X506273Y142646D03*
D15*
X443484Y143256D03*
D17*
X474878Y143256D03*
D16*
X506273Y143256D03*
D15*
X443484Y143866D03*
D17*
X474878Y143866D03*
D16*
X506273Y143866D03*
D15*
X443484Y144475D03*
D17*
X474878Y144475D03*
D16*
X506273Y144475D03*
D21*
X438302Y145085D03*
D17*
X474878Y145085D03*
D16*
X506273Y145085D03*
D22*
X438302Y145694D03*
D23*
X472440Y145694D03*
D20*
X506273Y145694D03*
D21*
X438302Y146304D03*
D24*
X472440Y146304D03*
D16*
X506273Y146304D03*
D21*
X438302Y146914D03*
D24*
X472440Y146914D03*
D16*
X506273Y146914D03*
D21*
X438302Y147523D03*
D24*
X472440Y147523D03*
D16*
X506273Y147523D03*
D21*
X438302Y148133D03*
D24*
X472440Y148133D03*
D16*
X506273Y148133D03*
D22*
X438302Y148742D03*
D23*
X472440Y148742D03*
D20*
X506273Y148742D03*
D21*
X438302Y149352D03*
D24*
X472440Y149352D03*
D16*
X506273Y149352D03*
D25*
X433426Y149962D03*
D24*
X472440Y149962D03*
D16*
X506273Y149962D03*
D25*
X433426Y150571D03*
D26*
X469697Y150571D03*
D16*
X506273Y150571D03*
D25*
X433426Y151181D03*
D26*
X469697Y151181D03*
D16*
X506273Y151181D03*
D27*
X433426Y151790D03*
D28*
X469697Y151790D03*
D20*
X506273Y151790D03*
D25*
X433426Y152400D03*
D26*
X469697Y152400D03*
D16*
X506273Y152400D03*
D25*
X433426Y153010D03*
D26*
X469697Y153010D03*
D16*
X506273Y153010D03*
D25*
X433426Y153619D03*
D26*
X469697Y153619D03*
D16*
X506273Y153619D03*
D25*
X433426Y154229D03*
D29*
X450494Y154229D03*
D25*
X477317Y154229D03*
D30*
X496519Y154229D03*
D16*
X506273Y154229D03*
D27*
X433426Y154838D03*
D31*
X450494Y154838D03*
D27*
X477317Y154838D03*
D32*
X496519Y154838D03*
D20*
X506273Y154838D03*
D25*
X433426Y155448D03*
D29*
X450494Y155448D03*
D25*
X477317Y155448D03*
D30*
X496519Y155448D03*
D16*
X506273Y155448D03*
D25*
X433426Y156058D03*
D29*
X450494Y156058D03*
D25*
X477317Y156058D03*
D30*
X496519Y156058D03*
D16*
X506273Y156058D03*
D25*
X462686Y156667D03*
X477317Y156667D03*
D30*
X496519Y156667D03*
D16*
X506273Y156667D03*
D33*
X462991Y157277D03*
D25*
X477317Y157277D03*
D30*
X496519Y157277D03*
D16*
X506273Y157277D03*
D34*
X462991Y157886D03*
D27*
X477317Y157886D03*
D32*
X496519Y157886D03*
D20*
X506273Y157886D03*
D35*
X358140Y158496D03*
D36*
X406908Y158496D03*
D37*
X444094Y158496D03*
D33*
X462991Y158496D03*
D25*
X477317Y158496D03*
D30*
X496519Y158496D03*
D16*
X506273Y158496D03*
D35*
X358140Y159106D03*
D36*
X406908Y159106D03*
D37*
X444094Y159106D03*
D33*
X462991Y159106D03*
D25*
X477317Y159106D03*
D30*
X496519Y159106D03*
D16*
X506273Y159106D03*
D35*
X358140Y159715D03*
D36*
X406908Y159715D03*
D37*
X444094Y159715D03*
D33*
X462991Y159715D03*
D25*
X477317Y159715D03*
D30*
X496519Y159715D03*
D16*
X506273Y159715D03*
D35*
X358140Y160325D03*
D36*
X406908Y160325D03*
D37*
X444094Y160325D03*
D38*
X482194Y160325D03*
D16*
X506273Y160325D03*
D39*
X358140Y160934D03*
D40*
X406908Y160934D03*
D41*
X444094Y160934D03*
D42*
X482194Y160934D03*
D20*
X506273Y160934D03*
D35*
X358140Y161544D03*
D36*
X406908Y161544D03*
D37*
X444094Y161544D03*
D38*
X482194Y161544D03*
D16*
X506273Y161544D03*
D35*
X358140Y162154D03*
D36*
X406908Y162154D03*
D37*
X444094Y162154D03*
D38*
X482194Y162154D03*
D16*
X506273Y162154D03*
D35*
X358140Y162763D03*
D36*
X406908Y162763D03*
D37*
X444094Y162763D03*
D38*
X482194Y162763D03*
D16*
X506273Y162763D03*
D35*
X358140Y163373D03*
D36*
X406908Y163373D03*
D37*
X444094Y163373D03*
D36*
X484937Y163373D03*
D16*
X506273Y163373D03*
D39*
X358140Y163982D03*
D40*
X406908Y163982D03*
D41*
X444094Y163982D03*
D43*
X485242Y163982D03*
D20*
X506273Y163982D03*
D35*
X358140Y164592D03*
D36*
X406908Y164592D03*
D37*
X444094Y164592D03*
D44*
X477926Y164592D03*
D45*
X498958Y164592D03*
D16*
X506273Y164592D03*
D46*
X370332Y165202D03*
D47*
X388620Y165202D03*
X419100Y165202D03*
X434950Y165202D03*
X459334Y165202D03*
D44*
X477926Y165202D03*
D45*
X498958Y165202D03*
D16*
X506273Y165202D03*
D46*
X370332Y165811D03*
D47*
X388620Y165811D03*
X419100Y165811D03*
X434950Y165811D03*
X459334Y165811D03*
D44*
X477926Y165811D03*
D45*
X498958Y165811D03*
D16*
X506273Y165811D03*
D46*
X370332Y166421D03*
D47*
X388620Y166421D03*
X419100Y166421D03*
X434950Y166421D03*
X459334Y166421D03*
D44*
X477926Y166421D03*
D45*
X498958Y166421D03*
D16*
X506273Y166421D03*
D48*
X370332Y167030D03*
D49*
X388620Y167030D03*
X419100Y167030D03*
X434950Y167030D03*
D50*
X447142Y167030D03*
D49*
X459334Y167030D03*
D51*
X477926Y167030D03*
D50*
X498958Y167030D03*
D20*
X506273Y167030D03*
D46*
X370332Y167640D03*
D47*
X388620Y167640D03*
X419100Y167640D03*
X434950Y167640D03*
D45*
X447142Y167640D03*
D47*
X459334Y167640D03*
D44*
X477926Y167640D03*
D45*
X498958Y167640D03*
D16*
X506273Y167640D03*
D46*
X370332Y168250D03*
D47*
X388620Y168250D03*
X419100Y168250D03*
X434950Y168250D03*
D45*
X447142Y168250D03*
D47*
X459334Y168250D03*
D44*
X477926Y168250D03*
D45*
X498958Y168250D03*
D16*
X506273Y168250D03*
D46*
X370332Y168859D03*
D47*
X388620Y168859D03*
X419100Y168859D03*
X434950Y168859D03*
D45*
X447142Y168859D03*
D47*
X459334Y168859D03*
D44*
X477926Y168859D03*
D45*
X498958Y168859D03*
D16*
X506273Y168859D03*
D46*
X370332Y169469D03*
D47*
X388620Y169469D03*
X419100Y169469D03*
X434950Y169469D03*
D45*
X447142Y169469D03*
D47*
X459334Y169469D03*
D52*
X478231Y169469D03*
D33*
X501396Y169469D03*
D16*
X506273Y169469D03*
D48*
X370332Y170078D03*
D49*
X388620Y170078D03*
X419100Y170078D03*
X434950Y170078D03*
D50*
X447142Y170078D03*
D49*
X459334Y170078D03*
D53*
X478536Y170078D03*
D34*
X501396Y170078D03*
D20*
X506273Y170078D03*
D46*
X370332Y170688D03*
D47*
X388620Y170688D03*
X419100Y170688D03*
X434950Y170688D03*
D45*
X447142Y170688D03*
D47*
X459334Y170688D03*
D54*
X478536Y170688D03*
D33*
X501396Y170688D03*
D16*
X506273Y170688D03*
D46*
X364236Y171298D03*
D47*
X388620Y171298D03*
X419100Y171298D03*
X434950Y171298D03*
D45*
X447142Y171298D03*
D47*
X465430Y171298D03*
D54*
X478536Y171298D03*
D33*
X501396Y171298D03*
D16*
X506273Y171298D03*
D46*
X364236Y171907D03*
D47*
X388620Y171907D03*
X419100Y171907D03*
X434950Y171907D03*
D45*
X447142Y171907D03*
D47*
X465430Y171907D03*
D54*
X478536Y171907D03*
D33*
X501396Y171907D03*
D16*
X506273Y171907D03*
D46*
X364236Y172517D03*
D47*
X388620Y172517D03*
X419100Y172517D03*
X434950Y172517D03*
D55*
X447446Y172517D03*
D47*
X465430Y172517D03*
D54*
X478536Y172517D03*
D33*
X501396Y172517D03*
D16*
X506273Y172517D03*
D48*
X364236Y173126D03*
D49*
X388620Y173126D03*
X419100Y173126D03*
X434950Y173126D03*
D56*
X450190Y173126D03*
D49*
X465430Y173126D03*
D53*
X478536Y173126D03*
D34*
X501396Y173126D03*
D20*
X506273Y173126D03*
D46*
X364236Y173736D03*
D47*
X388620Y173736D03*
X419100Y173736D03*
X434950Y173736D03*
D57*
X450190Y173736D03*
D47*
X465430Y173736D03*
D54*
X478536Y173736D03*
D33*
X501396Y173736D03*
D16*
X506273Y173736D03*
D46*
X364236Y174346D03*
D47*
X388620Y174346D03*
X419100Y174346D03*
X434950Y174346D03*
D58*
X444094Y174346D03*
D59*
X456895Y174346D03*
D47*
X465430Y174346D03*
D54*
X478536Y174346D03*
D33*
X501396Y174346D03*
D16*
X506273Y174346D03*
D46*
X364236Y174955D03*
D47*
X388620Y174955D03*
X419100Y174955D03*
X434950Y174955D03*
D58*
X444094Y174955D03*
D59*
X456895Y174955D03*
D47*
X465430Y174955D03*
D60*
X480974Y174955D03*
D45*
X498958Y174955D03*
D16*
X506273Y174955D03*
D46*
X364236Y175565D03*
D47*
X388620Y175565D03*
X419100Y175565D03*
X434950Y175565D03*
D59*
X456895Y175565D03*
D47*
X465430Y175565D03*
D60*
X480974Y175565D03*
D45*
X498958Y175565D03*
D16*
X506273Y175565D03*
D48*
X364236Y176174D03*
D49*
X388620Y176174D03*
X419100Y176174D03*
X434950Y176174D03*
D61*
X456895Y176174D03*
D49*
X465430Y176174D03*
D62*
X480974Y176174D03*
D50*
X498958Y176174D03*
D20*
X506273Y176174D03*
D46*
X364236Y176784D03*
D47*
X388620Y176784D03*
X419100Y176784D03*
X434950Y176784D03*
D59*
X456895Y176784D03*
D47*
X465430Y176784D03*
D60*
X480974Y176784D03*
D45*
X498958Y176784D03*
D16*
X506273Y176784D03*
D63*
X361188Y177394D03*
D35*
X403860Y177394D03*
D46*
X437998Y177394D03*
D59*
X456895Y177394D03*
D47*
X465430Y177394D03*
D60*
X480974Y177394D03*
D45*
X498958Y177394D03*
D16*
X506273Y177394D03*
D46*
X358140Y178003D03*
D36*
X406908Y178003D03*
D46*
X437998Y178003D03*
D59*
X456895Y178003D03*
D47*
X465430Y178003D03*
D60*
X480974Y178003D03*
D45*
X498958Y178003D03*
D16*
X506273Y178003D03*
D55*
X575462Y178003D03*
D46*
X358140Y178613D03*
D36*
X406908Y178613D03*
D46*
X437998Y178613D03*
D59*
X456895Y178613D03*
D47*
X465430Y178613D03*
D60*
X480974Y178613D03*
D45*
X498958Y178613D03*
D16*
X506273Y178613D03*
D55*
X575462Y178613D03*
D48*
X358140Y179222D03*
D40*
X406908Y179222D03*
D48*
X437998Y179222D03*
D61*
X456895Y179222D03*
D49*
X465430Y179222D03*
D62*
X480974Y179222D03*
D50*
X498958Y179222D03*
D20*
X506273Y179222D03*
D50*
X575158Y179222D03*
D46*
X358140Y179832D03*
D36*
X406908Y179832D03*
D46*
X437998Y179832D03*
D59*
X456895Y179832D03*
D47*
X465430Y179832D03*
D60*
X480974Y179832D03*
D45*
X498958Y179832D03*
D16*
X506273Y179832D03*
D55*
X574853Y179832D03*
D46*
X358140Y180442D03*
D36*
X406908Y180442D03*
D46*
X437998Y180442D03*
D59*
X456895Y180442D03*
D47*
X465430Y180442D03*
D64*
X488290Y180442D03*
D16*
X506273Y180442D03*
D55*
X574853Y180442D03*
D46*
X358140Y181051D03*
D36*
X406908Y181051D03*
D46*
X437998Y181051D03*
D59*
X456895Y181051D03*
D47*
X465430Y181051D03*
D65*
X476707Y181051D03*
D52*
X496519Y181051D03*
D45*
X574548Y181051D03*
D46*
X358140Y181661D03*
D36*
X406908Y181661D03*
D46*
X437998Y181661D03*
D59*
X456895Y181661D03*
D47*
X465430Y181661D03*
D66*
X476402Y181661D03*
D67*
X496519Y181661D03*
D55*
X574243Y181661D03*
D48*
X358140Y182270D03*
D40*
X406908Y182270D03*
D48*
X437998Y182270D03*
D61*
X456895Y182270D03*
D49*
X465430Y182270D03*
D68*
X476402Y182270D03*
D69*
X496519Y182270D03*
D70*
X530047Y182270D03*
D71*
X574243Y182270D03*
D72*
X596494Y182270D03*
D46*
X358140Y182880D03*
D36*
X406908Y182880D03*
D46*
X437998Y182880D03*
D59*
X456895Y182880D03*
D47*
X465430Y182880D03*
D21*
X476098Y182880D03*
D45*
X485546Y182880D03*
D55*
X496214Y182880D03*
X507797Y182880D03*
D73*
X530047Y182880D03*
D45*
X573938Y182880D03*
D74*
X596494Y182880D03*
D46*
X358140Y183490D03*
D36*
X406908Y183490D03*
D46*
X437998Y183490D03*
D59*
X456895Y183490D03*
D47*
X465430Y183490D03*
D21*
X476098Y183490D03*
D45*
X485546Y183490D03*
D55*
X496214Y183490D03*
D45*
X507492Y183490D03*
D75*
X529742Y183490D03*
D55*
X573634Y183490D03*
D75*
X596189Y183490D03*
D46*
X352044Y184099D03*
D47*
X388620Y184099D03*
X419100Y184099D03*
D59*
X456895Y184099D03*
D47*
X465430Y184099D03*
D21*
X476098Y184099D03*
D55*
X485242Y184099D03*
X496214Y184099D03*
X507187Y184099D03*
D74*
X529438Y184099D03*
D55*
X573634Y184099D03*
D73*
X595884Y184099D03*
D46*
X352044Y184709D03*
D47*
X388620Y184709D03*
X419100Y184709D03*
D59*
X456895Y184709D03*
D47*
X465430Y184709D03*
D16*
X475793Y184709D03*
D45*
X484937Y184709D03*
X495910Y184709D03*
D55*
X507187Y184709D03*
D74*
X529438Y184709D03*
D45*
X573329Y184709D03*
D73*
X595884Y184709D03*
D48*
X352044Y185318D03*
D49*
X388620Y185318D03*
X419100Y185318D03*
D71*
X452933Y185318D03*
D49*
X465430Y185318D03*
D20*
X475793Y185318D03*
D50*
X484937Y185318D03*
X495910Y185318D03*
X506882Y185318D03*
D76*
X529133Y185318D03*
D71*
X573024Y185318D03*
D76*
X595579Y185318D03*
D46*
X352044Y185928D03*
D47*
X388620Y185928D03*
X419100Y185928D03*
D25*
X433426Y185928D03*
D44*
X446837Y185928D03*
D47*
X465430Y185928D03*
D16*
X475793Y185928D03*
D55*
X484632Y185928D03*
X495605Y185928D03*
X506578Y185928D03*
X540106Y185928D03*
D77*
X564185Y185928D03*
D45*
X584302Y185928D03*
D55*
X606552Y185928D03*
D46*
X352044Y186538D03*
D47*
X388620Y186538D03*
X419100Y186538D03*
D25*
X433426Y186538D03*
D44*
X446837Y186538D03*
D47*
X465430Y186538D03*
D25*
X475488Y186538D03*
D45*
X484327Y186538D03*
X495300Y186538D03*
D55*
X506578Y186538D03*
D45*
X539801Y186538D03*
D78*
X563880Y186538D03*
D45*
X584302Y186538D03*
X606247Y186538D03*
D46*
X352044Y187147D03*
D47*
X388620Y187147D03*
X419100Y187147D03*
D25*
X433426Y187147D03*
D44*
X446837Y187147D03*
D47*
X465430Y187147D03*
D25*
X475488Y187147D03*
D45*
X484327Y187147D03*
X495300Y187147D03*
X506273Y187147D03*
D55*
X539496Y187147D03*
D77*
X563575Y187147D03*
D55*
X583997Y187147D03*
X605942Y187147D03*
D46*
X352044Y187757D03*
D47*
X388620Y187757D03*
X419100Y187757D03*
D25*
X433426Y187757D03*
D44*
X446837Y187757D03*
D47*
X465430Y187757D03*
D25*
X475488Y187757D03*
D55*
X484022Y187757D03*
X494995Y187757D03*
X505968Y187757D03*
X539496Y187757D03*
D77*
X563575Y187757D03*
D45*
X583692Y187757D03*
D55*
X605942Y187757D03*
D48*
X352044Y188366D03*
D49*
X388620Y188366D03*
X419100Y188366D03*
D27*
X433426Y188366D03*
D79*
X444094Y188366D03*
D49*
X465430Y188366D03*
D34*
X475183Y188366D03*
D50*
X483718Y188366D03*
X494690Y188366D03*
D71*
X505968Y188366D03*
D50*
X539191Y188366D03*
D80*
X563270Y188366D03*
D50*
X583692Y188366D03*
X605638Y188366D03*
D46*
X352044Y188976D03*
D47*
X388620Y188976D03*
X419100Y188976D03*
D25*
X433426Y188976D03*
D55*
X440741Y188976D03*
D47*
X465430Y188976D03*
D45*
X483718Y188976D03*
X505663Y188976D03*
D55*
X538886Y188976D03*
D77*
X562966Y188976D03*
D55*
X583387Y188976D03*
X605333Y188976D03*
D46*
X352044Y189586D03*
D47*
X388620Y189586D03*
X419100Y189586D03*
D25*
X433426Y189586D03*
D55*
X440741Y189586D03*
D47*
X465430Y189586D03*
D55*
X483413Y189586D03*
X505358Y189586D03*
X538886Y189586D03*
D77*
X562966Y189586D03*
D45*
X583082Y189586D03*
D55*
X605333Y189586D03*
D46*
X345948Y190195D03*
D47*
X388620Y190195D03*
X419100Y190195D03*
D25*
X433426Y190195D03*
D55*
X440741Y190195D03*
D47*
X459334Y190195D03*
D45*
X483108Y190195D03*
D55*
X505358Y190195D03*
D37*
X527609Y190195D03*
D45*
X549554Y190195D03*
X571500Y190195D03*
X583082Y190195D03*
X605028Y190195D03*
D46*
X345948Y190805D03*
D47*
X388620Y190805D03*
X419100Y190805D03*
D25*
X433426Y190805D03*
D55*
X440741Y190805D03*
D47*
X459334Y190805D03*
D45*
X483108Y190805D03*
X505054Y190805D03*
D81*
X527304Y190805D03*
D55*
X549250Y190805D03*
X571195Y190805D03*
X582778Y190805D03*
X604723Y190805D03*
D48*
X345948Y191414D03*
D49*
X388620Y191414D03*
X419100Y191414D03*
D27*
X433426Y191414D03*
D71*
X440741Y191414D03*
D49*
X459334Y191414D03*
D71*
X482803Y191414D03*
X504749Y191414D03*
D82*
X527304Y191414D03*
D50*
X548945Y191414D03*
D71*
X571195Y191414D03*
D50*
X582473Y191414D03*
D71*
X604723Y191414D03*
D46*
X345948Y192024D03*
D47*
X388620Y192024D03*
X419100Y192024D03*
D25*
X433426Y192024D03*
D55*
X440741Y192024D03*
D47*
X459334Y192024D03*
D45*
X482498Y192024D03*
D55*
X504749Y192024D03*
D37*
X526999Y192024D03*
D45*
X548945Y192024D03*
X570890Y192024D03*
X582473Y192024D03*
X604418Y192024D03*
D46*
X345948Y192634D03*
D47*
X388620Y192634D03*
X419100Y192634D03*
D25*
X433426Y192634D03*
D55*
X440741Y192634D03*
D47*
X459334Y192634D03*
D45*
X482498Y192634D03*
X504444Y192634D03*
D81*
X526694Y192634D03*
D55*
X548640Y192634D03*
X570586Y192634D03*
X582168Y192634D03*
X604114Y192634D03*
D46*
X345948Y193243D03*
D47*
X388620Y193243D03*
X419100Y193243D03*
D25*
X433426Y193243D03*
D55*
X440741Y193243D03*
D47*
X459334Y193243D03*
D55*
X482194Y193243D03*
X504139Y193243D03*
D81*
X526694Y193243D03*
D45*
X548335Y193243D03*
D55*
X570586Y193243D03*
D45*
X581863Y193243D03*
D55*
X604114Y193243D03*
D46*
X345948Y193853D03*
D47*
X388620Y193853D03*
X419100Y193853D03*
D25*
X433426Y193853D03*
D55*
X440741Y193853D03*
D47*
X459334Y193853D03*
D45*
X481889Y193853D03*
D55*
X504139Y193853D03*
D37*
X526390Y193853D03*
D45*
X548335Y193853D03*
X570281Y193853D03*
X581863Y193853D03*
X603809Y193853D03*
D48*
X345948Y194462D03*
D49*
X388620Y194462D03*
X419100Y194462D03*
D27*
X433426Y194462D03*
X438302Y194462D03*
D49*
X459334Y194462D03*
D50*
X481889Y194462D03*
X503834Y194462D03*
D71*
X515112Y194462D03*
D50*
X537362Y194462D03*
D71*
X548030Y194462D03*
D50*
X570281Y194462D03*
D71*
X581558Y194462D03*
D50*
X603809Y194462D03*
D46*
X345948Y195072D03*
D47*
X388620Y195072D03*
X419100Y195072D03*
X459334Y195072D03*
D55*
X481584Y195072D03*
D45*
X503834Y195072D03*
X514807Y195072D03*
D55*
X537058Y195072D03*
D45*
X547726Y195072D03*
D55*
X569976Y195072D03*
D45*
X581254Y195072D03*
D55*
X603504Y195072D03*
D46*
X345948Y195682D03*
D47*
X388620Y195682D03*
X419100Y195682D03*
X459334Y195682D03*
D45*
X481279Y195682D03*
D55*
X503530Y195682D03*
D45*
X514807Y195682D03*
X536753Y195682D03*
X547726Y195682D03*
X569671Y195682D03*
X581254Y195682D03*
X603199Y195682D03*
D46*
X345948Y196291D03*
D47*
X388620Y196291D03*
X419100Y196291D03*
X459334Y196291D03*
D45*
X481279Y196291D03*
X503225Y196291D03*
D55*
X514502Y196291D03*
D45*
X536753Y196291D03*
D55*
X547421Y196291D03*
D45*
X569671Y196291D03*
D55*
X580949Y196291D03*
D45*
X603199Y196291D03*
D35*
X358140Y196901D03*
D36*
X406908Y196901D03*
D37*
X444094Y196901D03*
D55*
X480974Y196901D03*
D45*
X503225Y196901D03*
X514198Y196901D03*
D55*
X536448Y196901D03*
D45*
X547116Y196901D03*
D55*
X569366Y196901D03*
D45*
X580644Y196901D03*
D55*
X602894Y196901D03*
D39*
X358140Y197510D03*
D40*
X406908Y197510D03*
D41*
X444094Y197510D03*
D50*
X480670Y197510D03*
D71*
X502920Y197510D03*
D50*
X514198Y197510D03*
X536143Y197510D03*
X547116Y197510D03*
X569062Y197510D03*
X580644Y197510D03*
X602590Y197510D03*
D35*
X358140Y198120D03*
D36*
X406908Y198120D03*
D37*
X444094Y198120D03*
D45*
X480670Y198120D03*
X502615Y198120D03*
D73*
X525170Y198120D03*
D83*
X560222Y198120D03*
D73*
X591617Y198120D03*
D35*
X358140Y198730D03*
D36*
X406908Y198730D03*
D37*
X444094Y198730D03*
D78*
X493776Y198730D03*
D73*
X524561Y198730D03*
D77*
X559918Y198730D03*
D73*
X591007Y198730D03*
D35*
X358140Y199339D03*
D36*
X406908Y199339D03*
D37*
X444094Y199339D03*
D77*
X493471Y199339D03*
D73*
X524561Y199339D03*
D83*
X559613Y199339D03*
D73*
X591007Y199339D03*
D35*
X358140Y199949D03*
D36*
X406908Y199949D03*
D37*
X444094Y199949D03*
D83*
X493166Y199949D03*
D73*
X524561Y199949D03*
D83*
X559613Y199949D03*
D73*
X591007Y199949D03*
D39*
X358140Y200558D03*
D40*
X406908Y200558D03*
D41*
X444094Y200558D03*
D80*
X493166Y200558D03*
D70*
X523951Y200558D03*
D84*
X559308Y200558D03*
D72*
X590398Y200558D03*
D35*
X358140Y201168D03*
D36*
X406908Y201168D03*
D37*
X444094Y201168D03*
D77*
X492862Y201168D03*
D85*
X508406Y201168D03*
D73*
X523951Y201168D03*
D78*
X559003Y201168D03*
D74*
X590398Y201168D03*
D35*
X358140Y201778D03*
D36*
X406908Y201778D03*
D37*
X444094Y201778D03*
D83*
X492557Y201778D03*
D85*
X508406Y201778D03*
D73*
X523951Y201778D03*
D78*
X559003Y201778D03*
D74*
X590398Y201778D03*
D35*
X358140Y202387D03*
D36*
X406908Y202387D03*
D37*
X444094Y202387D03*
D83*
X492557Y202387D03*
D85*
X508406Y202387D03*
D59*
X508102Y202997D03*
D61*
X508102Y203606D03*
D86*
X507797Y204216D03*
D25*
X433426Y204826D03*
X438302Y204826D03*
X501091Y204826D03*
D16*
X506273Y204826D03*
D25*
X433426Y205435D03*
X438302Y205435D03*
X501091Y205435D03*
D16*
X506273Y205435D03*
D25*
X433426Y206045D03*
X438302Y206045D03*
X501091Y206045D03*
D16*
X506273Y206045D03*
D27*
X433426Y206654D03*
X438302Y206654D03*
X501091Y206654D03*
D20*
X506273Y206654D03*
D25*
X433426Y207264D03*
X438302Y207264D03*
X501091Y207264D03*
D16*
X506273Y207264D03*
D25*
X433426Y207874D03*
X438302Y207874D03*
X501091Y207874D03*
D16*
X506273Y207874D03*
D25*
X433426Y208483D03*
X438302Y208483D03*
X501091Y208483D03*
D16*
X506273Y208483D03*
D25*
X433426Y209093D03*
X438302Y209093D03*
X501091Y209093D03*
D16*
X506273Y209093D03*
D27*
X433426Y209702D03*
X438302Y209702D03*
X501091Y209702D03*
D20*
X506273Y209702D03*
D25*
X433426Y210312D03*
X438302Y210312D03*
X501091Y210312D03*
D16*
X506273Y210312D03*
D25*
X433426Y210922D03*
X438302Y210922D03*
X501091Y210922D03*
D16*
X506273Y210922D03*
D25*
X433426Y211531D03*
X438302Y211531D03*
X501091Y211531D03*
D16*
X506273Y211531D03*
D25*
X433426Y212141D03*
X438302Y212141D03*
X501091Y212141D03*
D16*
X506273Y212141D03*
D27*
X433426Y212750D03*
X438302Y212750D03*
X501091Y212750D03*
D20*
X506273Y212750D03*
D25*
X433426Y213360D03*
X438302Y213360D03*
X501091Y213360D03*
D16*
X506273Y213360D03*
D25*
X433426Y213970D03*
X438302Y213970D03*
X501091Y213970D03*
D16*
X506273Y213970D03*
D25*
X433426Y214579D03*
X438302Y214579D03*
X501091Y214579D03*
D16*
X506273Y214579D03*
D25*
X433426Y215189D03*
X438302Y215189D03*
X501091Y215189D03*
D16*
X506273Y215189D03*
D27*
X433426Y215798D03*
X438302Y215798D03*
X501091Y215798D03*
D20*
X506273Y215798D03*
D25*
X433426Y216408D03*
X438302Y216408D03*
X501091Y216408D03*
D16*
X506273Y216408D03*
D25*
X433426Y217018D03*
X438302Y217018D03*
X501091Y217018D03*
D16*
X506273Y217018D03*
D25*
X433426Y217627D03*
X438302Y217627D03*
X501091Y217627D03*
D16*
X506273Y217627D03*
D25*
X433426Y218237D03*
X438302Y218237D03*
X501091Y218237D03*
D16*
X506273Y218237D03*
D27*
X433426Y218846D03*
X438302Y218846D03*
X501091Y218846D03*
D20*
X506273Y218846D03*
D25*
X433426Y219456D03*
X438302Y219456D03*
X501091Y219456D03*
D16*
X506273Y219456D03*
D25*
X433426Y220066D03*
X438302Y220066D03*
X501091Y220066D03*
D16*
X506273Y220066D03*
D25*
X433426Y220675D03*
X438302Y220675D03*
X501091Y220675D03*
D16*
X506273Y220675D03*
D25*
X433426Y221285D03*
X438302Y221285D03*
X501091Y221285D03*
D16*
X506273Y221285D03*
D27*
X433426Y221894D03*
X438302Y221894D03*
X501091Y221894D03*
D20*
X506273Y221894D03*
D25*
X433426Y222504D03*
X438302Y222504D03*
X501091Y222504D03*
D16*
X506273Y222504D03*
D25*
X433426Y223114D03*
X438302Y223114D03*
X501091Y223114D03*
D16*
X506273Y223114D03*
D25*
X433426Y223723D03*
X438302Y223723D03*
X501091Y223723D03*
D16*
X506273Y223723D03*
D25*
X433426Y224333D03*
X438302Y224333D03*
X501091Y224333D03*
D16*
X506273Y224333D03*
D27*
X433426Y224942D03*
X438302Y224942D03*
X501091Y224942D03*
D20*
X506273Y224942D03*
D25*
X433426Y225552D03*
X438302Y225552D03*
X501091Y225552D03*
D16*
X506273Y225552D03*
D25*
X433426Y226162D03*
X438302Y226162D03*
X501091Y226162D03*
D16*
X506273Y226162D03*
D25*
X433426Y226771D03*
X438302Y226771D03*
X501091Y226771D03*
D16*
X506273Y226771D03*
D25*
X433426Y227381D03*
X438302Y227381D03*
X501091Y227381D03*
D16*
X506273Y227381D03*
D27*
X433426Y227990D03*
X438302Y227990D03*
X501091Y227990D03*
D20*
X506273Y227990D03*
D25*
X433426Y228600D03*
X438302Y228600D03*
X501091Y228600D03*
D16*
X506273Y228600D03*
D25*
X433426Y229210D03*
X438302Y229210D03*
X501091Y229210D03*
D16*
X506273Y229210D03*
D25*
X433426Y229819D03*
X438302Y229819D03*
X501091Y229819D03*
D16*
X506273Y229819D03*
D25*
X433426Y230429D03*
X438302Y230429D03*
X501091Y230429D03*
D16*
X506273Y230429D03*
D27*
X433426Y231038D03*
X438302Y231038D03*
X501091Y231038D03*
D20*
X506273Y231038D03*
D25*
X433426Y231648D03*
X438302Y231648D03*
X501091Y231648D03*
D16*
X506273Y231648D03*
D25*
X433426Y232258D03*
X438302Y232258D03*
X501091Y232258D03*
D16*
X506273Y232258D03*
D25*
X433426Y232867D03*
X438302Y232867D03*
X501091Y232867D03*
D16*
X506273Y232867D03*
D25*
X433426Y233477D03*
X438302Y233477D03*
X501091Y233477D03*
D16*
X506273Y233477D03*
D27*
X433426Y234086D03*
D28*
X469697Y234086D03*
D20*
X506273Y234086D03*
D25*
X433426Y234696D03*
D26*
X469697Y234696D03*
D16*
X506273Y234696D03*
D25*
X433426Y235306D03*
D26*
X469697Y235306D03*
D16*
X506273Y235306D03*
D25*
X433426Y235915D03*
D26*
X469697Y235915D03*
D16*
X506273Y235915D03*
D25*
X433426Y236525D03*
D26*
X469697Y236525D03*
D16*
X506273Y236525D03*
D27*
X433426Y237134D03*
D28*
X469697Y237134D03*
D20*
X506273Y237134D03*
D25*
X433426Y237744D03*
D26*
X469697Y237744D03*
D16*
X506273Y237744D03*
D25*
X433426Y238354D03*
D16*
X506273Y238354D03*
D87*
X467563Y238963D03*
X467563Y239573D03*
D88*
X467563Y240182D03*
D87*
X467563Y240792D03*
X467563Y241402D03*
X467563Y242011D03*
X467563Y242621D03*
D88*
X467563Y243230D03*
D89*
X345373Y417632D02*
X334442Y417632D01*
X345373Y417632D02*
X345373Y423098D01*
X343551Y424920D01*
X339907Y424920D01*
X338086Y423098D01*
X338086Y417632D01*
X338086Y421276D02*
X334442Y424920D01*
X341729Y429326D02*
X345373Y432970D01*
X334442Y432970D01*
X334442Y429326D02*
X334442Y436614D01*
X358216Y417023D02*
X369148Y417023D01*
X358216Y417023D02*
X358216Y424310D01*
X365504Y428717D02*
X369148Y432360D01*
X358216Y432360D01*
X358216Y428717D02*
X358216Y436004D01*
X383819Y404109D02*
X394751Y404109D01*
X383819Y404109D02*
X383819Y411397D01*
X394751Y415803D02*
X394751Y423091D01*
X394751Y415803D02*
X383819Y415803D01*
X383819Y423091D01*
X389285Y419447D02*
X389285Y415803D01*
X394751Y427497D02*
X383819Y427497D01*
X383819Y432963D01*
X385641Y434785D01*
X392929Y434785D01*
X394751Y432963D01*
X394751Y427497D01*
X410642Y415194D02*
X421573Y415194D01*
X416107Y415194D02*
X416107Y422481D01*
X410642Y422481D02*
X421573Y422481D01*
X421573Y426888D02*
X410642Y426888D01*
X414286Y426888D02*
X421573Y434175D01*
X416107Y428710D02*
X410642Y434175D01*
X435026Y403500D02*
X445957Y403500D01*
X445957Y408966D01*
X444135Y410787D01*
X442313Y410787D01*
X440491Y408966D01*
X438670Y410787D01*
X436848Y410787D01*
X435026Y408966D01*
X435026Y403500D01*
X440491Y403500D02*
X440491Y408966D01*
X442313Y415194D02*
X435026Y415194D01*
X442313Y415194D02*
X445957Y418838D01*
X442313Y422481D01*
X435026Y422481D01*
X440491Y422481D02*
X440491Y415194D01*
X435026Y430532D02*
X445957Y430532D01*
X445957Y434175D02*
X445957Y426888D01*
D90*
X83337Y301079D02*
X73338Y301079D01*
X83337Y301079D02*
X83337Y293580D01*
X78338Y296079D01*
X75838Y296079D01*
X73338Y293580D01*
X73338Y288580D01*
X75838Y286080D01*
X80838Y286080D01*
X83337Y288580D01*
X66966Y291080D02*
X66966Y301079D01*
X66966Y291080D02*
X61966Y286080D01*
X56967Y291080D01*
X56967Y301079D01*
X178799Y299189D02*
X181299Y301689D01*
X186298Y301689D01*
X188798Y299189D01*
X188798Y289190D01*
X186298Y286690D01*
X181299Y286690D01*
X178799Y289190D01*
X178799Y294189D01*
X183799Y294189D01*
X172427Y286690D02*
X172427Y301689D01*
X162427Y286690D01*
X162427Y301689D01*
X156055Y301689D02*
X156055Y286690D01*
X148556Y286690D01*
X146056Y289190D01*
X146056Y299189D01*
X148556Y301689D01*
X156055Y301689D01*
D11*
X470824Y415321D02*
X470824Y422439D01*
X470824Y415321D02*
X465485Y415321D01*
X467264Y418880D01*
X467264Y420659D01*
X465485Y422439D01*
X461926Y422439D01*
X460146Y420659D01*
X460146Y417100D01*
X461926Y415321D01*
X463705Y427015D02*
X470824Y427015D01*
X463705Y427015D02*
X460146Y430574D01*
X463705Y434133D01*
X470824Y434133D01*
D91*
X621893Y189006D02*
X621893Y184175D01*
X621893Y189006D02*
X619478Y189006D01*
X618673Y188201D01*
X618673Y187395D01*
X619478Y186590D01*
X618673Y185785D01*
X618673Y184980D01*
X619478Y184175D01*
X621893Y184175D01*
X621893Y186590D02*
X619478Y186590D01*
X616280Y187395D02*
X614670Y189006D01*
X614670Y184175D01*
X616280Y184175D02*
X613060Y184175D01*
D92*
X93377Y268492D02*
X93377Y280186D01*
X87530Y280186D01*
X85581Y278237D01*
X85581Y274339D01*
X87530Y272390D01*
X93377Y272390D01*
X81683Y268492D02*
X81683Y276288D01*
X77785Y280186D01*
X73887Y276288D01*
X73887Y268492D01*
X73887Y274339D02*
X81683Y274339D01*
X69989Y280186D02*
X69989Y268492D01*
X64142Y268492D01*
X62193Y270441D01*
X62193Y278237D01*
X64142Y280186D01*
X69989Y280186D01*
X58295Y276288D02*
X54397Y280186D01*
X54397Y268492D01*
X58295Y268492D02*
X50499Y268492D01*
X93986Y246658D02*
X93986Y234964D01*
X93986Y246658D02*
X88139Y246658D01*
X86190Y244709D01*
X86190Y240811D01*
X88139Y238862D01*
X93986Y238862D01*
X82292Y234964D02*
X82292Y242760D01*
X78394Y246658D01*
X74496Y242760D01*
X74496Y234964D01*
X74496Y240811D02*
X82292Y240811D01*
X70598Y246658D02*
X70598Y234964D01*
X64751Y234964D01*
X62802Y236913D01*
X62802Y244709D01*
X64751Y246658D01*
X70598Y246658D01*
X58904Y234964D02*
X51109Y234964D01*
X58904Y234964D02*
X51109Y242760D01*
X51109Y244709D01*
X53058Y246658D01*
X56956Y246658D01*
X58904Y244709D01*
X94596Y211301D02*
X94596Y199607D01*
X94596Y211301D02*
X88749Y211301D01*
X86800Y209352D01*
X86800Y205454D01*
X88749Y203505D01*
X94596Y203505D01*
X82902Y199607D02*
X82902Y207403D01*
X79004Y211301D01*
X75106Y207403D01*
X75106Y199607D01*
X75106Y205454D02*
X82902Y205454D01*
X71208Y211301D02*
X71208Y199607D01*
X65361Y199607D01*
X63412Y201556D01*
X63412Y209352D01*
X65361Y211301D01*
X71208Y211301D01*
X59514Y209352D02*
X57565Y211301D01*
X53667Y211301D01*
X51718Y209352D01*
X51718Y207403D01*
X53667Y205454D01*
X55616Y205454D01*
X53667Y205454D02*
X51718Y203505D01*
X51718Y201556D01*
X53667Y199607D01*
X57565Y199607D01*
X59514Y201556D01*
X193351Y199607D02*
X193351Y211301D01*
X187504Y211301D01*
X185555Y209352D01*
X185555Y205454D01*
X187504Y203505D01*
X193351Y203505D01*
X181657Y199607D02*
X181657Y207403D01*
X177759Y211301D01*
X173861Y207403D01*
X173861Y199607D01*
X173861Y205454D02*
X181657Y205454D01*
X169963Y211301D02*
X169963Y199607D01*
X164116Y199607D01*
X162167Y201556D01*
X162167Y209352D01*
X164116Y211301D01*
X169963Y211301D01*
X152422Y211301D02*
X152422Y199607D01*
X158269Y205454D02*
X152422Y211301D01*
X150473Y205454D02*
X158269Y205454D01*
X192742Y234964D02*
X192742Y246658D01*
X186895Y246658D01*
X184946Y244709D01*
X184946Y240811D01*
X186895Y238862D01*
X192742Y238862D01*
X181048Y234964D02*
X181048Y242760D01*
X177150Y246658D01*
X173252Y242760D01*
X173252Y234964D01*
X173252Y240811D02*
X181048Y240811D01*
X169354Y246658D02*
X169354Y234964D01*
X163507Y234964D01*
X161558Y236913D01*
X161558Y244709D01*
X163507Y246658D01*
X169354Y246658D01*
X157660Y246658D02*
X149864Y246658D01*
X157660Y246658D02*
X157660Y240811D01*
X153762Y242760D01*
X151813Y242760D01*
X149864Y240811D01*
X149864Y236913D01*
X151813Y234964D01*
X155711Y234964D01*
X157660Y236913D01*
X192742Y271540D02*
X192742Y283234D01*
X186895Y283234D01*
X184946Y281285D01*
X184946Y277387D01*
X186895Y275438D01*
X192742Y275438D01*
X181048Y271540D02*
X181048Y279336D01*
X177150Y283234D01*
X173252Y279336D01*
X173252Y271540D01*
X173252Y277387D02*
X181048Y277387D01*
X169354Y283234D02*
X169354Y271540D01*
X163507Y271540D01*
X161558Y273489D01*
X161558Y281285D01*
X163507Y283234D01*
X169354Y283234D01*
X153762Y281285D02*
X149864Y283234D01*
X153762Y281285D02*
X157660Y277387D01*
X157660Y273489D01*
X155711Y271540D01*
X151813Y271540D01*
X149864Y273489D01*
X149864Y275438D01*
X151813Y277387D01*
X157660Y277387D01*
M02*
