G04 EAGLE Gerber X2 export*
%TF.Part,Single*%
%TF.FileFunction,Legend,Top,1*%
%TF.FilePolarity,Positive*%
%TF.GenerationSoftware,Autodesk,EAGLE,9.1.0*%
%TF.CreationDate,2019-02-06T17:54:37Z*%
G75*
%MOMM*%
%FSLAX34Y34*%
%LPD*%
%AMOC8*
5,1,8,0,0,1.08239X$1,22.5*%
G01*
%ADD10C,0.203200*%
%ADD11C,0.177800*%
%ADD12C,0.101600*%
%ADD13C,0.152400*%


D10*
X56487Y407065D02*
X54707Y405286D01*
X54707Y401727D01*
X56487Y399947D01*
X63605Y399947D01*
X65384Y401727D01*
X65384Y405286D01*
X63605Y407065D01*
X60046Y407065D01*
X60046Y403506D01*
X65384Y411641D02*
X54707Y411641D01*
X65384Y418759D01*
X54707Y418759D01*
X54707Y423335D02*
X65384Y423335D01*
X65384Y428674D01*
X63605Y430453D01*
X56487Y430453D01*
X54707Y428674D01*
X54707Y423335D01*
X79829Y391532D02*
X90506Y391532D01*
X90506Y398650D01*
X79829Y403226D02*
X79829Y410344D01*
X79829Y403226D02*
X90506Y403226D01*
X90506Y410344D01*
X85167Y406785D02*
X85167Y403226D01*
X79829Y414920D02*
X90506Y414920D01*
X79829Y414920D02*
X79829Y422038D01*
X85167Y418479D02*
X85167Y414920D01*
X90506Y430173D02*
X79829Y430173D01*
X79829Y426614D02*
X79829Y433732D01*
X105815Y413830D02*
X114713Y413830D01*
X116492Y415609D01*
X116492Y419168D01*
X114713Y420948D01*
X105815Y420948D01*
X105815Y425524D02*
X116492Y425524D01*
X105815Y425524D02*
X105815Y430862D01*
X107594Y432642D01*
X111153Y432642D01*
X112933Y430862D01*
X112933Y425524D01*
X132316Y389685D02*
X142994Y389685D01*
X142994Y395024D01*
X141214Y396804D01*
X134096Y396804D01*
X132316Y395024D01*
X132316Y389685D01*
X132316Y403159D02*
X132316Y406718D01*
X132316Y403159D02*
X134096Y401379D01*
X141214Y401379D01*
X142994Y403159D01*
X142994Y406718D01*
X141214Y408497D01*
X134096Y408497D01*
X132316Y406718D01*
X132316Y413073D02*
X142994Y413073D01*
X139434Y416632D01*
X142994Y420191D01*
X132316Y420191D01*
X132316Y424767D02*
X142994Y424767D01*
X142994Y431885D02*
X132316Y424767D01*
X132316Y431885D02*
X142994Y431885D01*
X157306Y383251D02*
X167983Y383251D01*
X157306Y383251D02*
X157306Y388589D01*
X159085Y390369D01*
X162644Y390369D01*
X164424Y388589D01*
X164424Y383251D01*
X164424Y386810D02*
X167983Y390369D01*
X167983Y394945D02*
X167983Y398504D01*
X167983Y396724D02*
X157306Y396724D01*
X157306Y394945D02*
X157306Y398504D01*
X157306Y408079D02*
X159085Y409859D01*
X157306Y408079D02*
X157306Y404520D01*
X159085Y402741D01*
X166204Y402741D01*
X167983Y404520D01*
X167983Y408079D01*
X166204Y409859D01*
X162644Y409859D01*
X162644Y406300D01*
X157306Y414435D02*
X167983Y414435D01*
X162644Y414435D02*
X162644Y421553D01*
X157306Y421553D02*
X167983Y421553D01*
X167983Y429688D02*
X157306Y429688D01*
X157306Y426129D02*
X157306Y433247D01*
X185285Y373869D02*
X183505Y372090D01*
X183505Y368531D01*
X185285Y366751D01*
X187064Y366751D01*
X188844Y368531D01*
X188844Y372090D01*
X190623Y373869D01*
X192403Y373869D01*
X194182Y372090D01*
X194182Y368531D01*
X192403Y366751D01*
X183505Y378445D02*
X183505Y385563D01*
X183505Y378445D02*
X194182Y378445D01*
X194182Y385563D01*
X188844Y382004D02*
X188844Y378445D01*
X194182Y390139D02*
X183505Y390139D01*
X194182Y390139D02*
X194182Y397257D01*
X183505Y401833D02*
X183505Y408951D01*
X183505Y401833D02*
X194182Y401833D01*
X194182Y408951D01*
X188844Y405392D02*
X188844Y401833D01*
X183505Y418866D02*
X185285Y420645D01*
X183505Y418866D02*
X183505Y415307D01*
X185285Y413527D01*
X192403Y413527D01*
X194182Y415307D01*
X194182Y418866D01*
X192403Y420645D01*
X194182Y428780D02*
X183505Y428780D01*
X183505Y425221D02*
X183505Y432339D01*
X210425Y386471D02*
X208646Y384691D01*
X208646Y381132D01*
X210425Y379353D01*
X212205Y379353D01*
X213984Y381132D01*
X213984Y384691D01*
X215764Y386471D01*
X217543Y386471D01*
X219323Y384691D01*
X219323Y381132D01*
X217543Y379353D01*
X219323Y394606D02*
X208646Y394606D01*
X208646Y391047D02*
X208646Y398165D01*
X212205Y402741D02*
X219323Y402741D01*
X212205Y402741D02*
X208646Y406300D01*
X212205Y409859D01*
X219323Y409859D01*
X213984Y409859D02*
X213984Y402741D01*
X208646Y414435D02*
X219323Y414435D01*
X208646Y414435D02*
X208646Y419773D01*
X210425Y421553D01*
X213984Y421553D01*
X215764Y419773D01*
X215764Y414435D01*
X215764Y417994D02*
X219323Y421553D01*
X219323Y429688D02*
X208646Y429688D01*
X208646Y426129D02*
X208646Y433247D01*
X234089Y425221D02*
X244766Y425221D01*
X234089Y425221D02*
X234089Y430560D01*
X235868Y432339D01*
X237648Y432339D01*
X239427Y430560D01*
X241207Y432339D01*
X242987Y432339D01*
X244766Y430560D01*
X244766Y425221D01*
X239427Y425221D02*
X239427Y430560D01*
X262940Y425977D02*
X270058Y425977D01*
X262940Y425977D02*
X259381Y429536D01*
X262940Y433095D01*
X270058Y433095D01*
X264719Y433095D02*
X264719Y425977D01*
X307431Y425870D02*
X309210Y425870D01*
X312769Y429429D01*
X309210Y432988D01*
X307431Y432988D01*
X312769Y429429D02*
X318108Y429429D01*
D11*
X334331Y417023D02*
X345262Y417023D01*
X334331Y417023D02*
X334331Y422488D01*
X336153Y424310D01*
X339797Y424310D01*
X341618Y422488D01*
X341618Y417023D01*
X341618Y420666D02*
X345262Y424310D01*
X337975Y428717D02*
X334331Y432360D01*
X345262Y432360D01*
X345262Y428717D02*
X345262Y436004D01*
X358105Y417632D02*
X369037Y417632D01*
X369037Y424920D01*
X361749Y429326D02*
X358105Y432970D01*
X369037Y432970D01*
X369037Y429326D02*
X369037Y436614D01*
X383708Y403500D02*
X394640Y403500D01*
X394640Y410787D01*
X383708Y415194D02*
X383708Y422481D01*
X383708Y415194D02*
X394640Y415194D01*
X394640Y422481D01*
X389174Y418838D02*
X389174Y415194D01*
X383708Y426888D02*
X394640Y426888D01*
X394640Y432353D01*
X392818Y434175D01*
X385530Y434175D01*
X383708Y432353D01*
X383708Y426888D01*
X410531Y415194D02*
X421462Y415194D01*
X415997Y415194D02*
X415997Y422481D01*
X421462Y422481D02*
X410531Y422481D01*
X410531Y426888D02*
X421462Y426888D01*
X417818Y426888D02*
X410531Y434175D01*
X415997Y428710D02*
X421462Y434175D01*
X434915Y403500D02*
X445846Y403500D01*
X434915Y403500D02*
X434915Y408966D01*
X436737Y410787D01*
X438559Y410787D01*
X440381Y408966D01*
X442202Y410787D01*
X444024Y410787D01*
X445846Y408966D01*
X445846Y403500D01*
X440381Y403500D02*
X440381Y408966D01*
X438559Y415194D02*
X445846Y415194D01*
X438559Y415194D02*
X434915Y418838D01*
X438559Y422481D01*
X445846Y422481D01*
X440381Y422481D02*
X440381Y415194D01*
X445846Y430532D02*
X434915Y430532D01*
X434915Y434175D02*
X434915Y426888D01*
D10*
X461864Y422439D02*
X461864Y415321D01*
X467203Y415321D01*
X465424Y418880D01*
X465424Y420659D01*
X467203Y422439D01*
X470762Y422439D01*
X472542Y420659D01*
X472542Y417100D01*
X470762Y415321D01*
X468983Y427015D02*
X461864Y427015D01*
X468983Y427015D02*
X472542Y430574D01*
X468983Y434133D01*
X461864Y434133D01*
D12*
X492204Y448584D02*
X500000Y436890D01*
X492204Y436890D02*
X500000Y448584D01*
X638039Y515548D02*
X638039Y517497D01*
X638039Y515548D02*
X641937Y511650D01*
X645835Y515548D01*
X645835Y517497D01*
X641937Y511650D02*
X641937Y505803D01*
D13*
X447599Y466852D02*
X434899Y466852D01*
X447599Y466852D02*
X453949Y460502D01*
X453949Y447802D01*
X447599Y441452D01*
X453949Y460502D02*
X460299Y466852D01*
X472999Y466852D01*
X479349Y460502D01*
X479349Y447802D01*
X472999Y441452D01*
X460299Y441452D01*
X453949Y447802D01*
X409499Y466852D02*
X403149Y460502D01*
X409499Y466852D02*
X422199Y466852D01*
X428549Y460502D01*
X428549Y447802D01*
X422199Y441452D01*
X409499Y441452D01*
X403149Y447802D01*
X428549Y460502D02*
X434899Y466852D01*
X428549Y447802D02*
X434899Y441452D01*
X447599Y441452D01*
X371399Y466852D02*
X358699Y466852D01*
X371399Y466852D02*
X377749Y460502D01*
X377749Y447802D01*
X371399Y441452D01*
X377749Y460502D02*
X384099Y466852D01*
X396799Y466852D01*
X403149Y460502D01*
X403149Y447802D01*
X396799Y441452D01*
X384099Y441452D01*
X377749Y447802D01*
X333299Y466852D02*
X326949Y460502D01*
X333299Y466852D02*
X345999Y466852D01*
X352349Y460502D01*
X352349Y447802D01*
X345999Y441452D01*
X333299Y441452D01*
X326949Y447802D01*
X352349Y460502D02*
X358699Y466852D01*
X352349Y447802D02*
X358699Y441452D01*
X371399Y441452D01*
X295199Y466852D02*
X282499Y466852D01*
X295199Y466852D02*
X301549Y460502D01*
X301549Y447802D01*
X295199Y441452D01*
X301549Y460502D02*
X307899Y466852D01*
X320599Y466852D01*
X326949Y460502D01*
X326949Y447802D01*
X320599Y441452D01*
X307899Y441452D01*
X301549Y447802D01*
X257099Y466852D02*
X250749Y460502D01*
X257099Y466852D02*
X269799Y466852D01*
X276149Y460502D01*
X276149Y447802D01*
X269799Y441452D01*
X257099Y441452D01*
X250749Y447802D01*
X276149Y460502D02*
X282499Y466852D01*
X276149Y447802D02*
X282499Y441452D01*
X295199Y441452D01*
X218999Y466852D02*
X206299Y466852D01*
X218999Y466852D02*
X225349Y460502D01*
X225349Y447802D01*
X218999Y441452D01*
X225349Y460502D02*
X231699Y466852D01*
X244399Y466852D01*
X250749Y460502D01*
X250749Y447802D01*
X244399Y441452D01*
X231699Y441452D01*
X225349Y447802D01*
X180899Y466852D02*
X174549Y460502D01*
X180899Y466852D02*
X193599Y466852D01*
X199949Y460502D01*
X199949Y447802D01*
X193599Y441452D01*
X180899Y441452D01*
X174549Y447802D01*
X199949Y460502D02*
X206299Y466852D01*
X199949Y447802D02*
X206299Y441452D01*
X218999Y441452D01*
X142799Y466852D02*
X130099Y466852D01*
X142799Y466852D02*
X149149Y460502D01*
X149149Y447802D01*
X142799Y441452D01*
X149149Y460502D02*
X155499Y466852D01*
X168199Y466852D01*
X174549Y460502D01*
X174549Y447802D01*
X168199Y441452D01*
X155499Y441452D01*
X149149Y447802D01*
X104699Y466852D02*
X98349Y460502D01*
X104699Y466852D02*
X117399Y466852D01*
X123749Y460502D01*
X123749Y447802D01*
X117399Y441452D01*
X104699Y441452D01*
X98349Y447802D01*
X123749Y460502D02*
X130099Y466852D01*
X123749Y447802D02*
X130099Y441452D01*
X142799Y441452D01*
X66599Y466852D02*
X53899Y466852D01*
X66599Y466852D02*
X72949Y460502D01*
X72949Y447802D01*
X66599Y441452D01*
X72949Y460502D02*
X79299Y466852D01*
X91999Y466852D01*
X98349Y460502D01*
X98349Y447802D01*
X91999Y441452D01*
X79299Y441452D01*
X72949Y447802D01*
X53899Y466852D02*
X47549Y460502D01*
X47549Y447802D02*
X53899Y441452D01*
X66599Y441452D01*
X479349Y460502D02*
X485699Y466852D01*
X498399Y466852D01*
X504749Y460502D01*
X504749Y447802D01*
X498399Y441452D01*
X485699Y441452D01*
X479349Y447802D01*
X47549Y447802D02*
X47549Y460502D01*
M02*
