G04 EAGLE Gerber X2 export*
%TF.Part,Single*%
%TF.FileFunction,Soldermask,Top,1*%
%TF.FilePolarity,Negative*%
%TF.GenerationSoftware,Autodesk,EAGLE,9.1.0*%
%TF.CreationDate,2019-01-31T10:13:58Z*%
G75*
%MOMM*%
%FSLAX34Y34*%
%LPD*%
%AMOC8*
5,1,8,0,0,1.08239X$1,22.5*%
G01*
%ADD10C,4.673600*%
%ADD11C,2.641600*%
%ADD12C,7.620000*%
%ADD13R,4.826000X4.826000*%
%ADD14C,1.879600*%


D10*
X673100Y165100D03*
D11*
X25400Y431800D03*
X784860Y424180D03*
X784860Y195580D03*
X304800Y365760D03*
X566420Y365760D03*
X299720Y142240D03*
X515620Y284480D03*
X251460Y167640D03*
X381000Y93980D03*
X797560Y284480D03*
X40640Y375920D03*
D12*
X55880Y271780D03*
D13*
G36*
X292529Y29005D02*
X249723Y6721D01*
X227439Y49527D01*
X270245Y71811D01*
X292529Y29005D01*
G37*
G36*
X346601Y57153D02*
X303795Y34869D01*
X281511Y77675D01*
X324317Y99959D01*
X346601Y57153D01*
G37*
D12*
X149860Y363220D03*
X147320Y180340D03*
X238760Y271780D03*
X586740Y251460D03*
X731520Y320040D03*
D13*
G36*
X444929Y29005D02*
X402123Y6721D01*
X379839Y49527D01*
X422645Y71811D01*
X444929Y29005D01*
G37*
G36*
X499001Y57153D02*
X456195Y34869D01*
X433911Y77675D01*
X476717Y99959D01*
X499001Y57153D01*
G37*
D12*
X517096Y398282D03*
X662931Y467195D03*
D14*
X60249Y454152D03*
X85649Y454152D03*
X111049Y454152D03*
X136449Y454152D03*
X161849Y454152D03*
X187249Y454152D03*
X212649Y454152D03*
X238049Y454152D03*
X263449Y454152D03*
X288849Y454152D03*
X314249Y454152D03*
X339649Y454152D03*
X365049Y454152D03*
X390449Y454152D03*
X415849Y454152D03*
X441249Y454152D03*
X466649Y454152D03*
X492049Y454152D03*
M02*
