G04 EAGLE Gerber X2 export*
%TF.Part,Single*%
%TF.FileFunction,Soldermask,Bot,1*%
%TF.FilePolarity,Negative*%
%TF.GenerationSoftware,Autodesk,EAGLE,9.1.0*%
%TF.CreationDate,2019-01-31T10:13:58Z*%
G75*
%MOMM*%
%FSLAX34Y34*%
%LPD*%
%AMOC8*
5,1,8,0,0,1.08239X$1,22.5*%
G01*
%ADD10C,4.673600*%
%ADD11C,2.641600*%
%ADD12C,1.879600*%
%ADD13C,2.006600*%
%ADD14R,5.181600X2.641600*%


D10*
X673100Y165100D03*
D11*
X25400Y431800D03*
X784860Y424180D03*
X784860Y195580D03*
X304800Y365760D03*
X566420Y365760D03*
X299720Y142240D03*
X515620Y284480D03*
X251460Y167640D03*
X381000Y93980D03*
X797560Y284480D03*
X40640Y375920D03*
D12*
X60249Y454152D03*
X85649Y454152D03*
X111049Y454152D03*
X136449Y454152D03*
X161849Y454152D03*
X187249Y454152D03*
X212649Y454152D03*
X238049Y454152D03*
X263449Y454152D03*
X288849Y454152D03*
X314249Y454152D03*
X339649Y454152D03*
X365049Y454152D03*
X390449Y454152D03*
X415849Y454152D03*
X441249Y454152D03*
X466649Y454152D03*
X492049Y454152D03*
D13*
X553415Y203606D03*
X578815Y203606D03*
X604215Y203606D03*
X629615Y203606D03*
X655015Y203606D03*
X680415Y203606D03*
X540715Y229006D03*
X540715Y254406D03*
X540715Y279806D03*
X540715Y305206D03*
X540715Y330606D03*
X540715Y356006D03*
X540715Y381406D03*
X693115Y229006D03*
X693115Y254406D03*
X693115Y279806D03*
X693115Y305206D03*
X693115Y330606D03*
X667715Y317906D03*
X667715Y343306D03*
X693115Y356006D03*
X693115Y381406D03*
X693115Y406806D03*
X693115Y432206D03*
X693115Y457606D03*
X693115Y483006D03*
X693115Y508406D03*
X667715Y419506D03*
X667715Y444906D03*
X540715Y406806D03*
X540715Y432206D03*
X540715Y457606D03*
X540715Y483006D03*
X540715Y508406D03*
D14*
X68885Y252984D03*
X69494Y219456D03*
X70104Y184099D03*
X168859Y184099D03*
X168250Y219456D03*
X168250Y256032D03*
M02*
